<svg width="144" height="139" viewBox="0 0 144 139" fill="none" xmlns="http://www.w3.org/2000/svg">
<g clip-path="url(#clip0_52_1277)">
<path d="M0.170532 138.83L18.1501 138.745L36.1296 138.718L72.0853 138.66L108.044 138.714L126.024 138.745L144 138.83L126.024 138.912L108.044 138.942L72.0853 139L36.1296 138.942L18.1501 138.912L0.170532 138.83Z" fill="#263238"/>
<path d="M127.62 2.41101H16.803V86.4177H127.62V2.41101Z" fill="white"/>
<path d="M127.62 86.4177L16.803 86.4653H16.7552V86.4177L16.7177 2.42461V2.3396H16.803L127.62 2.38721H127.675V2.42461L127.62 86.4177ZM127.62 86.4177L127.586 2.42461L127.62 2.45862L16.803 2.49602L16.8882 2.41101L16.8507 86.4041L16.803 86.3565L127.62 86.4177Z" fill="#263238"/>
<path d="M127.62 2.34985H16.803V5.39333H127.62V2.34985Z" fill="#455A64"/>
<path d="M19.4495 3.8698C19.4461 3.99944 19.4046 4.12525 19.3303 4.23165C19.2559 4.33805 19.1519 4.42038 19.0311 4.46845C18.9104 4.51652 18.7781 4.52821 18.6507 4.50208C18.5233 4.47596 18.4064 4.41316 18.3144 4.32146C18.2224 4.22976 18.1595 4.11319 18.1333 3.98616C18.1071 3.85914 18.1188 3.72724 18.167 3.6068C18.2152 3.48635 18.2978 3.38264 18.4045 3.30851C18.5112 3.23437 18.6374 3.19307 18.7674 3.1897C18.9483 3.1897 19.1218 3.26135 19.2497 3.3889C19.3776 3.51644 19.4495 3.68943 19.4495 3.8698Z" fill="#C7C7C7"/>
<path d="M22.1607 3.8698C22.1607 4.00432 22.1207 4.13581 22.0457 4.24765C21.9708 4.35949 21.8642 4.44666 21.7396 4.49814C21.615 4.54961 21.4778 4.56308 21.3455 4.53684C21.2132 4.5106 21.0917 4.44583 20.9963 4.35071C20.9009 4.2556 20.8359 4.13441 20.8096 4.00249C20.7833 3.87056 20.7968 3.73381 20.8484 3.60954C20.9001 3.48527 20.9875 3.37905 21.0996 3.30432C21.2118 3.22959 21.3437 3.1897 21.4786 3.1897C21.6595 3.1897 21.833 3.26135 21.9609 3.3889C22.0888 3.51644 22.1607 3.68943 22.1607 3.8698Z" fill="white"/>
<path d="M24.8685 3.86981C24.8652 4.00033 24.8232 4.12695 24.748 4.23381C24.6728 4.34067 24.5676 4.423 24.4456 4.47049C24.3236 4.51797 24.1903 4.5285 24.0624 4.50075C23.9344 4.473 23.8175 4.40821 23.7264 4.31449C23.6352 4.22078 23.5738 4.10231 23.5499 3.97395C23.526 3.84558 23.5406 3.71304 23.5919 3.59292C23.6432 3.47281 23.729 3.37047 23.8384 3.29874C23.9478 3.22701 24.076 3.18908 24.2069 3.1897C24.2955 3.18966 24.3833 3.20738 24.4649 3.2418C24.5466 3.27622 24.6204 3.32665 24.6821 3.39008C24.7438 3.45352 24.7921 3.52867 24.8242 3.61108C24.8562 3.69349 24.8713 3.78148 24.8685 3.86981Z" fill="#8956FA"/>
<path d="M93.9697 47.8693H117.938V24.9089L93.9697 24.9089V47.8693Z" fill="#455A64"/>
<path d="M101.878 40.0038H117.938L109.906 31.9615L101.878 40.0038Z" fill="#263238"/>
<path d="M93.9697 40.0106H108.215L101.091 34.7738L93.9697 40.0106Z" fill="#37474F"/>
<path d="M117.938 40.0039H93.9697V47.8693H117.938V40.0039Z" fill="#37474F"/>
<path d="M100.698 30.5878C100.698 30.9913 100.578 31.3858 100.354 31.7213C100.129 32.0569 99.8091 32.3184 99.4352 32.4728C99.0613 32.6272 98.6499 32.6676 98.253 32.5889C97.8561 32.5102 97.4915 32.3159 97.2053 32.0305C96.9191 31.7452 96.7242 31.3816 96.6453 30.9858C96.5663 30.5901 96.6068 30.1798 96.7617 29.807C96.9166 29.4342 97.1789 29.1155 97.5154 28.8913C97.8519 28.6671 98.2475 28.5475 98.6522 28.5475C99.1949 28.5475 99.7153 28.7624 100.099 29.1451C100.483 29.5277 100.698 30.0467 100.698 30.5878Z" fill="white"/>
<path d="M80.8329 25.0926C81.4877 25.0416 82.1425 25.0144 82.8007 24.9939C83.4589 24.9735 84.1103 24.9667 84.7685 24.9633C85.4267 24.9599 86.0781 24.9633 86.7363 24.9939C87.3945 25.0246 88.0459 25.0382 88.7041 25.0926C88.0459 25.147 87.3911 25.1708 86.7363 25.1912C86.0815 25.2116 85.4233 25.2184 84.7685 25.2184C84.1137 25.2184 83.4555 25.2184 82.8007 25.1912C82.1459 25.164 81.4877 25.1436 80.8329 25.0926Z" fill="#C7C7C7"/>
<path d="M62.5362 25.0925C63.9003 25.0415 65.2645 25.0143 66.6287 24.9939L70.7211 24.9667L74.8136 24.9939C76.1777 25.0143 77.5419 25.0381 78.906 25.0925C77.5419 25.1469 76.1777 25.1707 74.8136 25.1911L70.7211 25.2183L66.6287 25.1911C65.2645 25.1707 63.9003 25.1435 62.5362 25.0925Z" fill="#C7C7C7"/>
<path d="M50.5999 25.0926C51.4013 25.0416 52.2061 25.0144 53.011 24.994C53.8158 24.9736 54.6173 24.977 55.4221 24.9668C56.227 24.9566 57.0284 24.9668 57.8299 24.994C58.6313 25.0212 59.4396 25.0382 60.241 25.0926C59.4396 25.147 58.6347 25.1708 57.8299 25.1912C57.025 25.2116 56.2236 25.1912 55.4221 25.2184C54.6207 25.2456 53.8124 25.2184 53.011 25.1912C52.2096 25.164 51.3911 25.1436 50.5999 25.0926Z" fill="#C7C7C7"/>
<path d="M34.4108 25.0926C35.4987 25.0416 36.5866 25.0144 37.6745 24.994C38.7624 24.9736 39.8503 24.977 40.9382 24.9668C42.0262 24.9566 43.1141 24.9668 44.202 24.994C45.2899 25.0212 46.3778 25.0382 47.4691 25.0926C46.3778 25.147 45.2899 25.1708 44.202 25.1912C43.1141 25.2116 42.0262 25.1912 40.9382 25.2184C39.8503 25.2456 38.7624 25.2184 37.6745 25.1912C36.5866 25.164 35.4987 25.1436 34.4108 25.0926Z" fill="#C7C7C7"/>
<path d="M82.7223 28.3468C83.2202 28.2924 83.7181 28.2686 84.216 28.2482C84.714 28.2278 85.2153 28.221 85.7132 28.2176C86.2111 28.2142 86.709 28.2176 87.2069 28.2482C87.7049 28.2788 88.2062 28.2924 88.7041 28.3468C88.2062 28.3978 87.7049 28.425 87.2069 28.4454C86.709 28.4659 86.2111 28.4693 85.7132 28.4727C85.2153 28.4761 84.714 28.4727 84.216 28.442C83.7181 28.4114 83.2202 28.391 82.7223 28.3468Z" fill="#C7C7C7"/>
<path d="M70.1107 28.3468C71.0042 28.2924 71.8977 28.2686 72.7912 28.2482C73.6847 28.2278 74.5783 28.2278 75.4718 28.2176C76.3653 28.2074 77.2588 28.2176 78.1523 28.2482C79.0459 28.2788 79.9394 28.2924 80.8329 28.3468C79.9394 28.3978 79.0459 28.425 78.1523 28.4454C77.2588 28.4658 76.3653 28.4624 75.4718 28.4726C74.5783 28.4828 73.6847 28.4726 72.7912 28.442C71.8977 28.4114 71.0042 28.391 70.1107 28.3468Z" fill="#C7C7C7"/>
<path d="M54.9958 28.3468C56.0565 28.2924 57.1205 28.2686 58.1811 28.2482C59.2418 28.2278 60.3058 28.2278 61.3664 28.2176C62.4271 28.2074 63.4911 28.2176 64.5552 28.2482C65.6192 28.2788 66.6764 28.2924 67.7404 28.3468C66.6764 28.3978 65.6158 28.425 64.5552 28.4454C63.4945 28.4658 62.4305 28.4624 61.3664 28.4726C60.3024 28.4828 59.2452 28.4726 58.1811 28.442C57.1171 28.4114 56.0565 28.391 54.9958 28.3468Z" fill="#C7C7C7"/>
<path d="M34.4108 28.3469C35.9147 28.2925 37.4221 28.2687 38.9261 28.2483L43.4449 28.2177L47.9602 28.2483C49.4676 28.2687 50.9716 28.2925 52.479 28.3469C50.9716 28.3979 49.4676 28.4251 47.9602 28.4455L43.4449 28.4727L38.9261 28.4421C37.4221 28.4217 35.9147 28.3911 34.4108 28.3469Z" fill="#C7C7C7"/>
<path d="M82.0402 31.6011C82.5961 31.5467 83.1519 31.5229 83.7078 31.5025C84.2637 31.4821 84.8162 31.4753 85.3721 31.4719C85.928 31.4685 86.4839 31.4719 87.0364 31.5025C87.5889 31.5331 88.1482 31.5467 88.7041 31.6011C88.1482 31.6521 87.5923 31.6759 87.0364 31.6963C86.4805 31.7167 85.928 31.7235 85.3721 31.7269C84.8162 31.7303 84.2603 31.7269 83.7078 31.6963C83.1554 31.6657 82.5961 31.6521 82.0402 31.6011Z" fill="#C7C7C7"/>
<path d="M72.839 31.6011C73.4222 31.5467 74.0053 31.5229 74.5885 31.5025C75.1717 31.4821 75.7549 31.4753 76.3415 31.4719C76.928 31.4685 77.5078 31.4719 78.091 31.5025C78.6741 31.5331 79.2573 31.5467 79.8439 31.6011C79.2573 31.6521 78.6741 31.6759 78.091 31.6963C77.5078 31.7167 76.9246 31.7235 76.3415 31.7269C75.7583 31.7303 75.1717 31.7269 74.5885 31.6963C74.0053 31.6657 73.4222 31.6521 72.839 31.6011Z" fill="#C7C7C7"/>
<path d="M58.72 31.6012C59.7772 31.5468 60.8378 31.523 61.895 31.5026C62.9523 31.4822 64.0163 31.4822 65.0735 31.472C66.1307 31.4618 67.1914 31.472 68.252 31.5026C69.3126 31.5332 70.3698 31.5468 71.4305 31.6012C70.3698 31.6522 69.3092 31.676 68.252 31.6964C67.1948 31.7168 66.1341 31.7168 65.0735 31.727C64.0129 31.7372 62.9557 31.727 61.895 31.6964C60.8344 31.6658 59.7772 31.6522 58.72 31.6012Z" fill="#C7C7C7"/>
<path d="M47.6294 31.6012C48.4377 31.5468 49.2425 31.523 50.0474 31.5026C50.8522 31.4822 51.6605 31.4822 52.4653 31.472C53.2702 31.4618 54.0784 31.472 54.8833 31.5026C55.6881 31.5332 56.4964 31.5468 57.3012 31.6012C56.4964 31.6522 55.6881 31.676 54.8833 31.6964C54.0784 31.7168 53.2702 31.7168 52.4653 31.727C51.6605 31.7372 50.8556 31.727 50.0474 31.6964C49.2391 31.6658 48.4377 31.6522 47.6294 31.6012Z" fill="#C7C7C7"/>
<path d="M26.2463 31.6011C27.8356 31.5467 29.4282 31.5229 31.0209 31.5025L35.7954 31.4719L40.5699 31.5025C42.1592 31.5229 43.7518 31.5467 45.3445 31.6011C43.7552 31.6522 42.1626 31.676 40.5699 31.6964L35.7954 31.727L31.0209 31.6964C29.4282 31.676 27.8356 31.6522 26.2463 31.6011Z" fill="#C7C7C7"/>
<path d="M53.6692 34.8521C54.3513 34.8011 55.0333 34.7773 55.7154 34.7569C56.3975 34.7365 57.0796 34.7297 57.7616 34.7263C58.4437 34.7229 59.1258 34.7263 59.8079 34.7569C60.49 34.7875 61.172 34.8011 61.8541 34.8521C61.172 34.9065 60.49 34.9303 59.8079 34.9507C59.1258 34.9711 58.4437 34.9779 57.7616 34.9813C57.0796 34.9847 56.3975 34.9813 55.7154 34.9507C55.0333 34.9201 54.3513 34.9065 53.6692 34.8521Z" fill="#C7C7C7"/>
<path d="M39.6321 34.8521C40.6552 34.801 41.6783 34.7772 42.6776 34.7568C43.6768 34.7364 44.7238 34.7364 45.7264 34.7262C46.7291 34.716 47.7556 34.7262 48.7719 34.7568C49.7882 34.7874 50.8181 34.801 51.8174 34.8521C50.7943 34.9065 49.7711 34.9303 48.7719 34.9507C47.7727 34.9711 46.7257 34.9711 45.7264 34.9813C44.7272 34.9915 43.6802 34.9813 42.6776 34.9507C41.6749 34.9201 40.6484 34.9065 39.6321 34.8521Z" fill="#C7C7C7"/>
<path d="M26.2463 34.8521C27.2115 34.801 28.1732 34.7772 29.1383 34.7568C30.1035 34.7364 31.0652 34.7364 32.0303 34.7262C32.9955 34.716 33.9572 34.7262 34.9189 34.7568C35.8807 34.7874 36.8492 34.801 37.8109 34.8521C36.8492 34.9065 35.8841 34.9303 34.9189 34.9507C33.9538 34.9711 32.9921 34.9711 32.0303 34.9813C31.0686 34.9915 30.1001 34.9813 29.1383 34.9507C28.1766 34.9201 27.2115 34.9065 26.2463 34.8521Z" fill="#C7C7C7"/>
<path d="M80.8329 41.3606C81.4877 41.3062 82.1425 41.2824 82.8007 41.262C83.4589 41.2416 84.1103 41.2348 84.7685 41.2314C85.4267 41.228 86.0781 41.2314 86.7363 41.262C87.3945 41.2926 88.0459 41.3062 88.7041 41.3606C88.0459 41.415 87.3911 41.4388 86.7363 41.4592C86.0815 41.4796 85.4233 41.4864 84.7685 41.4864C84.1137 41.4864 83.4555 41.4864 82.8007 41.4592C82.1459 41.432 81.4877 41.4116 80.8329 41.3606Z" fill="#C7C7C7"/>
<path d="M65.1247 41.3607C66.2774 41.3063 67.4267 41.2825 68.5794 41.2621C69.7321 41.2417 70.8814 41.2621 72.0341 41.2349C73.1868 41.2077 74.3361 41.2349 75.4889 41.2621C76.6416 41.2893 77.7909 41.3063 78.9436 41.3607C77.7909 41.4151 76.6382 41.4389 75.4889 41.4593C74.3396 41.4797 73.1834 41.4593 72.0341 41.4865C70.8848 41.5137 69.7287 41.4865 68.5794 41.4593C67.4301 41.4321 66.2876 41.4117 65.1247 41.3607Z" fill="#C7C7C7"/>
<path d="M51.1933 41.3607C52.1653 41.3063 53.1338 41.2825 54.1058 41.2621C55.0777 41.2417 56.0463 41.2621 57.0148 41.2349C57.9834 41.2077 58.9587 41.2349 59.9273 41.2621C60.8958 41.2893 61.8678 41.3063 62.8398 41.3607C61.8678 41.4151 60.8992 41.4389 59.9273 41.4593C58.9553 41.4797 57.9868 41.4593 57.0148 41.4865C56.0429 41.5137 55.0743 41.4865 54.1058 41.4593C53.1372 41.4321 52.1653 41.4117 51.1933 41.3607Z" fill="#C7C7C7"/>
<path d="M42.2444 41.3606C42.814 41.3062 43.3835 41.2824 43.9496 41.262C44.5158 41.2416 45.0887 41.2348 45.6548 41.2314C46.221 41.228 46.7905 41.2314 47.36 41.262C47.9296 41.2926 48.4991 41.3062 49.0652 41.3606C48.4957 41.415 47.9261 41.4388 47.36 41.4592C46.7939 41.4796 46.221 41.4864 45.6548 41.4864C45.0887 41.4864 44.5158 41.4864 43.9496 41.4592C43.3835 41.432 42.814 41.4116 42.2444 41.3606Z" fill="#C7C7C7"/>
<path d="M26.2463 41.3607C27.4025 41.3063 28.562 41.2825 29.7181 41.2621C30.8742 41.2417 32.0338 41.2621 33.1899 41.2349C34.346 41.2077 35.5055 41.2349 36.6651 41.2621C37.8246 41.2893 38.9773 41.3063 40.1368 41.3607C38.9773 41.4151 37.8212 41.4389 36.6651 41.4593C35.5089 41.4797 34.3494 41.4593 33.1899 41.4865C32.0303 41.5137 30.8776 41.4865 29.7181 41.4593C28.5586 41.4321 27.4093 41.4117 26.2463 41.3607Z" fill="#C7C7C7"/>
<path d="M82.3846 44.615C82.9133 44.5606 83.4384 44.5368 83.9636 44.5164C84.4888 44.496 85.0175 44.4892 85.5427 44.4858C86.0678 44.4824 86.5965 44.4858 87.1251 44.5164C87.6537 44.547 88.1755 44.5606 88.7041 44.615C88.1755 44.666 87.6503 44.6932 87.1251 44.7136C86.5999 44.734 86.0713 44.7374 85.5427 44.7408C85.014 44.7442 84.4923 44.7408 83.9636 44.7102C83.435 44.6796 82.9133 44.666 82.3846 44.615Z" fill="#C7C7C7"/>
<path d="M69.8958 44.615C70.7484 44.5606 71.601 44.5368 72.457 44.5164C73.313 44.496 74.1622 44.496 75.0216 44.4858C75.881 44.4756 76.7268 44.4858 77.5862 44.5164C78.4456 44.547 79.2914 44.5606 80.1508 44.615C79.2948 44.666 78.4456 44.6932 77.5862 44.7136C76.7268 44.734 75.881 44.7306 75.0216 44.7408C74.1622 44.751 73.3164 44.7408 72.457 44.7102C71.5976 44.6796 70.7484 44.666 69.8958 44.615Z" fill="#C7C7C7"/>
<path d="M57.4752 44.615C58.3653 44.5606 59.2588 44.5368 60.149 44.5164C61.0391 44.496 61.9326 44.496 62.8261 44.4858C63.7196 44.4756 64.6063 44.4858 65.4999 44.5164C66.3934 44.547 67.2835 44.5606 68.1736 44.615C67.2835 44.666 66.39 44.6932 65.4999 44.7136C64.6097 44.734 63.7162 44.7306 62.8261 44.7408C61.936 44.751 61.0425 44.7408 60.149 44.7102C59.2554 44.6796 58.3653 44.666 57.4752 44.615Z" fill="#C7C7C7"/>
<path d="M48.0796 44.615C48.69 44.5606 49.3005 44.5368 49.9144 44.5164C50.5282 44.496 51.1353 44.4892 51.7458 44.4858C52.3562 44.4824 52.9667 44.4858 53.5771 44.5164C54.1876 44.547 54.798 44.5606 55.4119 44.615C54.798 44.666 54.1876 44.6932 53.5771 44.7136C52.9667 44.734 52.3562 44.7374 51.7458 44.7408C51.1353 44.7442 50.5248 44.7408 49.9144 44.7102C49.3039 44.6796 48.69 44.666 48.0796 44.615Z" fill="#C7C7C7"/>
<path d="M35.792 44.615C36.6651 44.5606 37.5381 44.5368 38.4112 44.5164C39.2842 44.496 40.1607 44.496 41.0337 44.4858C41.9068 44.4756 42.7799 44.4858 43.6563 44.5164C44.5328 44.547 45.4025 44.5606 46.2755 44.615C45.4025 44.666 44.5294 44.6932 43.6563 44.7136C42.7833 44.734 41.9068 44.7306 41.0337 44.7408C40.1607 44.751 39.2842 44.7408 38.4112 44.7102C37.5381 44.6796 36.6651 44.666 35.792 44.615Z" fill="#C7C7C7"/>
<path d="M26.2463 44.615C26.9284 44.5606 27.6105 44.5368 28.2926 44.5164C28.9746 44.496 29.6567 44.4892 30.3388 44.4858C31.0209 44.4824 31.703 44.4858 32.385 44.5164C33.0671 44.547 33.7492 44.5606 34.4313 44.615C33.7492 44.666 33.0671 44.6932 32.385 44.7136C31.703 44.734 31.0209 44.7374 30.3388 44.7408C29.6567 44.7442 28.9746 44.7408 28.2926 44.7102C27.6105 44.6796 26.9284 44.666 26.2463 44.615Z" fill="#C7C7C7"/>
<path d="M59.6169 47.8693C60.374 47.8148 61.1277 47.791 61.8848 47.7706C62.642 47.7502 63.3956 47.7502 64.1528 47.74C64.9099 47.7298 65.6636 47.74 66.4207 47.7706C67.1778 47.8012 67.9315 47.8148 68.6886 47.8693C67.9315 47.9203 67.1778 47.9441 66.4207 47.9645C65.6636 47.9849 64.9099 47.9849 64.1528 47.9951C63.3956 48.0053 62.642 47.9951 61.8848 47.9645C61.1277 47.9339 60.374 47.9203 59.6169 47.8693Z" fill="#C7C7C7"/>
<path d="M52.4653 47.8693C52.9291 47.8149 53.393 47.7911 53.8602 47.7707C54.3274 47.7503 54.7878 47.7435 55.2516 47.7401C55.7154 47.7367 56.1792 47.7401 56.6431 47.7707C57.1069 47.8013 57.5741 47.8149 58.0379 47.8693C57.5741 47.9203 57.1103 47.9441 56.6431 47.9645C56.1758 47.9849 55.7154 47.9917 55.2516 47.9951C54.7878 47.9985 54.324 47.9951 53.8602 47.9645C53.3964 47.9339 52.9291 47.9203 52.4653 47.8693Z" fill="#C7C7C7"/>
<path d="M41.327 47.8693C42.0875 47.8148 42.8481 47.791 43.6052 47.7706C44.3623 47.7502 45.1262 47.7502 45.8867 47.74C46.6472 47.7298 47.4077 47.74 48.1683 47.7706C48.9288 47.8012 49.6893 47.8148 50.4498 47.8693C49.6893 47.9203 48.9288 47.9441 48.1683 47.9645C47.4077 47.9849 46.6472 47.9849 45.8867 47.9951C45.1262 48.0053 44.3657 47.9951 43.6052 47.9645C42.8446 47.9339 42.0739 47.9203 41.327 47.8693Z" fill="#C7C7C7"/>
<path d="M26.2463 47.8693C27.3411 47.8148 28.4358 47.791 29.5305 47.7706C30.6253 47.7502 31.72 47.7502 32.8147 47.74C33.9095 47.7298 35.0042 47.74 36.0989 47.7706C37.1937 47.8012 38.2884 47.8148 39.3831 47.8693C38.2884 47.9203 37.1937 47.9441 36.0989 47.9645C35.0042 47.9849 33.9095 47.9849 32.8147 47.9951C31.72 48.0053 30.6253 47.9951 29.5305 47.9645C28.4358 47.9339 27.3411 47.9203 26.2463 47.8693Z" fill="#C7C7C7"/>
<path d="M111.451 51.1202C111.994 51.0692 112.532 51.0454 113.075 51.025C113.617 51.0045 114.152 50.9977 114.695 50.9943C115.237 50.9909 115.776 50.9943 116.315 51.025C116.853 51.0556 117.396 51.0692 117.938 51.1202C117.396 51.1746 116.857 51.1984 116.315 51.2188C115.772 51.2392 115.233 51.246 114.695 51.2494C114.156 51.2528 113.613 51.2494 113.075 51.2188C112.536 51.1882 111.987 51.1746 111.451 51.1202Z" fill="#C7C7C7"/>
<path d="M98.6487 51.1201C99.5866 51.0691 100.524 51.0453 101.462 51.0249C102.4 51.0045 103.338 51.0045 104.276 50.9943C105.214 50.9841 106.155 50.9943 107.093 51.0249C108.031 51.0555 108.969 51.0691 109.906 51.1201C108.969 51.1745 108.031 51.1983 107.093 51.2187C106.155 51.2391 105.214 51.2391 104.276 51.2493C103.338 51.2595 102.4 51.2493 101.462 51.2187C100.524 51.1881 99.5866 51.1745 98.6487 51.1201Z" fill="#C7C7C7"/>
<path d="M82.7223 51.1201C83.8784 51.0691 85.0345 51.0453 86.1906 51.0249C87.3468 51.0045 88.5029 51.0045 89.659 50.9943C90.8151 50.9841 91.9713 50.9943 93.1274 51.0249C94.2835 51.0555 95.4396 51.0691 96.5957 51.1201C95.4396 51.1745 94.2835 51.1983 93.1274 51.2187C91.9713 51.2391 90.8151 51.2391 89.659 51.2493C88.5029 51.2595 87.3468 51.2493 86.1906 51.2187C85.0345 51.1881 83.8784 51.1745 82.7223 51.1201Z" fill="#C7C7C7"/>
<path d="M70.9974 51.1201C71.8159 51.0691 72.6378 51.0453 73.4563 51.0249C74.2748 51.0045 75.0967 51.0045 75.9152 50.9943C76.7336 50.9841 77.5555 50.9943 78.374 51.0249C79.1925 51.0555 80.011 51.0691 80.8329 51.1201C80.011 51.1745 79.1925 51.1983 78.374 51.2187C77.5555 51.2391 76.7336 51.2391 75.9152 51.2493C75.0967 51.2595 74.2748 51.2493 73.4563 51.2187C72.6378 51.1881 71.8159 51.1745 70.9974 51.1201Z" fill="#C7C7C7"/>
<path d="M57.3013 51.1201C58.2494 51.0691 59.2009 51.0453 60.1489 51.0249C61.097 51.0045 62.0451 51.0045 62.9966 50.9943C63.9481 50.9841 64.8928 50.9943 65.8409 51.0249C66.789 51.0555 67.7405 51.0691 68.6885 51.1201C67.7405 51.1745 66.789 51.1983 65.8409 51.2187C64.8928 51.2391 63.9447 51.2391 62.9966 51.2493C62.0485 51.2595 61.097 51.2493 60.1489 51.2187C59.2009 51.1881 58.2494 51.1745 57.3013 51.1201Z" fill="#C7C7C7"/>
<path d="M44.5566 51.1201C45.4604 51.0691 46.3641 51.0453 47.2679 51.0249C48.1716 51.0045 49.0788 51.0045 49.9962 50.9943C50.9136 50.9841 51.8071 50.9943 52.7245 51.0249C53.6419 51.0555 54.532 51.0691 55.4528 51.1201C54.5457 51.1745 53.6419 51.1983 52.7245 51.2187C51.8071 51.2391 50.9136 51.2391 49.9962 51.2493C49.0788 51.2595 48.1887 51.2493 47.2679 51.2187C46.3471 51.1881 45.4604 51.1745 44.5566 51.1201Z" fill="#C7C7C7"/>
<path d="M26.3316 51.1202C27.6958 51.0692 29.0599 51.0454 30.4513 51.025L34.5677 50.9944L38.684 51.025C40.0482 51.0454 41.4294 51.0692 42.8003 51.1202C41.4362 51.1746 40.072 51.1984 38.684 51.2188L34.5677 51.2494L30.4513 51.2188C29.077 51.1984 27.706 51.1746 26.3316 51.1202Z" fill="#C7C7C7"/>
<path d="M106.53 54.3745C107.482 54.3234 108.43 54.2962 109.381 54.2758C110.333 54.2554 111.281 54.2588 112.229 54.2486C113.177 54.2384 114.132 54.2486 115.08 54.2758C116.028 54.303 116.98 54.3234 117.931 54.3745C116.98 54.4289 116.031 54.4527 115.08 54.4731C114.128 54.4935 113.18 54.4935 112.229 54.5037C111.277 54.5139 110.329 54.5037 109.381 54.4731C108.433 54.4425 107.488 54.4289 106.53 54.3745Z" fill="#C7C7C7"/>
<path d="M95.7261 54.3745C96.4866 54.3234 97.2505 54.2962 98.0144 54.2758C98.7784 54.2554 99.5389 54.2588 100.299 54.2486C101.06 54.2384 101.824 54.2486 102.588 54.2758C103.352 54.303 104.112 54.3234 104.873 54.3745C104.112 54.4289 103.348 54.4527 102.588 54.4731C101.827 54.4935 101.063 54.4935 100.299 54.5037C99.5355 54.5139 98.775 54.5037 98.0144 54.4731C97.2539 54.4425 96.4866 54.4289 95.7261 54.3745Z" fill="#C7C7C7"/>
<path d="M86.8693 54.3745C87.4115 54.3235 87.9538 54.2963 88.496 54.2759C89.0383 54.2554 89.5839 54.252 90.1262 54.2486C90.6684 54.2452 91.2107 54.2486 91.7529 54.2759C92.2952 54.3031 92.8408 54.3235 93.3831 54.3745C92.8408 54.4289 92.2952 54.4527 91.7529 54.4731C91.2107 54.4935 90.6684 54.5003 90.1262 54.5037C89.5839 54.5071 89.0417 54.5037 88.496 54.4731C87.9504 54.4425 87.4115 54.4289 86.8693 54.3745Z" fill="#C7C7C7"/>
<path d="M75.9152 54.3745C76.6518 54.3234 77.3919 54.2962 78.1285 54.2758C78.8651 54.2554 79.6052 54.2588 80.3418 54.2486C81.0785 54.2384 81.8185 54.2486 82.5552 54.2758C83.2918 54.303 84.0285 54.3234 84.7685 54.3745C84.0285 54.4289 83.2918 54.4527 82.5552 54.4731C81.8185 54.4935 81.0785 54.4935 80.3418 54.5037C79.6052 54.5139 78.8651 54.5037 78.1285 54.4731C77.3919 54.4425 76.6518 54.4289 75.9152 54.3745Z" fill="#C7C7C7"/>
<path d="M61.3665 54.3745C62.3896 54.3234 63.4127 54.2962 64.4358 54.2758C65.4589 54.2554 66.482 54.2588 67.5051 54.2486C68.5283 54.2384 69.5514 54.2486 70.5745 54.2758C71.5976 54.303 72.6207 54.3234 73.6438 54.3745C72.6207 54.4289 71.5976 54.4527 70.5745 54.4731C69.5514 54.4935 68.5283 54.4935 67.5051 54.5037C66.482 54.5139 65.4589 54.5037 64.4358 54.4731C63.4127 54.4425 62.3896 54.4289 61.3665 54.3745Z" fill="#C7C7C7"/>
<path d="M48.2126 54.3745C49.1641 54.3234 50.1122 54.2962 51.0637 54.2758C52.0152 54.2554 52.9633 54.2588 53.9113 54.2486C54.8594 54.2384 55.8109 54.2486 56.7624 54.2758C57.7139 54.303 58.662 54.3234 59.6101 54.3745C58.662 54.4289 57.7105 54.4527 56.7624 54.4731C55.8143 54.4935 54.8628 54.4935 53.9113 54.5037C52.9598 54.5139 52.0118 54.5037 51.0637 54.4731C50.1156 54.4425 49.1709 54.4289 48.2126 54.3745Z" fill="#C7C7C7"/>
<path d="M37.1323 54.3745C37.9303 54.3234 38.7283 54.2962 39.5195 54.2758C40.3107 54.2554 41.1156 54.2588 41.9068 54.2486C42.698 54.2384 43.5029 54.2486 44.2941 54.2758C45.0853 54.303 45.8935 54.3234 46.6813 54.3745C45.8833 54.4289 45.0819 54.4527 44.2941 54.4731C43.5063 54.4935 42.6946 54.4935 41.9068 54.5037C41.119 54.5139 40.3073 54.5037 39.5195 54.4731C38.7317 54.4425 37.9303 54.4289 37.1323 54.3745Z" fill="#C7C7C7"/>
<path d="M26.3316 54.3745C27.0512 54.3234 27.7708 54.2962 28.4904 54.2758C29.21 54.2554 29.9262 54.2588 30.6457 54.2486C31.3653 54.2384 32.0849 54.2486 32.8045 54.2758C33.5241 54.303 34.2403 54.3234 34.9599 54.3745C34.2403 54.4289 33.5207 54.4527 32.8045 54.4731C32.0883 54.4935 31.3653 54.4935 30.6457 54.5037C29.9262 54.5139 29.21 54.5037 28.4904 54.4731C27.7708 54.4425 27.0682 54.4289 26.3316 54.3745Z" fill="#C7C7C7"/>
<path d="M92.3225 57.6356C93.141 57.5812 93.9561 57.5574 94.7746 57.537C95.5931 57.5166 96.4082 57.52 97.2266 57.5064C98.0451 57.4928 98.8602 57.5064 99.6787 57.537C100.497 57.5676 101.312 57.5812 102.127 57.6356C101.312 57.69 100.494 57.7138 99.6787 57.7342C98.8636 57.7546 98.0417 57.7342 97.2266 57.7614C96.4116 57.7886 95.5931 57.7614 94.7746 57.7342C93.9561 57.707 93.141 57.6798 92.3225 57.6356Z" fill="#C7C7C7"/>
<path d="M79.8439 57.6356C80.7374 57.5812 81.6309 57.5574 82.5278 57.537C83.4248 57.5166 84.3183 57.52 85.2118 57.5064C86.1053 57.4928 87.0023 57.5064 87.8992 57.537C88.7961 57.5676 89.6896 57.5812 90.5832 57.6356C89.6896 57.69 88.7927 57.7138 87.8992 57.7342C87.0057 57.7546 86.1087 57.7342 85.2118 57.7614C84.3149 57.7886 83.4214 57.7614 82.5278 57.7342C81.6343 57.707 80.7374 57.6798 79.8439 57.6356Z" fill="#C7C7C7"/>
<path d="M70.4312 57.6355C71.0417 57.5811 71.6521 57.5573 72.2626 57.5369C72.8731 57.5165 73.4801 57.5097 74.0906 57.5063C74.701 57.5029 75.3081 57.5063 75.9185 57.5369C76.529 57.5675 77.1394 57.5811 77.7465 57.6355C77.1394 57.6899 76.529 57.7137 75.9185 57.7341C75.3081 57.7545 74.701 57.7614 74.0906 57.7614C73.4801 57.7614 72.8696 57.7613 72.2626 57.7341C71.6555 57.7069 71.0417 57.6797 70.4312 57.6355Z" fill="#C7C7C7"/>
<path d="M59.2827 57.6356C60.0671 57.5812 60.8515 57.5574 61.6359 57.537C62.4203 57.5166 63.2012 57.52 63.9856 57.5064C64.77 57.4928 65.5544 57.5064 66.3388 57.537C67.1232 57.5676 67.9042 57.5812 68.6885 57.6356C67.9042 57.69 67.1198 57.7138 66.3388 57.7342C65.5578 57.7546 64.77 57.7342 63.9856 57.7614C63.2012 57.7886 62.4203 57.7614 61.6359 57.7342C60.8515 57.707 60.0671 57.6798 59.2827 57.6356Z" fill="#C7C7C7"/>
<path d="M52.4653 57.6356C54.0727 57.4633 55.6939 57.4633 57.3013 57.6356C56.4986 57.7266 55.6911 57.7687 54.8833 57.7614C54.0755 57.767 53.2681 57.725 52.4653 57.6356Z" fill="#C7C7C7"/>
<path d="M40.4301 57.6356C41.2452 57.5812 42.0637 57.5574 42.8822 57.537C43.7007 57.5166 44.5158 57.52 45.3342 57.5064C46.1527 57.4928 46.9678 57.5064 47.7863 57.537C48.6048 57.5676 49.4199 57.5812 50.2384 57.6356C49.4199 57.69 48.6014 57.7138 47.7863 57.7342C46.9712 57.7546 46.1493 57.7342 45.3342 57.7614C44.5192 57.7886 43.6973 57.7614 42.8822 57.7342C42.0671 57.707 41.2452 57.6798 40.4301 57.6356Z" fill="#C7C7C7"/>
<path d="M26.3316 57.6356C27.3343 57.5812 28.3335 57.5574 29.3327 57.537C30.332 57.5166 31.3312 57.52 32.3339 57.5064C33.3365 57.4928 34.3324 57.5064 35.3316 57.537C36.3308 57.5676 37.3335 57.5812 38.3327 57.6356C37.3335 57.69 36.3308 57.7138 35.3316 57.7342C34.3324 57.7546 33.3331 57.7342 32.3339 57.7614C31.3346 57.7886 30.332 57.7614 29.3327 57.7342C28.3335 57.707 27.3343 57.6798 26.3316 57.6356Z" fill="#C7C7C7"/>
<path d="M102.127 64.1374C103.447 64.083 104.764 64.0592 106.08 64.0388L110.033 64.0082L113.985 64.0388C115.302 64.0592 116.618 64.083 117.938 64.1374C116.618 64.1884 115.302 64.2122 113.985 64.2326L110.033 64.2632L106.08 64.2326C104.764 64.2122 103.461 64.1884 102.127 64.1374Z" fill="#C7C7C7"/>
<path d="M82.7223 64.1374C84.1853 64.083 85.6518 64.0592 87.1149 64.0388L91.5108 64.0082L95.9068 64.0388C97.3699 64.0592 98.8364 64.083 100.299 64.1374C98.8364 64.1884 97.3699 64.2122 95.9068 64.2326L91.5108 64.2632L87.1149 64.2326C85.6518 64.2122 84.1853 64.1884 82.7223 64.1374Z" fill="#C7C7C7"/>
<path d="M69.1115 64.1374C70.0902 64.083 71.0656 64.0592 72.041 64.0388C73.0163 64.0184 73.9951 64.0184 74.9739 64.0082C75.9527 63.998 76.9246 64.0082 77.9034 64.0388C78.8822 64.0694 79.8542 64.083 80.8329 64.1374C79.8542 64.1884 78.8788 64.2122 77.9034 64.2327C76.928 64.2531 75.9493 64.2531 74.9739 64.2633C73.9985 64.2735 73.0197 64.2633 72.041 64.2327C71.0622 64.202 70.0902 64.1884 69.1115 64.1374Z" fill="#C7C7C7"/>
<path d="M59.6169 64.1374C60.2342 64.083 60.8481 64.0591 61.4654 64.0387C62.0826 64.0183 62.6965 64.0115 63.3138 64.0081C63.9311 64.0047 64.5449 64.0081 65.1588 64.0387C65.7727 64.0694 66.3934 64.083 67.0072 64.1374C66.3934 64.1884 65.7761 64.2122 65.1588 64.2326C64.5415 64.253 63.9277 64.2598 63.3138 64.2632C62.6999 64.2666 62.0792 64.2632 61.4654 64.2326C60.8515 64.202 60.2342 64.1884 59.6169 64.1374Z" fill="#C7C7C7"/>
<path d="M43.438 64.1374C44.6283 64.083 45.8253 64.0592 47.0121 64.0388C48.1989 64.0184 49.3994 64.0184 50.5862 64.0082C51.773 63.998 52.9735 64.0082 54.1603 64.0388C55.3471 64.0694 56.5476 64.083 57.7344 64.1374C56.5442 64.1884 55.3471 64.2122 54.1603 64.2327C52.9735 64.2531 51.773 64.2531 50.5862 64.2633C49.3994 64.2735 48.1989 64.2633 47.0121 64.2327C45.8253 64.202 44.6351 64.1884 43.438 64.1374Z" fill="#C7C7C7"/>
<path d="M33.548 64.1374C34.2301 64.083 34.9462 64.0591 35.6454 64.0387C36.3445 64.0183 37.0436 64.0115 37.7427 64.0081C38.4419 64.0047 39.141 64.0081 39.8435 64.0387C40.5461 64.0694 41.2418 64.083 41.9409 64.1374C41.2588 64.1884 40.5427 64.2122 39.8435 64.2326C39.1444 64.253 38.4419 64.2598 37.7427 64.2632C37.0436 64.2666 36.3445 64.2632 35.6454 64.2326C34.9462 64.202 34.2301 64.1884 33.548 64.1374Z" fill="#C7C7C7"/>
<path d="M26.3316 64.1374C26.7647 64.083 27.1978 64.0591 27.631 64.0387C28.0641 64.0183 28.4972 64.0115 28.9303 64.0081C29.3634 64.0047 29.7966 64.0081 30.2263 64.0387C30.656 64.0694 31.0925 64.083 31.5256 64.1374C31.0925 64.1884 30.6594 64.2122 30.2263 64.2326C29.7931 64.253 29.3634 64.2598 28.9303 64.2632C28.4972 64.2666 28.0641 64.2632 27.631 64.2326C27.1978 64.202 26.7647 64.1884 26.3316 64.1374Z" fill="#C7C7C7"/>
<path d="M96.9367 67.3883C97.7654 67.3373 98.5976 67.3135 99.4263 67.2931C100.255 67.2727 101.087 67.2727 101.919 67.2625C102.751 67.2523 103.58 67.2625 104.412 67.2931C105.244 67.3237 106.073 67.3373 106.902 67.3883C106.073 67.4427 105.241 67.4665 104.412 67.4869C103.584 67.5073 102.751 67.5073 101.919 67.5175C101.087 67.5277 100.258 67.5175 99.4263 67.4869C98.5942 67.4563 97.7654 67.4427 96.9367 67.3883Z" fill="#C7C7C7"/>
<path d="M87.183 67.3884C87.8003 67.3373 88.4176 67.3135 89.0349 67.2931C89.6522 67.2727 90.2694 67.2659 90.8867 67.2625C91.504 67.2591 92.1213 67.2625 92.7386 67.2931C93.3558 67.3237 93.9731 67.3373 94.5904 67.3884C93.9731 67.4428 93.3558 67.4666 92.7386 67.487C92.1213 67.5074 91.504 67.5142 90.8867 67.5176C90.2694 67.521 89.6522 67.5176 89.0349 67.487C88.4176 67.4564 87.8003 67.4428 87.183 67.3884Z" fill="#C7C7C7"/>
<path d="M77.9375 67.3884C78.5036 67.3373 79.0732 67.3135 79.6427 67.2931C80.2122 67.2727 80.7818 67.2659 81.3479 67.2625C81.914 67.2591 82.487 67.2625 83.0531 67.2931C83.6192 67.3237 84.1921 67.3373 84.7583 67.3884C84.1887 67.4428 83.6192 67.4666 83.0531 67.487C82.487 67.5074 81.914 67.5142 81.3479 67.5176C80.7818 67.521 80.2088 67.5176 79.6427 67.487C79.0766 67.4564 78.5036 67.4428 77.9375 67.3884Z" fill="#C7C7C7"/>
<path d="M66.4308 67.3883C67.2391 67.3373 68.0474 67.3135 68.8556 67.2931C69.6639 67.2727 70.4756 67.2727 71.2838 67.2625C72.0921 67.2523 72.9003 67.2625 73.7086 67.2931C74.5169 67.3237 75.3251 67.3373 76.1368 67.3883C75.3251 67.4427 74.5169 67.4665 73.7086 67.4869C72.9003 67.5073 72.0921 67.5073 71.2838 67.5175C70.4756 67.5277 69.6639 67.5175 68.8556 67.4869C68.0474 67.4563 67.2391 67.4427 66.4308 67.3883Z" fill="#C7C7C7"/>
<path d="M58.72 67.3884C59.2179 67.3373 59.7124 67.3135 60.2103 67.2931C60.7082 67.2727 61.2027 67.2659 61.7006 67.2625C62.1986 67.2591 62.6965 67.2625 63.191 67.2931C63.6855 67.3237 64.1868 67.3373 64.6813 67.3884C64.1868 67.4428 63.6889 67.4666 63.191 67.487C62.6931 67.5074 62.1986 67.5142 61.7006 67.5176C61.2027 67.521 60.7082 67.5176 60.2103 67.487C59.7124 67.4564 59.2179 67.4428 58.72 67.3884Z" fill="#C7C7C7"/>
<path d="M47.6294 67.3883C48.3763 67.3373 49.1197 67.3135 49.8632 67.2931C50.6067 67.2727 51.3535 67.2727 52.097 67.2625C52.8405 67.2523 53.5839 67.2625 54.3274 67.2931C55.0708 67.3237 55.8177 67.3373 56.5612 67.3883C55.8177 67.4427 55.0743 67.4665 54.3274 67.4869C53.5805 67.5073 52.8405 67.5073 52.097 67.5175C51.3535 67.5277 50.6067 67.5175 49.8632 67.4869C49.1197 67.4563 48.3763 67.4427 47.6294 67.3883Z" fill="#C7C7C7"/>
<path d="M38.6294 67.3884C39.2364 67.3373 39.8435 67.3135 40.4505 67.2931C41.0576 67.2727 41.6646 67.2659 42.2717 67.2625C42.8787 67.2591 43.4858 67.2625 44.0928 67.2931C44.6999 67.3237 45.3035 67.3373 45.9106 67.3884C45.3035 67.4428 44.6965 67.4666 44.0928 67.487C43.4892 67.5074 42.8787 67.5142 42.2717 67.5176C41.6646 67.521 41.0576 67.5176 40.4505 67.487C39.8435 67.4564 39.2364 67.4428 38.6294 67.3884Z" fill="#C7C7C7"/>
<path d="M26.3316 67.3883C27.1706 67.3373 28.0061 67.3135 28.8416 67.2931C29.6772 67.2727 30.5161 67.2727 31.3551 67.2625C32.1941 67.2523 33.0262 67.2625 33.8651 67.2931C34.7041 67.3237 35.5396 67.3373 36.3752 67.3883C35.5396 67.4427 34.7007 67.4665 33.8651 67.4869C33.0296 67.5073 32.1906 67.5073 31.3551 67.5175C30.5196 67.5277 29.6806 67.5175 28.8416 67.4869C28.0027 67.4563 27.1706 67.4427 26.3316 67.3883Z" fill="#C7C7C7"/>
<path d="M63.8765 18.4139H62.6351L62.3827 19.094C62.3614 19.1468 62.3246 19.1919 62.2772 19.2235C62.2297 19.255 62.1738 19.2716 62.1167 19.2709C62.0851 19.2761 62.0529 19.2761 62.0212 19.2709C61.9822 19.2577 61.9464 19.2363 61.9163 19.2082C61.8861 19.1801 61.8624 19.146 61.8466 19.108C61.8307 19.07 61.8232 19.0291 61.8245 18.988C61.8259 18.9469 61.8359 18.9065 61.8541 18.8696L62.9864 15.8635C63.0097 15.8113 63.0477 15.7668 63.0958 15.7356C63.144 15.7045 63.2001 15.6879 63.2575 15.6879C63.3149 15.6879 63.3711 15.7045 63.4192 15.7356C63.4673 15.7668 63.5053 15.8113 63.5286 15.8635L64.6575 18.8696C64.6822 18.9405 64.6787 19.0182 64.6476 19.0866C64.6164 19.1549 64.5602 19.2087 64.4904 19.2369C64.4576 19.2425 64.4242 19.2425 64.3915 19.2369C64.3352 19.2376 64.2802 19.221 64.2338 19.1894C64.1874 19.1577 64.1519 19.1125 64.1323 19.06L63.8765 18.4139ZM63.6685 17.8495L63.2524 16.7511L62.8397 17.8495H63.6685Z" fill="#C7C7C7"/>
<path d="M67.7234 18.8321C67.7422 18.9007 67.7343 18.9737 67.7015 19.0368C67.6686 19.0998 67.6131 19.1482 67.546 19.1722C67.5086 19.1758 67.4709 19.1758 67.4335 19.1722C67.3638 19.1726 67.2953 19.1537 67.2357 19.1178C67.1669 19.0723 67.1106 19.0103 67.072 18.9376C66.9887 18.7447 66.9514 18.5352 66.9629 18.3255C66.9641 18.2485 66.9428 18.1728 66.9015 18.1078C66.8628 18.0467 66.8102 17.9954 66.748 17.9582C66.66 17.9018 66.5632 17.8604 66.4615 17.8358H65.8579V18.9444C65.8575 18.9814 65.8497 19.018 65.835 19.0521C65.8204 19.0862 65.7992 19.117 65.7726 19.1429C65.746 19.1688 65.7145 19.1893 65.68 19.203C65.6455 19.2168 65.6086 19.2237 65.5714 19.2232C65.4973 19.2232 65.4261 19.1938 65.3737 19.1415C65.3212 19.0892 65.2918 19.0183 65.2918 18.9444V15.9655C65.2909 15.9285 65.2974 15.8916 65.3111 15.8572C65.3248 15.8228 65.3453 15.7914 65.3714 15.7651C65.3975 15.7387 65.4287 15.7179 65.4631 15.7038C65.4974 15.6898 65.5343 15.6828 65.5714 15.6832H66.4888C66.6332 15.6832 66.7761 15.7117 66.9093 15.767C67.0426 15.8223 67.1636 15.9033 67.2653 16.0054C67.3671 16.1074 67.4476 16.2286 67.5022 16.3618C67.5568 16.495 67.5844 16.6377 67.5835 16.7816C67.5833 16.9418 67.5474 17.1 67.4784 17.2446C67.4094 17.3893 67.309 17.5169 67.1845 17.6182C67.2529 17.6711 67.3127 17.7342 67.3619 17.8052C67.4732 17.9674 67.5327 18.1595 67.5324 18.3561C67.5265 18.4574 67.5334 18.5591 67.5529 18.6587C67.5931 18.672 67.6295 18.6947 67.6592 18.7248C67.6889 18.755 67.7109 18.7918 67.7234 18.8321ZM67.0072 16.7918C67.0076 16.7226 66.9944 16.654 66.9683 16.5899C66.9421 16.5257 66.9036 16.4674 66.8548 16.4181C66.806 16.3689 66.748 16.3297 66.684 16.3028C66.6201 16.2759 66.5514 16.2618 66.482 16.2613H65.8511V17.3121H66.482C66.5515 17.3121 66.6204 17.2983 66.6846 17.2716C66.7487 17.2449 66.8069 17.2057 66.8558 17.1563C66.9047 17.107 66.9432 17.0484 66.9692 16.9841C66.9952 16.9198 67.0081 16.851 67.0072 16.7816V16.7918Z" fill="#C7C7C7"/>
<path d="M70.6392 16.2511H69.8276V18.9716C69.8199 19.0406 69.787 19.1045 69.7351 19.1509C69.6832 19.1972 69.6159 19.2229 69.5462 19.2229C69.4765 19.2229 69.4093 19.1972 69.3574 19.1509C69.3054 19.1045 69.2725 19.0406 69.2649 18.9716V16.2511H68.4566C68.3812 16.2502 68.3092 16.2198 68.2562 16.1663C68.2033 16.1128 68.1735 16.0407 68.1735 15.9655C68.1731 15.9283 68.1801 15.8914 68.1942 15.8569C68.2082 15.8225 68.2291 15.7912 68.2554 15.7649C68.2818 15.7386 68.3132 15.7178 68.3477 15.7038C68.3823 15.6898 68.4193 15.6828 68.4566 15.6832H70.6392C70.6764 15.6832 70.7132 15.6905 70.7476 15.7047C70.7819 15.7189 70.8131 15.7397 70.8394 15.7659C70.8657 15.7921 70.8865 15.8232 70.9008 15.8575C70.915 15.8917 70.9223 15.9284 70.9223 15.9655C70.9214 16.0404 70.8915 16.112 70.8386 16.1653C70.7858 16.2186 70.7144 16.2494 70.6392 16.2511Z" fill="#C7C7C7"/>
<path d="M71.8022 15.9655C71.8013 15.9285 71.8079 15.8916 71.8216 15.8572C71.8352 15.8228 71.8557 15.7914 71.8819 15.7651C71.908 15.7387 71.9391 15.7179 71.9735 15.7038C72.0079 15.6898 72.0447 15.6828 72.0819 15.6832C72.1573 15.6832 72.2296 15.7129 72.2832 15.7657C72.3369 15.8185 72.3674 15.8903 72.3683 15.9655V18.975C72.3679 19.012 72.3601 19.0486 72.3455 19.0827C72.3309 19.1168 72.3096 19.1477 72.283 19.1735C72.2564 19.1994 72.225 19.2199 72.1904 19.2336C72.1559 19.2474 72.119 19.2543 72.0819 19.2538C72.045 19.2543 72.0084 19.2474 71.9743 19.2335C71.9402 19.2197 71.9092 19.1991 71.8831 19.1732C71.857 19.1472 71.8365 19.1162 71.8226 19.0822C71.8087 19.0482 71.8018 19.0117 71.8022 18.975V15.9655Z" fill="#C7C7C7"/>
<path d="M73.1664 17.4175C73.1771 16.9273 73.3796 16.4608 73.7308 16.1177C74.082 15.7745 74.5538 15.582 75.0455 15.5812C75.4723 15.5791 75.8876 15.7191 76.2255 15.9791C76.284 16.0281 76.3218 16.0974 76.3313 16.1731C76.3407 16.2488 76.3212 16.3252 76.2767 16.3871C76.2294 16.4479 76.1602 16.488 76.0838 16.4988C76.0074 16.5096 75.9298 16.4903 75.8674 16.4449C75.6352 16.2575 75.3442 16.1576 75.0455 16.1627C74.7032 16.1656 74.3746 16.2967 74.1247 16.5299C74.0065 16.6458 73.9125 16.784 73.8481 16.9363C73.7837 17.0886 73.7502 17.2522 73.7496 17.4175C73.7492 17.5829 73.7823 17.7468 73.8467 17.8992C73.9112 18.0517 74.0057 18.1897 74.1247 18.305C74.3746 18.5383 74.7032 18.6694 75.0455 18.6723C75.3437 18.678 75.6346 18.5794 75.8674 18.3934C75.9302 18.3501 76.0069 18.3317 76.0826 18.3418C76.1582 18.3518 76.2274 18.3897 76.2767 18.4478C76.322 18.5095 76.342 18.5861 76.3325 18.662C76.323 18.7379 76.2847 18.8073 76.2255 18.8559C75.8883 19.1172 75.4725 19.2574 75.0455 19.2538C74.553 19.2556 74.0797 19.0639 73.7279 18.7202C73.3762 18.3765 73.1745 17.9085 73.1664 17.4175Z" fill="#C7C7C7"/>
<path d="M77.269 18.9749V15.9655C77.269 15.8906 77.2989 15.8188 77.352 15.7659C77.405 15.713 77.477 15.6832 77.5521 15.6832C77.6275 15.6832 77.6998 15.7128 77.7535 15.7657C77.8071 15.8185 77.8377 15.8903 77.8386 15.9655V18.6859H79.2232C79.2604 18.6859 79.2972 18.6932 79.3315 18.7074C79.3659 18.7216 79.3971 18.7424 79.4233 18.7686C79.4496 18.7948 79.4705 18.8259 79.4847 18.8601C79.4989 18.8944 79.5063 18.9311 79.5063 18.9681C79.5063 19.0052 79.4989 19.0419 79.4847 19.0761C79.4705 19.1104 79.4496 19.1415 79.4233 19.1677C79.3971 19.1939 79.3659 19.2147 79.3315 19.2289C79.2972 19.2431 79.2604 19.2504 79.2232 19.2504H77.5419C77.4695 19.2486 77.4006 19.2189 77.3497 19.1676C77.2988 19.1162 77.2699 19.0471 77.269 18.9749Z" fill="#C7C7C7"/>
<path d="M80.1508 18.975V15.9655C80.1499 15.9285 80.1565 15.8916 80.1702 15.8572C80.1839 15.8228 80.2044 15.7914 80.2305 15.7651C80.2566 15.7387 80.2878 15.7179 80.3221 15.7038C80.3565 15.6898 80.3934 15.6828 80.4305 15.6832H82.105C82.1795 15.6841 82.2506 15.7143 82.3029 15.7671C82.3553 15.8199 82.3847 15.8912 82.3846 15.9655C82.3838 16.0398 82.3543 16.111 82.3022 16.1642C82.2501 16.2174 82.1795 16.2485 82.105 16.2511H80.717V17.1693H81.9106C81.9808 17.1769 82.0456 17.2102 82.0927 17.2626C82.1398 17.315 82.1659 17.3829 82.1659 17.4532C82.1659 17.5236 82.1398 17.5915 82.0927 17.6439C82.0456 17.6963 81.9808 17.7295 81.9106 17.7372H80.717V18.6757H82.105C82.1801 18.6757 82.2521 18.7055 82.3051 18.7584C82.3582 18.8113 82.3881 18.8831 82.3881 18.958C82.3881 19.0328 82.3582 19.1046 82.3051 19.1575C82.2521 19.2105 82.1801 19.2402 82.105 19.2402H80.4305C80.3586 19.2403 80.2895 19.2128 80.2374 19.1634C80.1854 19.114 80.1543 19.0465 80.1508 18.975Z" fill="#C7C7C7"/>
<path d="M86.8693 17.9685L90.7537 17.9038L94.6347 17.8698L102.4 17.8392L110.166 17.8698L114.05 17.9038L117.931 17.9685L114.05 18.0297L110.166 18.0671L102.4 18.0943L94.6347 18.0637L90.7537 18.0297L86.8693 17.9685Z" fill="#C7C7C7"/>
<path d="M26.2395 17.9685L30.1239 17.9038L34.0049 17.8698L41.7704 17.8392L49.5358 17.8698L53.4203 17.9038L57.3013 17.9685L53.4203 18.0297L49.5358 18.0671L41.7704 18.0943L34.0049 18.0637L30.1239 18.0297L26.2395 17.9685Z" fill="#C7C7C7"/>
<path d="M32.2588 22.6815H26.5771V28.3468H32.2588V22.6815Z" fill="#EBEBEB"/>
<path d="M127.62 5.39331H16.803V11.4973H127.62V5.39331Z" fill="#8956FA"/>
<path d="M86.8147 73.3019H58.72V81.2047H86.8147V73.3019Z" fill="#EBEBEB"/>
<path d="M86.1326 72.6217H58.0379V80.5245H86.1326V72.6217Z" fill="#8956FA"/>
<path d="M65.1622 76.801H64.6814V77.6409C64.6814 77.6977 64.6587 77.7522 64.6184 77.7924C64.5781 77.8326 64.5235 77.8551 64.4665 77.8551C64.4095 77.8551 64.3549 77.8326 64.3146 77.7924C64.2743 77.7522 64.2516 77.6977 64.2516 77.6409V75.3523C64.2516 75.3244 64.2572 75.2967 64.2681 75.2709C64.2789 75.2451 64.2948 75.2217 64.3148 75.202C64.3348 75.1824 64.3585 75.167 64.3845 75.1566C64.4106 75.1462 64.4385 75.1411 64.4665 75.1415H65.1486C65.3693 75.1415 65.5809 75.2289 65.737 75.3845C65.893 75.5401 65.9807 75.7512 65.9807 75.9712C65.9807 76.1913 65.893 76.4023 65.737 76.5579C65.5809 76.7135 65.3693 76.801 65.1486 76.801H65.1622ZM64.6814 76.3691H65.1622C65.2146 76.3695 65.2666 76.3597 65.3152 76.3401C65.3638 76.3205 65.408 76.2916 65.4454 76.255C65.4827 76.2183 65.5125 76.1747 65.533 76.1266C65.5534 76.0785 65.5642 76.0269 65.5646 75.9746C65.5651 75.9217 65.555 75.8691 65.535 75.82C65.515 75.771 65.4854 75.7263 65.448 75.6887C65.4106 75.6511 65.3661 75.6212 65.317 75.6008C65.268 75.5805 65.2154 75.57 65.1622 75.57H64.6814V76.3691Z" fill="white"/>
<path d="M67.6518 77.8551C67.504 77.8551 67.3577 77.8261 67.2211 77.7697C67.0846 77.7133 66.9605 77.6306 66.856 77.5264C66.7515 77.4222 66.6686 77.2985 66.612 77.1623C66.5555 77.0262 66.5264 76.8803 66.5264 76.7329V75.3523C66.5264 75.3243 66.5319 75.2966 66.5428 75.2708C66.5536 75.245 66.5695 75.2216 66.5895 75.202C66.6095 75.1824 66.6332 75.1669 66.6593 75.1565C66.6853 75.1461 66.7132 75.141 66.7412 75.1415C66.7694 75.141 66.7975 75.1461 66.8237 75.1565C66.8499 75.1668 66.8739 75.1822 66.8942 75.2018C66.9144 75.2214 66.9306 75.2447 66.9418 75.2706C66.953 75.2964 66.959 75.3242 66.9595 75.3523V76.7329C66.9595 76.916 67.0324 77.0916 67.1623 77.221C67.2921 77.3505 67.4682 77.4232 67.6518 77.4232C67.8354 77.4232 68.0115 77.3505 68.1413 77.221C68.2712 77.0916 68.3441 76.916 68.3441 76.7329V75.3523C68.3441 75.324 68.3498 75.296 68.3608 75.27C68.3719 75.244 68.3881 75.2204 68.4084 75.2008C68.4288 75.1811 68.4529 75.1657 68.4794 75.1555C68.5058 75.1453 68.534 75.1406 68.5624 75.1415C68.5903 75.141 68.618 75.1461 68.6438 75.1566C68.6697 75.167 68.6932 75.1825 68.7129 75.2022C68.7326 75.2219 68.7482 75.2453 68.7587 75.2711C68.7691 75.2969 68.7743 75.3245 68.7738 75.3523V76.7329C68.7738 77.0299 68.6557 77.3149 68.4454 77.5252C68.2351 77.7356 67.9497 77.8542 67.6518 77.8551Z" fill="white"/>
<path d="M69.698 77.6409V75.3523C69.698 75.2964 69.7203 75.2428 69.7599 75.2032C69.7996 75.1637 69.8534 75.1415 69.9094 75.1415H70.4619C70.5988 75.1418 70.7329 75.1799 70.8493 75.2517C70.9657 75.3234 71.0599 75.4259 71.1214 75.5479C71.1829 75.6698 71.2093 75.8063 71.1976 75.9423C71.1859 76.0782 71.1367 76.2083 71.0553 76.3181C71.1744 76.3935 71.2726 76.4974 71.3411 76.6203C71.4096 76.7433 71.4462 76.8813 71.4475 77.022C71.4475 77.2423 71.36 77.4537 71.204 77.6099C71.048 77.766 70.8364 77.8542 70.6154 77.8551H69.9094C69.8531 77.8542 69.7993 77.8312 69.7597 77.7912C69.7202 77.7511 69.698 77.6971 69.698 77.6409ZM70.1277 76.1922H70.4687C70.5514 76.1905 70.6299 76.1562 70.6874 76.097C70.7449 76.0378 70.7766 75.9584 70.7757 75.876C70.7757 75.7948 70.7433 75.717 70.6858 75.6596C70.6282 75.6022 70.5501 75.5699 70.4687 75.5699H70.1277V76.1922ZM70.1277 77.4232H70.6154C70.7221 77.4232 70.8245 77.381 70.8999 77.3057C70.9754 77.2305 71.0178 77.1284 71.0178 77.022C71.0178 76.9155 70.9754 76.8135 70.8999 76.7382C70.8245 76.663 70.7221 76.6207 70.6154 76.6207H70.1277V77.4232Z" fill="white"/>
<path d="M71.9898 77.6409V75.3523C71.9898 75.2964 72.0121 75.2428 72.0517 75.2033C72.0914 75.1637 72.1452 75.1415 72.2012 75.1415C72.2295 75.1411 72.2575 75.1462 72.2837 75.1565C72.31 75.1669 72.3339 75.1823 72.3542 75.2018C72.3744 75.2214 72.3907 75.2448 72.4019 75.2706C72.4131 75.2964 72.4191 75.3242 72.4195 75.3523V77.4233H73.4733C73.5261 77.4299 73.5746 77.4555 73.6098 77.4952C73.6449 77.535 73.6644 77.5862 73.6644 77.6392C73.6644 77.6922 73.6449 77.7434 73.6098 77.7832C73.5746 77.8229 73.5261 77.8485 73.4733 77.8551H72.2012C72.1449 77.8542 72.0911 77.8313 72.0515 77.7912C72.012 77.7511 71.9898 77.6971 71.9898 77.6409Z" fill="white"/>
<path d="M74.2236 75.3523C74.2231 75.3245 74.2283 75.2969 74.2388 75.2711C74.2492 75.2453 74.2648 75.2219 74.2845 75.2022C74.3042 75.1826 74.3277 75.1671 74.3536 75.1566C74.3795 75.1462 74.4072 75.141 74.4351 75.1415C74.4633 75.1411 74.4913 75.1462 74.5175 75.1565C74.5438 75.1669 74.5677 75.1823 74.588 75.2018C74.6083 75.2214 74.6245 75.2448 74.6357 75.2706C74.6469 75.2964 74.6529 75.3242 74.6533 75.3523V77.6409C74.6524 77.698 74.629 77.7525 74.5882 77.7926C74.5474 77.8327 74.4924 77.8551 74.4351 77.8551C74.407 77.8551 74.3792 77.8496 74.3533 77.8388C74.3275 77.828 74.304 77.8121 74.2843 77.7922C74.2646 77.7722 74.2491 77.7486 74.2387 77.7226C74.2283 77.6966 74.2231 77.6689 74.2236 77.6409V75.3523Z" fill="white"/>
<path d="M75.2945 77.1784C75.3289 77.1381 75.3777 77.1128 75.4305 77.1077C75.4833 77.1026 75.536 77.1182 75.5775 77.1512C75.7869 77.3276 76.0475 77.4325 76.321 77.4504C76.4934 77.454 76.6626 77.4041 76.8053 77.3076C76.8542 77.2787 76.8952 77.238 76.9244 77.1893C76.9535 77.1406 76.97 77.0854 76.9724 77.0287C76.9737 76.9844 76.9619 76.9406 76.9383 76.9029C76.9078 76.857 76.8683 76.8177 76.8223 76.7873C76.6573 76.6959 76.477 76.6348 76.2903 76.6071C76.1174 76.5771 75.949 76.5257 75.789 76.454C75.6409 76.3913 75.5151 76.2859 75.4275 76.1514C75.3674 76.0568 75.3354 75.9471 75.3354 75.8352C75.339 75.7225 75.3694 75.6124 75.4239 75.5137C75.4784 75.415 75.5556 75.3305 75.6491 75.2673C75.8494 75.1296 76.088 75.0582 76.3312 75.0632C76.6378 75.0797 76.9325 75.1875 77.177 75.3727C77.2204 75.4024 77.2504 75.4478 77.2606 75.4993C77.2708 75.5508 77.2604 75.6042 77.2316 75.6481C77.2174 75.6702 77.1989 75.6892 77.1773 75.7041C77.1557 75.719 77.1313 75.7294 77.1056 75.7348C77.0799 75.7402 77.0533 75.7404 77.0275 75.7355C77.0017 75.7305 76.9772 75.7205 76.9553 75.7059C76.7776 75.5616 76.5598 75.4749 76.3312 75.4577C76.1753 75.4547 76.0225 75.5011 75.8947 75.5903C75.8521 75.6162 75.8166 75.652 75.791 75.6947C75.7655 75.7373 75.7507 75.7855 75.748 75.8352C75.7453 75.8734 75.7549 75.9115 75.7753 75.944C75.8031 75.984 75.8391 76.0176 75.881 76.0426C76.0293 76.1318 76.194 76.1908 76.3653 76.216C76.5506 76.2479 76.7315 76.3016 76.9042 76.3758C77.0606 76.4465 77.195 76.5582 77.2929 76.6989C77.3553 76.8013 77.3872 76.9192 77.385 77.0389C77.3806 77.1592 77.3474 77.2766 77.288 77.3813C77.2287 77.486 77.145 77.575 77.044 77.6408C76.8336 77.7885 76.5817 77.8659 76.3244 77.8619C75.9594 77.8424 75.6103 77.7065 75.3286 77.4742C75.2848 77.4394 75.2566 77.3888 75.2502 77.3333C75.2438 77.2779 75.2597 77.2221 75.2945 77.1784Z" fill="white"/>
<path d="M77.9716 77.6409V75.3523C77.9716 75.3243 77.9772 75.2966 77.988 75.2708C77.9989 75.245 78.0148 75.2216 78.0348 75.202C78.0547 75.1824 78.0785 75.1669 78.1045 75.1565C78.1306 75.1461 78.1584 75.141 78.1865 75.1415C78.2147 75.141 78.2427 75.1461 78.269 75.1565C78.2952 75.1668 78.3191 75.1822 78.3394 75.2018C78.3597 75.2214 78.3759 75.2447 78.3871 75.2706C78.3983 75.2964 78.4043 75.3242 78.4047 75.3523V76.284H79.4278V75.3523C79.4274 75.3242 79.4326 75.2963 79.4433 75.2703C79.454 75.2442 79.4698 75.2207 79.4899 75.2009C79.51 75.1812 79.5339 75.1658 79.5602 75.1556C79.5865 75.1453 79.6145 75.1405 79.6427 75.1415C79.6709 75.141 79.6989 75.1461 79.7252 75.1565C79.7514 75.1668 79.7754 75.1822 79.7956 75.2018C79.8159 75.2214 79.8321 75.2447 79.8433 75.2706C79.8545 75.2964 79.8605 75.3242 79.861 75.3523V77.6409C79.8601 77.698 79.8367 77.7525 79.7958 77.7925C79.755 77.8326 79.7 77.8551 79.6427 77.8551C79.6144 77.8555 79.5862 77.8503 79.5599 77.8397C79.5337 77.8291 79.5098 77.8134 79.4898 77.7934C79.4697 77.7734 79.4539 77.7496 79.4433 77.7234C79.4326 77.6972 79.4274 77.6691 79.4278 77.6409V76.7091H78.4047V77.6409C78.4038 77.698 78.3804 77.7525 78.3396 77.7925C78.2988 77.8326 78.2438 77.8551 78.1865 77.8551C78.1583 77.8551 78.1303 77.8495 78.1042 77.8388C78.0782 77.828 78.0545 77.8122 78.0345 77.7923C78.0146 77.7724 77.9988 77.7488 77.988 77.7228C77.9772 77.6968 77.9716 77.669 77.9716 77.6409Z" fill="white"/>
<path d="M75.9015 84.714L77.3441 88.1893L75.9015 88.7844L74.4521 85.2853L72.0682 87.1284V77.3348L78.9436 84.2583L75.9015 84.714Z" fill="#263238"/>
<path d="M72.0853 76.267C71.9669 75.9489 71.9669 75.599 72.0853 75.2809C72.2036 75.599 72.2036 75.9489 72.0853 76.267Z" fill="#263238"/>
<path d="M71.2361 76.6173C70.933 76.473 70.6912 76.2259 70.554 75.9202C70.8535 76.0695 71.0937 76.3151 71.2361 76.6173Z" fill="#263238"/>
<path d="M70.8814 77.4641C70.5635 77.5818 70.2137 77.5818 69.8958 77.4641C70.2145 77.3507 70.5627 77.3507 70.8814 77.4641Z" fill="#263238"/>
<path d="M71.2361 78.3141C71.0937 78.6163 70.8535 78.8618 70.554 79.0112C70.6912 78.7055 70.933 78.4584 71.2361 78.3141Z" fill="#263238"/>
<path d="M73.2891 77.4641C73.6078 77.3507 73.956 77.3507 74.2747 77.4641C73.9568 77.5818 73.607 77.5818 73.2891 77.4641Z" fill="#263238"/>
<path d="M72.9344 76.6173C73.0768 76.3151 73.3171 76.0695 73.6165 75.9202C73.4793 76.2259 73.2376 76.473 72.9344 76.6173Z" fill="#263238"/>
<path d="M50.0064 73.3834C50.5868 73.0697 51.0652 72.5973 51.3854 72.0216C51.7056 71.446 51.8542 70.7911 51.8137 70.1341C51.7732 69.4771 51.5453 68.8453 51.1569 68.3131C50.7684 67.7808 50.2356 67.3703 49.6211 67.1298C50.7976 66.3409 51.5581 65.0181 51.1046 63.5423C50.6339 62.0154 49.13 61.2775 47.6089 61.502V61.5224C49.0174 61.468 50.4395 62.2025 50.8556 63.6069C51.1966 64.8175 50.7192 65.8172 49.9007 66.5654C50.1589 66.1089 50.3202 65.6045 50.3748 65.0833C50.4293 64.5621 50.3759 64.0352 50.2179 63.5355C50.0241 62.9857 49.6718 62.5053 49.2053 62.1544C48.7387 61.8035 48.1786 61.5979 47.5953 61.5632C47.6771 60.2302 47.2952 58.7781 46.2311 57.9008C45.7906 57.5297 45.2514 57.2945 44.6791 57.2239C44.1068 57.1532 43.5263 57.2502 43.0083 57.5029C42.9341 56.86 42.6725 56.2529 42.2557 55.7567C41.839 55.2606 41.2855 54.8972 40.6637 54.7115C40.042 54.5259 39.3793 54.5261 38.7576 54.7122C38.136 54.8983 37.5827 55.262 37.1663 55.7585C37.0656 55.304 36.8518 54.8821 36.5447 54.5315C36.2376 54.181 35.847 53.9132 35.4088 53.7526C34.9707 53.5921 34.499 53.544 34.0374 53.6129C33.5757 53.6817 33.1388 53.8653 32.7669 54.1466C32.6237 53.8185 32.3893 53.5381 32.0914 53.3387C31.7934 53.1392 31.4444 53.029 31.0856 53.021C30.2398 52.9802 29.493 53.4461 28.8859 54.0004C28.5797 53.7848 28.224 53.6494 27.8515 53.6066C27.4791 53.5638 27.1018 53.615 26.7544 53.7556C26.3134 53.9543 25.9573 54.3025 25.7493 54.7383C25.5414 55.1741 25.4952 55.6693 25.6188 56.1359C24.2887 56.289 22.8666 56.6392 21.9492 57.673C21.1955 58.5265 20.8647 59.7983 21.3899 60.8321C20.8378 60.9708 20.3215 61.2248 19.8751 61.5771C19.4286 61.9293 19.0622 62.372 18.7998 62.8759C18.5375 63.3797 18.3853 63.9333 18.3532 64.5001C18.3212 65.0669 18.41 65.634 18.6138 66.1641C18.1889 66.4206 17.8392 66.7841 17.5997 67.218C17.3603 67.652 17.2395 68.1411 17.2497 68.6363C17.2373 69.3182 17.3918 69.9928 17.6999 70.6018C17.339 70.8594 17.0682 71.2233 16.9256 71.6424C16.7831 72.0615 16.7759 72.5146 16.9052 72.9379C17.0408 73.3272 17.2613 73.6817 17.5509 73.9757C17.8405 74.2697 18.1919 74.496 18.5797 74.6382C18.7133 74.8435 18.7995 75.0758 18.8321 75.3183C18.9155 75.9177 19.1459 76.4872 19.5028 76.9766C19.8598 77.4659 20.3322 77.86 20.8783 78.1238C20.8265 78.4753 20.8503 78.8337 20.948 79.1754C21.0457 79.5171 21.2151 79.8341 21.445 80.1055C21.675 80.3769 21.9602 80.5965 22.2817 80.7496C22.6032 80.9028 22.9537 80.986 23.3099 80.9938C23.4276 81.7241 23.8288 82.379 24.4267 82.8167C25.0247 83.2545 25.7714 83.4401 26.5055 83.3334C26.6432 83.9065 26.9031 84.4433 27.2673 84.9074C27.6316 85.3715 28.0917 85.7521 28.6165 86.0232C29.435 86.4346 30.5263 86.5435 31.2357 85.9212C31.4676 86.6013 32.3372 86.8291 33.0125 86.6421C33.2676 86.5648 33.5135 86.4599 33.7457 86.3292C34.0195 86.1248 34.3263 85.9683 34.6529 85.8668C34.9939 85.8191 35.3043 86.03 35.6044 86.1218C35.8269 86.1866 36.0554 86.2287 36.2865 86.2476C37.1349 86.2965 37.9749 86.0567 38.6689 85.5674C39.3628 85.0781 39.8695 84.3684 40.1061 83.5544C41.2758 83.8944 42.4081 83.1973 43.155 82.3098C43.3916 82.0173 43.6016 81.7044 43.7825 81.3747C43.9273 81.0674 44.1661 80.8138 44.4646 80.6503C44.6624 80.5517 44.884 80.4973 45.0818 80.3987C45.7639 80.0587 46.0538 79.4057 46.2755 78.7256C49.4233 79.518 51.3638 76.0392 50.0064 73.3834ZM17.3111 73.2236C17.1113 72.8072 17.046 72.3392 17.1242 71.8843C17.2024 71.4293 17.4202 71.0097 17.7476 70.6834L17.809 70.782C17.809 70.782 17.6658 71.0507 17.6078 71.1901C17.5083 71.4473 17.4474 71.7177 17.427 71.9926C17.3811 72.5659 17.5069 73.1399 17.7885 73.6419C17.9173 73.8621 18.0731 74.0654 18.2523 74.2472L18.3137 74.3152C17.8834 74.0524 17.5359 73.6741 17.3111 73.2236ZM27.3649 54.1806C26.94 54.3015 26.5629 54.5503 26.2852 54.893C26.0074 55.2357 25.8426 55.6555 25.8132 56.0951H25.7416C25.6597 55.177 25.8405 54.32 26.8261 53.9086C27.1311 53.785 27.4634 53.7435 27.7896 53.7883C28.1158 53.833 28.4245 53.9625 28.6847 54.1636C28.251 54.0488 27.7935 54.0582 27.3649 54.1908V54.1806ZM46.3027 78.5828C46.3027 78.5828 46.3027 78.5624 46.3027 78.5488C47.3135 78.5321 48.2779 78.1231 48.9911 77.4088C49.7043 76.6945 50.1101 75.7311 50.1224 74.7232C50.2588 76.954 49.0754 78.9569 46.3027 78.5828Z" fill="#263238"/>
<path d="M34.4892 95.3815C37.4562 107.963 43.537 123.004 46.1118 125.439C49.3653 128.516 70.878 132.423 71.9489 132.532C74.5953 132.784 79.7484 115.414 76.928 115.023C72.6344 114.428 57.025 113.663 56.0838 112.711C55.1425 111.758 48.4786 103.471 41.6578 94.1505C36.9583 87.7031 32.6476 87.5773 34.4892 95.3815Z" fill="#AD6359"/>
<path d="M70.4892 131.665C70.7723 131.808 74.8238 133.811 77.327 134.521C79.1925 135.049 84.6082 136.426 85.396 134.436C85.9348 133.076 82.845 131.893 80.6795 131.009C79.5404 130.539 78.1319 129.359 78.4627 128.628C79.0425 127.35 81.9788 128.628 83.9193 129.723C87.6537 131.862 92.6397 135.718 94.9042 133.821C95.7602 133.107 94.7541 131.815 93.2842 130.55C95.6715 132.019 98.202 133.222 99.1808 132.461C99.7469 132.029 99.7708 131.441 99.4502 130.76C100.183 130.992 100.814 130.944 101.278 130.465C102.045 129.655 101.664 128.472 100.814 127.258C100.957 127.24 101.093 127.189 101.211 127.108C101.33 127.028 101.427 126.921 101.496 126.795C103.116 124.306 94.9076 117.226 92.0804 116.573C83.759 114.649 75.0012 115.064 75.0012 115.064C71.7442 117.692 70.4824 131.658 70.4892 131.665Z" fill="#AD6359"/>
<path d="M82.6575 123.97C84.6379 124.267 86.5319 124.982 88.213 126.068C90.3274 127.428 91.7359 129.06 93.5127 130.686C93.5222 130.694 93.5279 130.706 93.5286 130.719C93.5292 130.732 93.5247 130.744 93.5161 130.754C93.5075 130.763 93.4955 130.769 93.4827 130.77C93.4699 130.77 93.4574 130.766 93.4479 130.757C92.6022 129.985 89.0929 127.081 88.1891 126.425C86.5544 125.208 84.6623 124.38 82.6575 124.004C82.6575 124 82.6575 123.966 82.6575 123.97Z" fill="#263238"/>
<path d="M84.1989 120.443C86.385 121.028 88.6324 121.62 90.6787 122.637C92.9022 123.752 94.6484 125.582 96.3672 127.343C97.3971 128.402 98.4043 129.481 99.3888 130.58C99.4297 130.625 99.3683 130.699 99.324 130.655C97.5802 128.842 95.784 127.077 93.9356 125.361C92.2297 123.762 90.2234 122.516 88.0322 121.695C86.7772 121.226 85.4915 120.855 84.2092 120.484C84.1683 120.477 84.1751 120.437 84.1989 120.443Z" fill="#263238"/>
<path d="M86.5146 117.356C88.6393 117.781 90.4945 118.141 92.3805 119.267C94.8769 120.753 97.2914 123.269 98.1406 124.163C99.0751 125.15 99.9788 126.163 100.869 127.193C100.906 127.238 100.831 127.299 100.794 127.258C98.7632 124.997 96.5886 122.868 94.2835 120.885C93.1991 119.927 91.9728 119.141 90.648 118.556C89.307 118.04 87.9242 117.64 86.5146 117.359C86.5146 117.359 86.5078 117.356 86.5146 117.356Z" fill="#263238"/>
<path d="M73.2925 114.009L66.8128 134.865C66.8128 134.865 48.939 129.88 45.6684 126.391C42.3979 122.902 36.2762 104.825 34.4449 96.0615C32.6135 87.2983 37.0777 87.4888 41.2008 93.001C45.324 98.5133 55.5756 111.867 56.1451 112.156C56.7147 112.445 73.2925 114.009 73.2925 114.009Z" fill="#8956FA"/>
<path d="M64.7325 125.377C65.4657 123.048 66.2194 120.726 66.8674 118.369C67.2357 117.029 67.6108 115.693 67.9655 114.35C67.9655 114.299 67.8939 114.268 67.8768 114.319C67.0447 116.624 66.2194 118.94 65.4896 121.287C64.7598 123.633 64.0299 125.949 63.3376 128.292C62.9488 129.625 62.5976 130.965 62.2872 132.321C62.2872 132.349 62.3247 132.366 62.335 132.338C63.249 130.067 63.9958 127.724 64.7325 125.377Z" fill="#263238"/>
<path opacity="0.1" d="M57.7958 132.049L57.0045 131.777C55.5142 131.257 53.9966 130.696 52.571 130.125L52.0254 129.904L51.1762 129.564C51.033 129.506 50.8966 129.441 50.7567 129.383L50.6101 129.319L50.1804 129.125C49.6108 128.866 49.072 128.611 48.5707 128.35L48.2296 128.169C47.4454 127.77 46.7048 127.29 46.0197 126.738L45.839 126.571C45.7776 126.517 45.723 126.459 45.6718 126.408C42.3911 122.919 36.2762 104.842 34.4585 96.0752L34.3971 95.7725V95.7079C34.2743 95.0278 34.1652 94.2151 34.0731 93.3275C33.8037 88.9613 35.8738 88.2267 38.4452 90.1412C44.9045 103.747 54.8049 126.268 57.7958 132.049Z" fill="black"/>
<path d="M1.92346 138.83H45.3138L36.6616 88.6484H4.21524L1.92346 138.83Z" fill="#DBDBDB"/>
<path d="M1.92346 138.83H5.72945L7.86435 88.6484H4.21524L1.92346 138.83Z" fill="#A6A6A6"/>
<path d="M50.2383 138.827H5.50094C5.30314 137.939 12.3422 98.8534 27.4263 87.8527C30.7753 85.4111 36.7128 86.9788 38.3634 89.3523C46.6677 101.281 50.2383 138.827 50.2383 138.827Z" fill="#EBEBEB"/>
<path d="M26.4373 88.1451C26.4373 88.1451 30.3865 105.444 30.7923 106.936C31.1982 108.429 32.6612 138.827 32.6612 138.827H5.09509C5.09509 138.827 11.2986 100.061 26.4373 88.1451Z" fill="#8956FA"/>
<path d="M38.3634 89.3523C38.3634 89.3523 40.0925 102.614 40.2971 103.383C40.5017 104.151 46.1664 138.827 46.1664 138.827H50.46C50.46 138.827 46.7052 98.748 38.3634 89.3523Z" fill="#8956FA"/>
<path d="M35.127 96.4798C32.4362 96.6771 28.6199 92.0183 27.3786 88.5362C27.2933 88.2947 29.6192 79.6608 29.8988 77.9027C29.9568 77.5423 40.5324 82.3472 40.5324 82.3472C40.5324 82.3472 38.8511 85.86 38.3771 88.9204C38.3429 89.1857 37.7291 96.2894 35.127 96.4798Z" fill="#AD6359"/>
<path d="M40.5324 82.3506C40.5324 82.3506 38.8511 85.86 38.3804 88.9204C38.3804 88.951 38.3804 89.0905 38.3361 89.3081C36.4468 88.951 31.3585 87.3562 29.3873 80.2083C29.6362 79.1881 29.8306 78.3278 29.8988 77.8959C29.9568 77.5423 40.5324 82.3506 40.5324 82.3506Z" fill="#263238"/>
<path d="M31.0891 64.4604C29.0769 68.0819 28.7359 79.7083 30.9663 82.7892C34.1993 87.2575 40.6825 88.9986 44.792 84.8499C48.7719 80.8339 48.9493 65.6744 46.3471 62.7465C42.5139 58.4448 34.0663 59.1113 31.0891 64.4604Z" fill="#AD6359"/>
<path d="M40.6041 74.1655C40.6041 74.1383 40.5393 74.2029 40.5393 74.2335C40.5393 75.0156 40.379 75.9133 39.656 76.1378C39.6321 76.1378 39.6321 76.1854 39.656 76.182C40.5324 76.1038 40.7098 74.9102 40.6041 74.1655Z" fill="#263238"/>
<path d="M39.9424 73.3153C38.684 73.1589 38.4623 75.6787 39.6287 75.8249C40.795 75.9712 40.9962 73.448 39.9424 73.3153Z" fill="#263238"/>
<path d="M45.0512 74.6383C45.0512 74.6111 45.1091 74.6825 45.1023 74.7131C45.0102 75.4918 45.0341 76.4133 45.7196 76.7194C45.7401 76.7194 45.7366 76.7704 45.7196 76.7636C44.8568 76.5494 44.8363 75.3456 45.0512 74.6383Z" fill="#263238"/>
<path d="M45.8253 73.8697C47.0906 73.8697 46.9678 76.4099 45.7946 76.3963C44.6214 76.3827 44.7579 73.8561 45.8253 73.8697Z" fill="#263238"/>
<path d="M39.1 72.5979C39.4448 72.6472 39.7921 72.6778 40.1402 72.6897C40.5005 72.7722 40.8781 72.734 41.2145 72.5809C41.3106 72.5127 41.3815 72.4146 41.416 72.3021C41.4506 72.1896 41.4468 72.0688 41.4054 71.9586C41.1974 71.4927 40.7234 71.3363 40.2391 71.2785C39.7625 71.2086 39.2768 71.3163 38.8749 71.5811C38.7866 71.6469 38.7192 71.7367 38.6808 71.8397C38.6424 71.9427 38.6346 72.0546 38.6584 72.1619C38.6821 72.2693 38.7364 72.3675 38.8148 72.4448C38.8931 72.5221 38.9922 72.5753 39.1 72.5979Z" fill="#263238"/>
<path d="M46.9098 72.6863C46.5688 72.5978 46.2619 72.4584 45.9276 72.3462C45.5653 72.2709 45.2381 72.0784 44.9966 71.7987C44.9367 71.6969 44.9126 71.5781 44.928 71.4611C44.9435 71.344 44.9976 71.2355 45.0819 71.1526C45.4638 70.8126 45.9652 70.8738 46.4221 71.02C46.8903 71.1519 47.2919 71.454 47.5476 71.8667C47.5979 71.9636 47.6194 72.0728 47.6095 72.1815C47.5996 72.2901 47.5587 72.3937 47.4916 72.4799C47.4245 72.5661 47.3341 72.6313 47.231 72.6679C47.1279 72.7045 47.0164 72.7108 46.9098 72.6863Z" fill="#263238"/>
<path d="M38.9159 81.2318C39.0864 81.429 39.2569 81.6977 39.5331 81.7453C39.8251 81.7656 40.118 81.7239 40.3926 81.6229C40.3984 81.62 40.4051 81.6194 40.4114 81.621C40.4177 81.6227 40.4232 81.6265 40.4269 81.6319C40.4306 81.6372 40.4323 81.6437 40.4316 81.6501C40.4309 81.6566 40.428 81.6626 40.4232 81.6671C40.299 81.8101 40.1385 81.9171 39.9584 81.977C39.7784 82.0368 39.5856 82.0472 39.4001 82.0071C39.2438 81.952 39.1075 81.8517 39.0085 81.7191C38.9095 81.5865 38.8523 81.4275 38.8442 81.2624C38.8306 81.2114 38.892 81.2012 38.9159 81.2318Z" fill="#263238"/>
<path d="M39.9424 78.9671C40.1141 79.2929 40.3514 79.5798 40.6396 79.8098C40.9278 80.0398 41.2605 80.2079 41.6169 80.3035C41.9273 80.3924 42.2489 80.4359 42.5718 80.4327C42.6342 80.4396 42.6971 80.4396 42.7594 80.4327H42.9333C42.9753 80.4282 43.0147 80.4101 43.0454 80.3813C43.0762 80.3524 43.0967 80.3144 43.1039 80.2729C43.1071 80.2458 43.1071 80.2184 43.1039 80.1913V80.1199C43.1721 79.5214 43.1925 78.6032 43.1925 78.6032C43.404 78.7325 44.4816 79.3344 44.4919 79.0181C44.5669 76.4065 44.6488 73.5025 44.1508 70.8874C44.1472 70.8707 44.138 70.8558 44.1246 70.8451C44.1113 70.8343 44.0947 70.8285 44.0775 70.8285C44.0604 70.8285 44.0438 70.8343 44.0304 70.8451C44.0171 70.8558 44.0078 70.8707 44.0042 70.8874C43.8337 73.3936 44.1099 75.9168 43.9769 78.4366C43.5944 78.2159 43.1821 78.051 42.7526 77.9469C42.6673 77.9639 42.7526 79.722 42.6912 79.9873C42.6932 79.9962 42.6932 80.0055 42.6912 80.0145C41.6681 80.0553 40.9314 79.6744 40.0106 78.9195C39.9697 78.8515 39.9015 78.8991 39.9424 78.9671Z" fill="#263238"/>
<path d="M48.5537 67.5515C48.3661 66.5993 47.9466 66.3409 47.9466 66.3409C47.9466 66.3409 48.1274 65.2731 47.3225 63.7565C46.4836 62.1684 45.3547 61.808 45.3547 61.808C45.3547 61.808 44.5465 60.6314 42.3911 59.9139C41.8932 59.7506 40.3449 59.499 39.8469 59.6078C39.2638 59.737 38.7249 59.3766 38.1418 59.2678C37.6115 59.1809 37.0693 59.1982 36.5457 59.3188C36.1067 59.4182 35.6865 59.5869 35.3009 59.8187C35.0782 59.9609 34.8652 60.1177 34.6632 60.2879C34.3562 60.5251 33.9836 60.6628 33.5957 60.6824C33.1428 60.7398 32.7067 60.8903 32.3152 61.1244C31.9236 61.3586 31.5851 61.6712 31.321 62.0426C30.9996 62.4984 30.7809 63.0181 30.6798 63.566C30.5434 64.2461 29.7318 64.4502 29.3532 64.9943C29.0626 65.4195 28.9123 65.9246 28.9233 66.4391C28.9343 66.9536 29.1061 67.4518 29.4146 67.8643C28.8855 68.1559 28.4695 68.6156 28.2328 69.1702C27.9961 69.7248 27.9523 70.3425 28.1084 70.9248C28.3574 71.8531 29.1315 72.3598 29.9125 72.6965C30.0591 72.7598 30.2124 72.8065 30.3695 72.8359C32.0235 73.3528 33.9777 71.8429 33.6673 69.8536C34.6279 69.7199 35.5248 69.2976 36.2388 68.643C37.0095 67.9629 37.3915 66.9224 37.5688 65.8852C38.0415 66.2543 38.5961 66.5048 39.186 66.6158C39.776 66.7268 40.384 66.695 40.9591 66.5231C41.5341 66.3512 42.0594 66.0442 42.4908 65.6278C42.9222 65.2115 43.247 64.698 43.4381 64.1305C43.9428 64.848 45.515 66.1708 46.354 66.045C46.3301 68.4084 47.8034 69.5068 48.2331 69.5578C48.3252 69.5884 48.7822 68.6464 48.5537 67.5515ZM32.1838 72.4482C32.7534 72.0401 33.2376 71.4111 33.6435 69.9896C33.6719 70.4954 33.5503 70.9984 33.2937 71.4357C33.0371 71.8729 32.657 72.2251 32.2009 72.4482H32.1838ZM40.0277 66.3851C40.6971 66.2972 41.3361 66.0523 41.8922 65.6704C42.4483 65.2885 42.9056 64.7806 43.2266 64.1883C42.9863 64.8323 42.5544 65.3877 41.9888 65.7803C41.4233 66.1729 40.7509 66.3839 40.0618 66.3851H40.0277Z" fill="#263238"/>
<path d="M31.6722 73.8765C31.6722 73.8765 29.8272 69.7551 27.9992 70.3434C26.1713 70.9317 27.0716 76.5663 28.8723 77.6579C29.0939 77.8139 29.3449 77.9236 29.6101 77.9805C29.8753 78.0373 30.1493 78.0401 30.4156 77.9886C30.682 77.9372 30.9351 77.8325 31.1598 77.681C31.3846 77.5295 31.5762 77.3343 31.7234 77.107L31.6722 73.8765Z" fill="#AD6359"/>
<path d="M28.2959 71.9518C28.2652 71.9518 28.2516 71.9858 28.2755 72.0028C29.5305 72.8121 30.0045 74.2063 30.2569 75.6074C29.9466 75.0293 29.4486 74.6484 28.6813 74.9987C28.6404 75.0191 28.6813 75.0803 28.7052 75.0803C28.9593 75.05 29.2165 75.0991 29.4413 75.221C29.6662 75.3428 29.8475 75.5313 29.9602 75.7604C30.1459 76.1445 30.291 76.5468 30.3933 76.9608C30.4308 77.0934 30.6661 77.073 30.6457 76.9234C30.6457 76.9234 30.6457 76.8995 30.6457 76.8893C31.0072 75.1619 30.1375 72.4823 28.2959 71.9518Z" fill="#263238"/>
<path d="M38.3225 89.3183L35.4953 94.9938L27.9037 86.1218L25.8746 89.1619C25.8746 89.1619 32.7704 101.995 32.8454 101.438L35.6828 96.235L39.1955 100.142L39.3831 90.8078L38.3225 89.3183Z" fill="#EBEBEB"/>
<path d="M39.5502 95.531C39.5263 93.9872 39.5502 92.4331 39.4581 90.8927C39.4581 90.8383 39.3694 90.8111 39.3524 90.8757C38.967 92.3413 39.0796 98.2378 39.0114 99.6456V99.6286C38.8647 99.462 35.7579 96.1873 35.7237 96.2281C35.1235 97.0442 33.0432 100.832 32.8965 101.179C31.8086 99.1389 27.15 91.0865 25.837 89.1448C25.8294 89.1339 25.818 89.1262 25.805 89.1232C25.792 89.1201 25.7784 89.1219 25.7667 89.1281C25.7549 89.1344 25.7459 89.1448 25.7412 89.1572C25.7366 89.1697 25.7367 89.1834 25.7416 89.1958C26.6862 91.3347 32.6919 101.958 32.784 101.934C33.8701 100.153 34.8616 98.3167 35.7544 96.4321C36.2728 97.1394 39.3899 100.815 39.4104 100.588C39.5453 98.9056 39.592 97.2178 39.5502 95.531Z" fill="#263238"/>
<path d="M70.4073 138.997H45.723C43.6188 138.997 46.6642 133.018 54.3512 130.723C62.0383 128.428 72.8321 136.756 70.4073 138.997Z" fill="#37474F"/>
<path d="M60.7219 138.997C60.7437 138.317 60.8584 137.643 61.0629 136.994C61.2637 136.338 61.5431 135.709 61.895 135.12C62.2516 134.527 62.6979 133.992 63.2183 133.535C63.7183 133.076 64.2955 132.707 64.9235 132.447C64.787 132.549 64.6472 132.644 64.5108 132.74L64.3028 132.882L64.1118 133.046L63.7298 133.365L63.3888 133.705C62.9289 134.181 62.5261 134.708 62.1883 135.276C61.8485 135.845 61.5565 136.441 61.3153 137.058C61.0715 137.689 60.8732 138.337 60.7219 138.997Z" fill="#263238"/>
<path d="M63.6446 133.307C64.375 133.542 65.0855 133.834 65.7693 134.181C66.4607 134.521 67.1243 134.915 67.7541 135.358C68.3878 135.799 68.9611 136.32 69.4593 136.909C69.7084 137.209 69.9234 137.537 70.1004 137.885C70.2716 138.232 70.3714 138.61 70.3937 138.997C70.3048 138.635 70.1561 138.29 69.9538 137.976C69.7576 137.66 69.529 137.365 69.2717 137.096C68.7439 136.561 68.1674 136.076 67.5495 135.647C66.939 135.208 66.2911 134.814 65.6397 134.423C65.2986 134.229 64.9815 134.045 64.6472 133.865C64.313 133.685 63.9822 133.488 63.6446 133.307Z" fill="#263238"/>
<path d="M21.1478 93.1608C13.0856 104.485 1.40507 124.755 6.78665 128.366C15.6537 134.3 39.9867 135.892 45.5525 136.028C47.9397 136.089 51.2274 120.164 49.4505 118.315C47.6737 116.465 22.1879 117.458 21.864 115.934C21.6764 115.064 24.7935 107.042 26.3725 97.4149C28.1936 86.302 23.4225 89.9711 21.1478 93.1608Z" fill="#AD6359"/>
<path d="M45.1774 117.43C45.1774 117.43 52.4449 116.682 57.2228 116.41C59.8898 116.261 64.4801 116.41 66.4889 117.199C69.49 118.372 81.3001 125.19 79.7041 128.081C78.2581 130.696 68.8591 123.555 68.8591 123.555C68.8591 123.555 78.9845 129.924 76.662 132.757C74.3396 135.589 64.7973 126.112 64.7973 126.112C64.7973 126.112 75.0523 132.889 72.1978 135.433C70.0391 137.354 60.9095 129.254 60.9095 129.254C60.9095 129.254 69.698 135.147 67.5461 137.208C65.1895 139.497 56.2918 132.546 56.2918 132.546C49.9758 136.902 45.1842 136.399 41.8147 135.637C40.9997 135.467 45.1774 117.43 45.1774 117.43Z" fill="#AD6359"/>
<path d="M65.4998 121.134C66.7173 121.841 67.9519 122.545 69.1012 123.358C70.2505 124.17 71.3725 125.02 72.44 125.932C75.0626 128.173 76.3517 129.985 76.2596 129.883C74.0872 127.442 70.0186 124.473 68.8659 123.664C67.7132 122.854 66.615 121.987 65.4555 121.178C65.4385 121.157 65.4691 121.117 65.4998 121.134Z" fill="#263238"/>
<path d="M62.4885 125.218C64.0027 126.187 65.5408 127.091 67.0141 128.128C68.4873 129.166 70.4824 130.669 71.8704 131.798C71.9762 131.883 71.8977 132.073 71.7852 131.991C70.3528 130.92 68.2384 129.472 66.7924 128.418C65.3464 127.363 63.9413 126.251 62.4612 125.252C62.4373 125.238 62.4646 125.204 62.4885 125.218Z" fill="#263238"/>
<path d="M59.2724 128.261C61.6597 129.621 63.7946 131.42 65.8477 133.236C65.95 133.328 65.8477 133.352 65.7317 133.267C63.5764 131.566 61.895 130.227 59.2213 128.343C59.1804 128.315 59.2213 128.234 59.2724 128.261Z" fill="#263238"/>
<path d="M71.3145 119.733C72.7742 120.555 74.1902 121.451 75.5571 122.419C76.2391 122.909 76.9042 123.419 77.5419 123.966C78.1926 124.506 78.7868 125.11 79.3153 125.769C79.5876 126.108 79.802 126.489 79.9496 126.898C80.0252 127.116 80.0554 127.347 80.0383 127.578C80.0197 127.813 79.9346 128.038 79.7928 128.227C79.6587 128.418 79.4825 128.575 79.2778 128.686C79.0672 128.796 78.8332 128.853 78.5957 128.853C78.1572 128.839 77.7245 128.749 77.3168 128.588C76.5325 128.278 75.7652 127.927 75.0182 127.537C74.2679 127.166 73.5279 126.779 72.7742 126.418L72.9447 126.139C73.9053 126.887 74.7946 127.721 75.6014 128.632C76.0075 129.09 76.3673 129.586 76.6757 130.114C77.0124 130.65 77.1799 131.275 77.1565 131.907C77.1218 132.23 76.9937 132.535 76.7879 132.787C76.582 133.039 76.3073 133.226 75.997 133.325C75.3813 133.453 74.7406 133.385 74.1656 133.131C73.051 132.651 71.9931 132.05 71.011 131.339L71.0554 131.291C71.4084 131.676 71.7247 132.092 72 132.536C71.7063 132.106 71.3741 131.705 71.0076 131.335L70.8337 131.152L71.0485 131.288C72.0444 131.957 73.1087 132.519 74.2236 132.964C74.7617 133.193 75.358 133.247 75.9288 133.121C76.1942 133.031 76.4277 132.866 76.6008 132.646C76.774 132.426 76.8794 132.161 76.9042 131.883C76.9075 131.306 76.7402 130.74 76.4233 130.257C76.1193 129.748 75.7664 129.27 75.3695 128.829C74.5707 127.941 73.6916 127.128 72.7435 126.401L71.5464 125.469L72.9106 126.122C73.6677 126.487 74.418 126.859 75.1615 127.238C75.8946 127.628 76.6483 127.979 77.4191 128.288C77.7886 128.441 78.1824 128.528 78.5821 128.543C78.7685 128.545 78.9524 128.501 79.1178 128.416C79.2832 128.33 79.425 128.205 79.5307 128.052C79.6365 127.899 79.7029 127.722 79.7242 127.538C79.7455 127.353 79.721 127.166 79.6529 126.993C79.5185 126.614 79.3252 126.258 79.08 125.939C78.5738 125.283 78.0025 124.681 77.3748 124.14C76.7541 123.585 76.0993 123.069 75.4343 122.565C74.1315 121.566 72.7333 120.62 71.3145 119.733Z" fill="#263238"/>
<path d="M45.1876 116.482L38.3668 137.028C38.3668 137.028 7.26072 133.08 4.94507 127.476C2.62942 121.872 11.9193 104.896 19.6097 94.4599C27.1774 84.1971 27.8185 91.1341 26.41 98.6561C25.0015 106.178 22.3551 114.934 22.8018 115.526C23.2486 116.118 45.1876 116.482 45.1876 116.482Z" fill="#8956FA"/>
<path d="M34.5711 134.103C34.8132 133.515 35.0451 132.923 35.277 132.332C35.7317 131.128 36.1933 129.924 36.6616 128.72C37.5722 126.34 38.4146 123.908 39.2297 121.48C39.6901 120.103 40.205 118.733 40.5938 117.335C40.5988 117.321 40.598 117.306 40.5916 117.293C40.5852 117.279 40.5737 117.269 40.5597 117.264C40.5457 117.259 40.5303 117.26 40.5168 117.266C40.5034 117.272 40.4931 117.284 40.4881 117.298C39.9595 118.471 39.5195 119.678 39.0455 120.885C38.5714 122.093 38.0804 123.266 37.6234 124.483C36.7196 126.881 35.8568 129.288 35.0178 131.709C34.7859 132.389 34.5233 133.069 34.3358 133.75C34.23 134.09 34.097 134.45 33.9947 134.804C33.8924 135.157 33.8208 135.521 33.7117 135.875C33.7089 135.883 33.7094 135.891 33.7129 135.898C33.7164 135.906 33.7227 135.911 33.7304 135.914C33.7381 135.917 33.7466 135.916 33.7539 135.913C33.7613 135.909 33.7669 135.903 33.7696 135.895C34.0152 135.293 34.3119 134.709 34.5711 134.103Z" fill="#263238"/>
<path d="M38.9022 135.616L38.4214 137.051V137.096H38.3702C35.4339 136.827 32.5112 136.456 29.5987 136.011C26.6862 135.565 23.784 135.028 20.9022 134.392C18.0174 133.776 15.1706 132.993 12.3763 132.049C10.9726 131.574 9.60488 130.999 8.28382 130.329C7.62438 129.988 6.99467 129.594 6.40129 129.149C5.78927 128.722 5.2954 128.147 4.96552 127.479C5.3517 128.1 5.87699 128.624 6.50019 129.009C7.11444 129.4 7.75874 129.741 8.42705 130.029C9.7655 130.618 11.1391 131.123 12.54 131.543C15.3399 132.403 18.1944 133.093 21.0659 133.719C23.9375 134.345 26.8193 134.909 29.7078 135.436C32.5964 135.963 35.5055 136.477 38.4009 136.956L38.3361 136.997L38.9022 135.616Z" fill="#263238"/>
<path d="M44.9216 117.281L45.1433 116.465L45.1774 116.516C42.108 116.594 39.0387 116.631 35.9693 116.601C32.9 116.57 29.8307 116.509 26.7613 116.346C25.9906 116.298 25.2198 116.247 24.4491 116.172C24.0603 116.135 23.6783 116.094 23.2793 116.023C23.1747 116.006 23.0711 115.983 22.969 115.955C22.9086 115.94 22.8493 115.92 22.7916 115.897C22.7483 115.877 22.7061 115.854 22.6654 115.829C22.6244 115.802 22.5895 115.768 22.5631 115.727C22.544 115.703 22.528 115.676 22.5154 115.649C22.5134 115.635 22.5134 115.621 22.5154 115.608C22.4847 115.474 22.4778 115.336 22.4949 115.2C22.4949 115.101 22.4949 114.992 22.529 114.897C22.7678 113.35 23.1224 111.867 23.4805 110.371C24.1967 107.389 25.0016 104.427 25.8678 101.485L23.9955 110.487C23.7022 111.983 23.3612 113.489 23.1668 114.975C23.1668 115.07 23.1668 115.155 23.1395 115.244C23.143 115.298 23.143 115.353 23.1395 115.407C23.1336 115.389 23.1256 115.372 23.1156 115.356C23.0986 115.325 23.0508 115.295 23.0645 115.302L23.1599 115.329C23.243 115.352 23.3272 115.37 23.4123 115.383C23.7534 115.445 24.1524 115.482 24.5275 115.516C25.2846 115.584 26.0485 115.632 26.8159 115.672C28.3437 115.754 29.8761 115.822 31.4131 115.876L36.0137 116.053C39.083 116.162 42.1524 116.298 45.2217 116.444H45.2763V116.488L44.9216 117.281Z" fill="#263238"/>
<path d="M26.3452 103.339C26.1714 103.871 25.9428 104.384 25.6632 104.869C25.3978 105.365 25.0663 105.822 24.6776 106.229C24.9163 105.719 25.1686 105.229 25.4381 104.746C25.7081 104.257 26.0112 103.787 26.3452 103.339Z" fill="#263238"/>
<path d="M74.4112 136.45H71.925V138.068H74.4112V136.45Z" fill="#455A64"/>
<path d="M77.6339 136.344H75.1478V137.963H77.6339V136.344Z" fill="#455A64"/>
<path d="M80.8568 136.235H78.3706V137.854H80.8568V136.235Z" fill="#455A64"/>
<path d="M84.0796 136.13H81.5934V137.749H84.0796V136.13Z" fill="#455A64"/>
<path d="M87.3024 136.021H84.8162V137.64H87.3024V136.021Z" fill="#455A64"/>
<path d="M90.5252 135.916H88.0391V137.534H90.5252V135.916Z" fill="#455A64"/>
<path d="M93.748 135.81H91.2618V137.429H93.748V135.81Z" fill="#455A64"/>
<path d="M96.9709 135.702H94.4847V137.32H96.9709V135.702Z" fill="#455A64"/>
<path d="M100.194 135.596H97.7075V137.215H100.194V135.596Z" fill="#455A64"/>
<path d="M100.801 139H71.3179V137.031L100.801 136.212V139Z" fill="#37474F"/>
<path d="M124.813 129.56H76.1368L83.8783 93.4296H132.555L124.813 129.56Z" fill="#455A64"/>
<path d="M126.614 129.56H77.9375L85.6791 93.4296H134.352L126.614 129.56Z" fill="#37474F"/>
<path d="M110.35 109.402C110.201 110.223 109.774 110.968 109.141 111.514C108.509 112.059 107.707 112.372 106.871 112.401C106.493 112.413 106.117 112.339 105.771 112.185C105.426 112.032 105.12 111.802 104.876 111.513C104.632 111.225 104.457 110.885 104.364 110.519C104.27 110.153 104.261 109.771 104.337 109.402C104.487 108.579 104.914 107.832 105.549 107.285C106.184 106.739 106.988 106.426 107.826 106.399C108.204 106.388 108.58 106.463 108.924 106.617C109.269 106.772 109.575 107.002 109.817 107.291C110.06 107.58 110.234 107.92 110.327 108.285C110.419 108.651 110.427 109.033 110.35 109.402Z" fill="#263238"/>
<path d="M112.846 139H88.9053V137.143L112.846 136.371V139Z" fill="#455A64"/>
<path d="M119.357 138.997H106.503L98.7613 118.75H111.615L119.357 138.997Z" fill="#455A64"/>
<path d="M121.471 138.997H108.617L100.876 118.75H113.729L121.471 138.997Z" fill="#263238"/>
<path d="M128.967 111.888C133.421 116.233 134.168 122.96 133.23 128.853C133.206 128.985 132.998 128.951 132.998 128.826C132.998 127.465 133.039 126.153 133.036 124.83C133.012 124.769 132.991 124.711 132.964 124.65C131.804 123.806 130.734 122.854 130.072 121.552C129.329 120.093 129.049 118.447 128.466 116.924C128.415 116.778 128.571 116.822 128.674 116.897C131.382 118.889 132.244 121.032 133.022 123.898C133.006 122.4 132.848 120.906 132.551 119.437C131.965 116.716 130.809 114.023 128.848 112.003C128.832 111.987 128.824 111.966 128.824 111.944C128.824 111.922 128.834 111.901 128.849 111.886C128.865 111.871 128.886 111.862 128.909 111.862C128.931 111.863 128.952 111.872 128.967 111.888Z" fill="#263238"/>
<path d="M128.128 112.384C127.364 112.411 126.883 113.632 126.286 113.986C126.224 114.037 126.151 114.074 126.073 114.095C125.995 114.117 125.914 114.121 125.834 114.109C125.754 114.096 125.678 114.067 125.61 114.023C125.542 113.979 125.484 113.921 125.441 113.853C124.847 113.03 125.659 112.013 126.423 111.445C125.877 111.67 125.424 112.064 124.837 112.177C124.762 112.201 124.682 112.209 124.603 112.2C124.525 112.192 124.449 112.166 124.381 112.125C124.313 112.085 124.255 112.03 124.21 111.965C124.165 111.9 124.135 111.826 124.121 111.748C123.862 110.626 125.274 110.126 126.242 110.102C125.772 109.762 124.424 108.892 125.141 108.456C125.857 108.021 127.446 109.283 127.961 109.701C128.718 110.313 129.622 111.231 129.666 112.187C129.7 113.316 128.718 112.629 128.128 112.384Z" fill="#8956FA"/>
<path opacity="0.1" d="M128.128 112.384C127.364 112.411 126.883 113.632 126.286 113.986C126.224 114.037 126.151 114.074 126.073 114.095C125.995 114.117 125.914 114.121 125.834 114.109C125.754 114.096 125.678 114.067 125.61 114.023C125.542 113.979 125.484 113.921 125.441 113.853C124.847 113.03 125.659 112.013 126.423 111.445C125.877 111.67 125.424 112.064 124.837 112.177C124.762 112.201 124.682 112.209 124.603 112.2C124.525 112.192 124.449 112.166 124.381 112.125C124.313 112.085 124.255 112.03 124.21 111.965C124.165 111.9 124.135 111.826 124.121 111.748C123.862 110.626 125.274 110.126 126.242 110.102C125.772 109.762 124.424 108.892 125.141 108.456C125.857 108.021 127.446 109.283 127.961 109.701C128.718 110.313 129.622 111.231 129.666 112.187C129.7 113.316 128.718 112.629 128.128 112.384Z" fill="black"/>
<path d="M128.357 112.581C127.378 112.139 125.495 112.779 125.335 112.408C125.011 111.656 126.515 111.139 127.327 111.048C126.58 110.847 125.147 110.524 125.192 109.806C125.246 108.929 127.388 109.684 128.473 110.514C129.837 111.558 129.837 112.554 129.605 112.768C129.288 113.034 128.513 112.656 128.357 112.581Z" fill="#8956FA"/>
<path d="M139.11 111.456C134.492 115.632 133.489 122.337 134.202 128.247C134.222 128.384 134.43 128.353 134.437 128.247C134.488 126.887 134.495 125.575 134.55 124.252L134.628 124.075C135.822 123.279 136.927 122.375 137.636 121.089C138.434 119.658 138.792 118.029 139.416 116.526C139.474 116.383 139.318 116.42 139.212 116.488C136.429 118.379 135.484 120.487 134.598 123.32C134.673 121.824 134.888 120.339 135.239 118.882C135.921 116.186 137.189 113.537 139.222 111.595C139.241 111.58 139.252 111.559 139.255 111.535C139.258 111.511 139.251 111.488 139.236 111.469C139.221 111.451 139.199 111.439 139.175 111.436C139.152 111.434 139.128 111.441 139.11 111.456Z" fill="#263238"/>
<path d="M139.928 111.996C140.692 112.051 141.125 113.289 141.708 113.666C141.768 113.72 141.839 113.761 141.916 113.785C141.993 113.81 142.075 113.817 142.155 113.808C142.236 113.799 142.313 113.772 142.382 113.731C142.452 113.69 142.511 113.634 142.557 113.567C143.182 112.765 142.407 111.721 141.667 111.123C142.203 111.367 142.643 111.779 143.226 111.911C143.3 111.939 143.38 111.95 143.459 111.945C143.538 111.939 143.615 111.916 143.685 111.878C143.754 111.84 143.815 111.787 143.862 111.724C143.909 111.66 143.943 111.588 143.959 111.51C144.259 110.398 142.868 109.847 141.913 109.786C142.397 109.48 143.775 108.644 143.076 108.184C142.377 107.725 140.743 108.922 140.211 109.32C139.43 109.905 138.506 110.786 138.424 111.741C138.322 112.857 139.328 112.207 139.928 111.996Z" fill="#8956FA"/>
<path opacity="0.1" d="M139.928 111.996C140.692 112.051 141.125 113.289 141.708 113.666C141.768 113.72 141.839 113.761 141.916 113.785C141.993 113.81 142.075 113.817 142.155 113.808C142.236 113.799 142.313 113.772 142.382 113.731C142.452 113.69 142.511 113.634 142.557 113.567C143.182 112.765 142.407 111.721 141.667 111.123C142.203 111.367 142.643 111.779 143.226 111.911C143.3 111.939 143.38 111.95 143.459 111.945C143.538 111.939 143.615 111.916 143.685 111.878C143.754 111.84 143.815 111.787 143.862 111.724C143.909 111.66 143.943 111.588 143.959 111.51C144.259 110.398 142.868 109.847 141.913 109.786C142.397 109.48 143.775 108.644 143.076 108.184C142.377 107.725 140.743 108.922 140.211 109.32C139.43 109.905 138.506 110.786 138.424 111.741C138.322 112.857 139.328 112.207 139.928 111.996Z" fill="black"/>
<path d="M139.7 112.173C140.695 111.769 142.551 112.479 142.725 112.115C143.066 111.374 141.596 110.803 140.787 110.67C141.541 110.497 142.984 110.231 142.97 109.511C142.95 108.633 140.777 109.303 139.662 110.092C138.257 111.085 138.226 112.092 138.444 112.302C138.745 112.591 139.532 112.241 139.7 112.173Z" fill="#8956FA"/>
<path d="M134.39 122.484C134.077 124.717 133.598 126.925 132.957 129.087C132.944 129.125 132.917 129.156 132.882 129.176C132.847 129.195 132.807 129.202 132.767 129.194C132.728 129.186 132.693 129.165 132.668 129.133C132.644 129.102 132.631 129.063 132.633 129.023C132.937 126.983 133.489 124.99 133.793 122.956C134.119 120.897 134.234 118.809 134.134 116.727C133.939 113.299 133.005 109.653 130.761 106.97C130.713 106.906 130.815 106.817 130.867 106.875C135.358 112.098 134.645 118.502 134.642 119.076C135.276 116.914 135.931 114.435 138.339 112.234C138.441 112.139 138.523 112.183 138.506 112.343C138.076 116.356 136.958 118.447 134.625 120.593C134.574 121.225 134.495 121.861 134.39 122.484Z" fill="#263238"/>
<path d="M130.744 107.569C129.936 107.229 128.82 108.249 128.016 108.31C127.925 108.329 127.831 108.329 127.741 108.31C127.65 108.292 127.564 108.255 127.488 108.202C127.412 108.149 127.348 108.081 127.299 108.003C127.25 107.925 127.218 107.837 127.204 107.746C127.006 106.596 128.363 105.95 129.441 105.743C128.759 105.699 128.094 105.882 127.426 105.702C127.335 105.689 127.248 105.658 127.171 105.609C127.094 105.56 127.028 105.495 126.978 105.419C126.928 105.342 126.894 105.256 126.881 105.166C126.867 105.076 126.872 104.984 126.897 104.896C127.197 103.604 128.913 103.794 129.932 104.257C129.608 103.682 128.657 102.087 129.618 101.995C130.58 101.904 131.593 104.012 131.917 104.716C132.395 105.736 132.869 107.137 132.418 108.147C131.897 109.324 131.228 108.11 130.744 107.569Z" fill="#8956FA"/>
<path opacity="0.1" d="M130.744 107.569C129.936 107.229 128.82 108.249 128.016 108.31C127.925 108.329 127.831 108.329 127.741 108.31C127.65 108.292 127.564 108.255 127.488 108.202C127.412 108.149 127.348 108.081 127.299 108.003C127.25 107.925 127.218 107.837 127.204 107.746C127.006 106.596 128.363 105.95 129.441 105.743C128.759 105.699 128.094 105.882 127.426 105.702C127.335 105.689 127.248 105.658 127.171 105.609C127.094 105.56 127.028 105.495 126.978 105.419C126.928 105.342 126.894 105.256 126.881 105.166C126.867 105.076 126.872 104.984 126.897 104.896C127.197 103.604 128.913 103.794 129.932 104.257C129.608 103.682 128.657 102.087 129.618 101.995C130.58 101.904 131.593 104.012 131.917 104.716C132.395 105.736 132.869 107.137 132.418 108.147C131.897 109.324 131.228 108.11 130.744 107.569Z" fill="black"/>
<path d="M130.87 107.878C130.079 106.926 127.801 106.644 127.821 106.178C127.865 105.236 129.687 105.454 130.58 105.76C129.898 105.175 128.582 104.121 128.991 103.396C129.489 102.512 131.334 104.372 132.04 105.777C132.93 107.549 132.411 108.589 132.074 108.684C131.613 108.817 131 108.035 130.87 107.878Z" fill="#8956FA"/>
<path d="M137.343 123.691L139.324 138.786H127.269C127.518 137.449 129.762 123.674 129.762 123.674L137.343 123.691Z" fill="#8956FA"/>
</g>
<defs>
<clipPath id="clip0_52_1277">
<rect width="144" height="139" fill="white"/>
</clipPath>
</defs>
</svg>
