<svg width="180" height="180" viewBox="0 0 180 180" fill="none" xmlns="http://www.w3.org/2000/svg">
<path d="M87.9585 118.518L89.0245 125.016L96.2357 164.647H97.3964L92.1527 125.016L91.3789 118.518H87.9585Z" fill="#C7C7C7"/>
<path d="M91.3789 118.518H87.9585L89.0245 125.016H92.1527L91.3789 118.518Z" fill="#A6A6A6"/>
<path d="M65.3165 164.647H66.4772L73.6884 125.016L74.7544 118.518H71.334L70.5602 125.016L65.3165 164.647Z" fill="#C7C7C7"/>
<path d="M71.334 118.518L70.5602 125.016H73.6884L74.7544 118.518H71.334Z" fill="#A6A6A6"/>
<path d="M43.687 164.647H44.8518L52.0589 125.016L53.1249 118.518H49.7046L48.9308 125.016L43.687 164.647Z" fill="#C7C7C7"/>
<path d="M48.9308 125.016H52.0589L53.1249 118.518H49.7046L48.9308 125.016Z" fill="#A6A6A6"/>
<path d="M45.531 121.572H98.3678V115.905H78.5905L71.9432 68.1629H47.5478L45.531 121.572Z" fill="#C7C7C7"/>
<path d="M48.6097 115.905H98.3678V121.572H48.4121L48.6097 115.905Z" fill="#DBDBDB"/>
<path d="M45.531 121.572H48.4121L50.289 68.1629H47.5478L45.531 121.572Z" fill="#DBDBDB"/>
<path d="M95.6512 172.196C94.6264 172.297 66.65 165.515 65.7692 164.593C65.6581 164.488 66.2096 161.899 67.004 158.372V158.301C67.5103 156.064 75.6476 137.968 75.6476 137.968L93.7785 143.116L85.5465 159.906C85.5465 159.906 88.9587 162.419 91.8851 164.794C93.692 166.256 95.252 167.571 95.5895 167.994C96.4785 169.113 96.6802 172.104 95.6512 172.196Z" fill="#AD6359"/>
<path d="M95.6512 172.196C94.6264 172.296 66.65 165.515 65.7651 164.593C65.6581 164.488 66.2096 161.904 66.9999 158.372V158.305C67.1851 157.468 68.4405 154.431 69.9346 150.945C72.9187 151.783 83.6161 154.715 87.5016 155.926L85.5506 159.906C85.5506 159.906 88.9628 162.419 91.8892 164.794C93.6961 166.256 95.2561 167.571 95.5936 167.994C96.4785 169.117 96.6802 172.108 95.6512 172.196Z" fill="#EBEBEB"/>
<path d="M95.7459 172.33C94.6881 172.426 66.6912 165.565 65.7857 164.618C65.4399 164.258 66.0615 159.763 67.5926 154.984L85.6288 159.445C85.6288 159.445 94.8445 166.868 95.7294 168.015C96.6144 169.163 96.7996 172.238 95.7459 172.33Z" fill="#DA83FC"/>
<path d="M95.6142 171.094C90.9467 169.838 72.0132 165.163 67.3086 164.27C67.2674 164.27 67.2633 164.291 67.3086 164.304C71.9062 165.661 90.8767 170.168 95.6018 171.174C95.6924 171.195 95.713 171.119 95.6142 171.094Z" fill="#263238"/>
<path d="M94.1777 166.549C93.6591 166.407 93.1172 166.377 92.5865 166.46C92.0557 166.543 91.5477 166.737 91.0948 167.031C90.2772 167.551 89.6877 168.372 89.4485 169.322C89.4485 169.352 89.4978 169.364 89.5061 169.322C89.8903 168.416 90.5528 167.661 91.3943 167.17C92.2358 166.679 93.2109 166.479 94.1736 166.599C94.1774 166.597 94.1805 166.593 94.1828 166.589C94.1851 166.585 94.1865 166.58 94.1869 166.575C94.1872 166.571 94.1866 166.566 94.1851 166.561C94.1835 166.557 94.181 166.553 94.1777 166.549Z" fill="#263238"/>
<path d="M86.9953 160.283C85.1226 159.797 82.7847 159.939 81.233 161.217C81.1753 161.267 81.233 161.351 81.307 161.334C83.1574 160.862 85.0517 160.591 86.9583 160.526C86.9899 160.531 87.0223 160.523 87.0481 160.503C87.074 160.484 87.0913 160.455 87.0962 160.423C87.1011 160.391 87.0932 160.358 87.0743 160.331C87.0554 160.305 87.027 160.288 86.9953 160.283Z" fill="#263238"/>
<path d="M88.3083 161.213C86.4397 160.727 84.1018 160.869 82.546 162.147C82.4883 162.197 82.546 162.281 82.62 162.264C84.4704 161.792 86.3647 161.521 88.2713 161.455C88.3029 161.46 88.3353 161.452 88.3611 161.433C88.387 161.414 88.4043 161.385 88.4092 161.353C88.4141 161.321 88.4062 161.288 88.3873 161.261C88.3684 161.235 88.34 161.218 88.3083 161.213Z" fill="#263238"/>
<path d="M89.6255 162.147C87.7527 161.657 85.4148 161.799 83.8631 163.077C83.8055 163.127 83.8631 163.211 83.9372 163.198C85.7867 162.722 87.6815 162.451 89.5884 162.39C89.6167 162.388 89.6435 162.377 89.6645 162.357C89.6855 162.338 89.6993 162.312 89.7036 162.283C89.708 162.255 89.7026 162.226 89.6883 162.201C89.6741 162.176 89.6519 162.157 89.6255 162.147Z" fill="#263238"/>
<path d="M90.9384 163.077C89.0657 162.591 86.7278 162.729 85.1761 164.007C85.1143 164.057 85.1761 164.141 85.246 164.128C87.0956 163.652 88.9904 163.381 90.8973 163.32C90.9259 163.319 90.9533 163.308 90.9749 163.289C90.9966 163.27 91.011 163.244 91.0159 163.215C91.0208 163.187 91.0157 163.157 91.0016 163.132C90.9874 163.107 90.9651 163.087 90.9384 163.077Z" fill="#263238"/>
<path d="M69.5765 160.027C67.465 159.52 66.6953 162.855 68.7945 163.378C70.8936 163.902 71.688 160.538 69.5765 160.027Z" fill="#263238"/>
<path d="M90.2346 155.679C89.4732 154.644 88.0902 155.134 87.304 155.825C85.9816 157.034 84.995 158.575 84.4434 160.295C84.4408 160.303 84.44 160.311 84.441 160.318C84.442 160.326 84.4449 160.334 84.4493 160.34C84.4537 160.347 84.4596 160.352 84.4664 160.356C84.4733 160.36 84.4809 160.362 84.4887 160.362C84.4887 160.509 84.6287 160.664 84.7892 160.601C86.3491 159.985 88.082 159.528 89.4197 158.444C90.1976 157.811 90.9508 156.659 90.2346 155.679ZM86.9665 159.177C86.2051 159.499 85.4354 159.78 84.6863 160.128C85.2502 159.26 85.7688 158.368 86.415 157.555C86.7214 157.16 87.0527 156.785 87.4069 156.433C87.9667 155.905 90.1852 154.757 89.8765 156.881C89.7119 158.054 87.872 158.795 86.9665 159.177Z" fill="#263238"/>
<path d="M79.6071 159.859C81.1836 160.517 82.9822 160.454 84.6492 160.597C84.6864 160.597 84.723 160.588 84.756 160.57C84.789 160.553 84.8176 160.528 84.8393 160.497C84.861 160.467 84.8752 160.431 84.8808 160.394C84.8864 160.357 84.8832 160.318 84.8715 160.283C84.9003 160.283 84.9209 160.236 84.8962 160.203C83.8893 158.711 82.5135 157.516 80.9078 156.739C79.9652 156.32 78.5041 156.228 78.0595 157.442C77.6397 158.586 78.6893 159.478 79.6071 159.859ZM78.7304 158.494C77.8496 156.542 80.2986 157.003 80.9778 157.354C81.4163 157.587 81.8386 157.85 82.2414 158.142C83.0893 158.737 83.8343 159.441 84.6163 160.115C83.7931 159.994 82.9699 159.947 82.1467 159.859C81.1877 159.751 79.2161 159.57 78.7304 158.494Z" fill="#263238"/>
<path d="M87.1847 157.715L67.9301 152.47C67.9301 152.47 84.8509 116.755 83.4844 114.769C82.8011 113.789 64.7567 112.96 59.159 107.828C51.8901 101.164 57.1792 91.4913 57.1792 91.4913H77.3475C77.3475 91.4913 76.9812 95.7766 77.7591 96.4468C78.2653 96.8908 102.229 99.6765 104.628 108.008C107.567 118.225 87.1847 157.715 87.1847 157.715Z" fill="#37474F"/>
<path d="M87.5222 154.841C87.0096 154.602 86.4815 154.399 85.9416 154.234C85.3819 154.037 84.8262 153.84 84.2623 153.651C83.1551 153.283 82.0438 152.931 80.9284 152.604C78.6728 151.942 76.4008 151.293 74.1494 150.694C72.9681 150.38 70.445 149.701 70.2762 149.722C70.198 149.722 70.1816 149.865 70.2515 149.89C72.4412 150.698 74.668 151.398 76.8906 152.101C79.1132 152.805 81.34 153.496 83.5914 154.087C84.217 154.25 84.8262 154.397 85.4724 154.552C86.1252 154.749 86.7909 154.899 87.4646 155C87.5304 155.004 87.5922 154.879 87.5222 154.841Z" fill="#263238"/>
<path d="M86.983 113.194C86.5714 112.83 85.9828 112.775 85.4765 112.667L76.7877 110.911C74.0794 110.363 71.3546 109.864 68.6586 109.236C66.4278 108.725 64.1599 108.063 62.2542 106.764C60.4015 105.483 59.0576 103.571 58.4634 101.373C57.9133 99.1552 57.8069 96.8474 58.1506 94.5869C58.2164 94.0382 58.3317 93.4894 58.451 92.949C58.451 92.9071 58.3934 92.8904 58.3852 92.949C57.5249 97.138 57.315 102.018 60.3156 105.466C61.7767 107.141 63.8224 108.168 65.9215 108.855C68.2882 109.629 70.7743 110.036 73.2109 110.53L81.8998 112.277C83.2951 112.558 84.711 112.784 86.0898 113.115C86.3691 113.159 86.6295 113.286 86.8389 113.479C86.9361 113.63 86.9955 113.803 87.012 113.982C87.0285 114.162 87.0016 114.343 86.9336 114.51C86.7731 115.205 86.5673 115.892 86.3491 116.571C84.5998 122.046 72.3219 147.988 71.9885 148.583C71.9555 148.646 72.0502 148.696 72.0873 148.637C74.8985 143.87 84.0483 123.843 85.9663 118.673C86.4709 117.357 86.8929 116.01 87.2299 114.64C87.3246 114.149 87.3987 113.576 86.983 113.194Z" fill="#263238"/>
<path d="M93.2722 145.148L80.5127 124.287C82.5707 119.26 83.8919 115.41 83.4679 114.803C83.1345 114.325 78.7057 113.881 73.5896 112.964L60.5214 91.4955H77.3763C77.3763 91.4955 77.01 95.7808 77.7879 96.451C78.2942 96.8992 102.257 99.6807 104.657 108.013C106.489 114.476 99.014 132.652 93.2722 145.148Z" fill="#263238"/>
<path d="M124.459 174.311C123.471 174.617 94.7293 173.641 93.6838 172.917C93.5562 172.837 93.5891 170.189 93.6838 166.566V166.512C93.7414 164.22 93.6221 144.591 93.6221 144.591L111.617 144.984L112.177 164.325C112.177 164.325 116.009 166.088 119.343 167.831C121.401 168.895 123.183 169.867 123.591 170.219C124.665 171.119 125.447 174.014 124.459 174.311Z" fill="#AD6359"/>
<path d="M124.459 174.311C123.471 174.617 94.7293 173.641 93.6838 172.912C93.5562 172.837 93.5891 170.189 93.6838 166.57V166.512C93.6838 166.352 93.6838 166.189 93.6838 166.026C93.6838 165.862 93.6838 165.791 93.6838 165.674C93.6838 165.556 93.6838 165.326 93.6838 165.15C93.6838 163.621 93.6838 161.145 93.6838 158.448L112.016 158.867L112.173 164.312C112.173 164.312 116.005 166.08 119.339 167.818C121.397 168.887 123.183 169.854 123.586 170.206C124.661 171.119 125.447 174.014 124.459 174.311Z" fill="#EBEBEB"/>
<path d="M124.574 174.429C123.558 174.735 94.7786 173.683 93.7044 172.937C93.2928 172.657 93.0211 168.124 93.5933 163.148L112.144 163.847C112.144 163.847 122.627 169.255 123.718 170.202C124.809 171.149 125.591 174.123 124.574 174.429Z" fill="#DA83FC"/>
<path d="M124.204 173.239C119.384 172.946 99.9195 172.213 95.1285 172.292C95.0915 172.292 95.0915 172.317 95.1285 172.322C99.8989 172.74 119.372 173.293 124.2 173.323C124.319 173.323 124.319 173.247 124.204 173.239Z" fill="#263238"/>
<path d="M121.907 169.079C121.372 169.046 120.835 169.126 120.331 169.314C119.828 169.502 119.368 169.794 118.981 170.173C118.278 170.847 117.858 171.771 117.808 172.753C117.808 172.782 117.861 172.787 117.869 172.753C118.067 171.787 118.567 170.912 119.296 170.26C120.024 169.608 120.94 169.214 121.907 169.138C121.912 169.135 121.917 169.131 121.92 169.126C121.922 169.121 121.924 169.115 121.924 169.109C121.924 169.103 121.922 169.097 121.92 169.092C121.917 169.086 121.912 169.082 121.907 169.079Z" fill="#263238"/>
<path d="M113.642 164.392C111.716 164.296 109.452 164.907 108.193 166.486C108.147 166.549 108.23 166.616 108.291 166.591C110.01 165.75 111.812 165.1 113.667 164.652C113.701 164.648 113.732 164.631 113.753 164.605C113.775 164.578 113.785 164.544 113.782 164.509C113.779 164.475 113.762 164.443 113.736 164.421C113.71 164.399 113.676 164.389 113.642 164.392Z" fill="#263238"/>
<path d="M115.112 165.037C113.185 164.941 110.922 165.552 109.666 167.131C109.617 167.194 109.699 167.261 109.761 167.236C111.479 166.396 113.282 165.746 115.136 165.297C115.153 165.295 115.169 165.29 115.184 165.282C115.199 165.274 115.212 165.263 115.223 165.25C115.234 165.237 115.242 165.221 115.247 165.205C115.251 165.189 115.253 165.171 115.252 165.154C115.25 165.137 115.245 165.121 115.237 165.106C115.229 165.09 115.218 165.077 115.205 165.066C115.192 165.055 115.177 165.047 115.161 165.042C115.145 165.037 115.128 165.035 115.112 165.037Z" fill="#263238"/>
<path d="M116.585 165.674C114.655 165.577 112.391 166.189 111.136 167.768C111.086 167.831 111.173 167.902 111.23 167.873C112.95 167.032 114.753 166.383 116.61 165.938C116.644 165.934 116.676 165.917 116.698 165.89C116.72 165.863 116.73 165.828 116.727 165.793C116.724 165.758 116.707 165.726 116.68 165.703C116.654 165.681 116.619 165.67 116.585 165.674Z" fill="#263238"/>
<path d="M118.055 166.331C116.124 166.231 113.86 166.842 112.605 168.426C112.556 168.484 112.642 168.556 112.7 168.526C114.42 167.688 116.223 167.039 118.079 166.591C118.113 166.588 118.144 166.571 118.166 166.544C118.187 166.517 118.198 166.483 118.194 166.449C118.191 166.414 118.175 166.382 118.148 166.361C118.122 166.339 118.088 166.328 118.055 166.331Z" fill="#263238"/>
<path d="M96.5238 167.672C94.3547 167.601 94.2395 171.023 96.4127 171.098C98.5859 171.174 98.6929 167.768 96.5238 167.672Z" fill="#263238"/>
<path d="M115.914 159.227C114.968 158.364 113.708 159.126 113.074 159.96C112.015 161.412 111.351 163.123 111.148 164.92C111.146 164.928 111.147 164.936 111.149 164.944C111.152 164.952 111.156 164.959 111.162 164.965C111.167 164.97 111.174 164.975 111.182 164.977C111.19 164.979 111.198 164.98 111.206 164.978C111.212 165.016 111.226 165.051 111.249 165.082C111.271 165.112 111.3 165.137 111.333 165.153C111.366 165.17 111.403 165.179 111.441 165.178C111.478 165.178 111.514 165.168 111.547 165.15C112.955 164.233 114.572 163.428 115.663 162.101C116.297 161.321 116.811 160.04 115.914 159.227ZM113.399 163.315C112.716 163.785 112.016 164.216 111.341 164.71C111.691 163.733 112.09 162.773 112.535 161.837C112.756 161.387 113.006 160.953 113.284 160.538C113.729 159.906 115.68 158.331 115.799 160.475C115.869 161.657 114.21 162.741 113.399 163.315Z" fill="#263238"/>
<path d="M106.32 165.477C107.991 165.799 109.744 165.376 111.403 165.175C111.438 165.167 111.47 165.151 111.497 165.128C111.525 165.106 111.547 165.077 111.562 165.044C111.577 165.011 111.585 164.976 111.584 164.94C111.584 164.904 111.575 164.868 111.559 164.836C111.566 164.831 111.572 164.825 111.576 164.818C111.58 164.81 111.582 164.802 111.582 164.794C111.582 164.786 111.58 164.778 111.576 164.77C111.572 164.763 111.566 164.757 111.559 164.752C110.279 163.496 108.696 162.603 106.97 162.163C105.962 161.929 104.501 162.163 104.319 163.42C104.151 164.626 105.344 165.284 106.32 165.477ZM105.192 164.312C103.957 162.582 106.427 162.536 107.176 162.741C107.65 162.882 108.115 163.054 108.567 163.257C109.493 163.694 110.397 164.18 111.275 164.71C110.452 164.756 109.629 164.878 108.826 164.953C107.855 165.05 105.879 165.255 105.192 164.312Z" fill="#263238"/>
<path d="M113.264 161.569L92.9717 160.961C92.9717 160.961 94.26 125.774 92.7289 123.646C90.6709 120.822 61.0359 119.989 54.9195 110.798C49.4411 102.542 54.5985 91.2483 54.5985 91.2483H77.0841C76.5069 93.6802 75.7403 96.0615 74.7915 98.3695C74.7915 98.3695 101.706 104.272 109.045 112.951C113.992 118.824 113.264 161.569 113.264 161.569Z" fill="#37474F"/>
<path d="M78.7881 96.9411C78.1318 97.0678 77.4883 97.2557 76.8659 97.5025C76.2156 97.7329 75.5694 98.001 74.9437 98.29C73.7031 98.8672 72.4952 99.5147 71.3258 100.229C71.2929 100.25 71.3258 100.301 71.3628 100.284C72.5976 99.6765 73.8695 99.1362 75.1413 98.6084L76.9812 97.8669C77.6124 97.6422 78.2319 97.385 78.8375 97.0961C78.9157 97.071 78.8786 96.9244 78.7881 96.9411Z" fill="#263238"/>
<path d="M77.6068 91.2567C77.3187 92.2914 77.0635 93.3512 76.7383 94.3607C76.5901 94.8299 76.4461 95.3116 76.2567 95.764C76.0962 96.1494 75.8451 96.6018 75.4335 96.6605C74.919 96.7443 74.7873 96.296 74.8408 95.8688C74.8943 95.4415 75.0343 94.9179 75.1413 94.4529C75.2648 93.9125 75.3883 93.3763 75.5035 92.8318C75.557 92.5637 75.6146 92.2914 75.6682 92.0233C75.6682 91.9521 75.7464 91.4327 75.7875 91.286C75.7875 91.286 75.7875 91.3112 75.8163 91.307C75.8163 91.307 75.8493 91.307 75.8493 91.2819C75.8493 91.2567 75.8493 91.2316 75.8246 91.2023C75.8181 91.1972 75.8101 91.1944 75.8019 91.1944C75.7937 91.1944 75.7858 91.1972 75.7793 91.2023C75.6805 91.2525 75.6682 91.3866 75.6352 91.4871C75.5447 91.7468 75.4541 92.0107 75.3677 92.2746C75.2113 92.7689 75.059 93.2632 74.9232 93.7617C74.7873 94.2602 74.6474 94.7629 74.5116 95.2614C74.3727 95.6293 74.3261 96.0266 74.3757 96.4175C74.4161 96.6036 74.5144 96.7714 74.6561 96.8959C74.7977 97.0205 74.9752 97.0951 75.1619 97.1087C75.1619 97.1422 75.1207 97.1757 75.1043 97.2092C75.059 97.3098 75.0219 97.4187 74.9808 97.5234C74.9396 97.6281 74.8985 97.737 74.8655 97.846C74.851 97.8982 74.84 97.9514 74.8326 98.0051C74.8326 98.068 74.8326 98.1266 74.8326 98.1853C74.8299 98.2049 74.8337 98.2248 74.8435 98.2419C74.8532 98.259 74.8684 98.2723 74.8864 98.2795C74.9045 98.2868 74.9245 98.2876 74.9431 98.2819C74.9617 98.2762 74.9779 98.2643 74.989 98.2481C75.0178 98.1978 75.059 98.156 75.0919 98.1057C75.1245 98.0518 75.1508 97.9941 75.1701 97.9339C75.2072 97.8292 75.2401 97.7287 75.2689 97.6198C75.2977 97.5108 75.3348 97.4103 75.3553 97.3056C75.3759 97.2009 75.3553 97.1757 75.38 97.1129C75.5945 97.1021 75.8015 97.0294 75.9769 96.9034C76.2736 96.6603 76.4963 96.3364 76.6189 95.9693C76.7877 95.5504 76.9194 95.0896 77.0305 94.6498C77.378 93.5575 77.63 92.436 77.7838 91.2986C77.7826 91.2778 77.7749 91.2579 77.7617 91.242C77.7485 91.2261 77.7306 91.2149 77.7107 91.2102C77.6908 91.2055 77.6699 91.2074 77.6511 91.2158C77.6324 91.2242 77.6168 91.2386 77.6068 91.2567Z" fill="#263238"/>
<path d="M64.1722 93.4056C64.0652 93.9209 63.9911 94.4403 63.8553 94.9514C63.7195 95.4624 63.5795 95.9483 63.4025 96.4342C63.2428 96.9053 63.0183 97.351 62.7358 97.758C62.4444 98.1424 62.0991 98.4812 61.7109 98.7633C60.9699 99.3277 60.1425 99.7637 59.2619 100.054C58.8206 100.201 58.3712 100.321 57.9159 100.414C57.6772 100.46 57.4344 100.493 57.1956 100.518C56.9965 100.519 56.7994 100.559 56.6153 100.636C56.5983 100.647 56.5843 100.662 56.5746 100.68C56.5649 100.698 56.5598 100.718 56.5598 100.738C56.5598 100.759 56.5649 100.779 56.5746 100.797C56.5843 100.815 56.5983 100.83 56.6153 100.841C56.9586 100.958 57.3264 100.982 57.6813 100.908C58.0664 100.88 58.4489 100.822 58.8256 100.736C59.5865 100.563 60.3195 100.281 61.0029 99.8985C61.6932 99.5278 62.3155 99.039 62.8428 98.4533C63.3391 97.8374 63.6898 97.1137 63.8676 96.3379C64.1357 95.3942 64.2742 94.4173 64.2792 93.4349C64.2831 93.4205 64.2811 93.4051 64.2738 93.3921C64.2664 93.3792 64.2543 93.3697 64.2401 93.3658C64.2259 93.3619 64.2108 93.3639 64.1981 93.3714C64.1854 93.3789 64.176 93.3912 64.1722 93.4056Z" fill="#263238"/>
<path d="M96.5856 137.268C96.484 134.018 96.3139 130.768 96.0752 127.521C96.0176 126.721 95.964 125.92 95.89 125.12C95.8507 124.498 95.7359 123.883 95.5483 123.29C95.1162 122.058 94.1407 121.413 92.947 121.07C91.5353 120.651 90.0659 120.399 88.6376 120.115C87.2094 119.83 85.6947 119.566 84.2212 119.31C81.233 118.795 78.2365 118.309 75.2648 117.71C72.2995 117.129 69.3728 116.359 66.5019 115.406C63.8718 114.51 61.1799 113.421 59.0931 111.481C54.6396 107.292 54.6684 100.544 55.3887 94.9053C55.4916 94.1094 55.611 93.3135 55.7304 92.5218C55.7304 92.4799 55.6727 92.4631 55.6686 92.5218C55.2117 95.697 54.6972 98.889 54.9154 102.106C55.0465 104.768 55.8427 107.352 57.2286 109.613C58.7103 111.921 60.9576 113.45 63.4025 114.543C66.0997 115.698 68.8915 116.609 71.7456 117.266C77.6397 118.707 83.682 119.428 89.609 120.647C90.3416 120.797 91.0729 120.957 91.8028 121.124C92.48 121.248 93.1414 121.449 93.7743 121.723C95.1079 122.381 95.4207 123.738 95.5689 125.129C95.8653 128.363 96.034 131.613 96.1698 134.856C96.4415 141.394 96.495 147.959 96.2933 154.502C96.2686 155.31 96.2398 156.115 96.2069 156.923C96.2069 156.994 96.3139 156.99 96.318 156.923C96.6926 150.376 96.7996 143.824 96.5856 137.268Z" fill="#263238"/>
<path d="M112.383 159.059C111.828 158.954 111.267 158.888 110.703 158.862C110.115 158.812 109.522 158.758 108.933 158.716C107.773 158.636 106.608 158.569 105.447 158.532C103.105 158.452 100.759 158.385 98.4172 158.368C97.1824 158.368 94.5728 158.33 94.4247 158.393C94.3547 158.423 94.3712 158.552 94.4247 158.561C96.7461 158.8 99.0716 158.921 101.397 159.047C103.723 159.172 106.044 159.294 108.374 159.306C109.016 159.306 109.662 159.306 110.304 159.306C110.991 159.337 111.679 159.316 112.362 159.244C112.436 159.214 112.465 159.076 112.383 159.059Z" fill="#263238"/>
<path d="M76.5737 71.9581C78.6029 80.7884 79.1379 87.1808 81.5993 88.8313C83.5873 90.1592 86.3779 91.0933 89.2468 91.7426C92.3148 92.4017 95.4223 92.8537 98.5489 93.0956C99.512 93.1794 100.315 93.2297 100.883 93.2716C102.29 93.3637 104.587 83.905 103.595 82.7531C103.365 82.4892 102.438 82.2839 101.125 82.1163C96.7461 81.555 88.1231 81.4252 87.6086 80.9267C87.0941 80.4282 83.4926 74.3919 80.3357 68.7535C77.3557 63.354 75.2977 66.3449 76.5737 71.9581Z" fill="#AD6359"/>
<path d="M98.0755 92.3165C99.4352 92.9337 100.834 93.4585 102.261 93.8874C103.398 94.1764 106.694 94.9221 107.135 93.678C107.435 92.8402 105.546 92.1573 104.221 91.6547C103.521 91.3866 102.648 90.687 102.834 90.2304C103.159 89.4303 104.957 90.155 106.147 90.8001C108.448 92.0568 111.531 94.3272 112.864 93.1166C113.371 92.6558 112.737 91.8599 111.823 91.1269C113.292 91.9898 114.844 92.681 115.424 92.1951C115.574 92.0702 115.672 91.8916 115.696 91.696C115.721 91.5005 115.67 91.3028 115.556 91.1436C115.74 91.223 115.943 91.2447 116.138 91.2059C116.334 91.1671 116.514 91.0695 116.655 90.9258C117.104 90.4147 116.849 89.6901 116.309 88.957C116.396 88.9443 116.479 88.9107 116.551 88.859C116.622 88.8073 116.681 88.7389 116.721 88.6596C117.651 87.0929 112.556 82.883 110.835 82.5353C105.768 81.509 100.442 82.1541 100.442 82.1541C98.5324 83.8339 98.0714 92.3123 98.0755 92.3165Z" fill="#AD6359"/>
<path d="M105.287 87.273C106.492 87.4098 107.653 87.816 108.687 88.4627C109.888 89.2376 110.86 90.3184 111.979 91.2065C112.008 91.2316 111.979 91.2777 111.942 91.2525C111.415 90.7917 110.839 90.3854 110.296 89.9456C109.753 89.5057 109.238 89.0701 108.678 88.6889C107.666 87.9703 106.506 87.4961 105.287 87.3023C105.287 87.3023 105.274 87.273 105.287 87.273Z" fill="#263238"/>
<path d="M106.143 85.0696C107.496 85.3428 108.818 85.754 110.09 86.297C111.457 86.9421 112.56 88.0396 113.617 89.091C114.265 89.7222 114.895 90.3673 115.507 91.0263C115.531 91.0557 115.507 91.1017 115.47 91.0766C114.372 89.9875 113.253 88.9332 112.111 87.9139C111.049 86.9612 109.813 86.2322 108.473 85.7692C107.707 85.5011 106.925 85.3 106.139 85.0948C106.126 85.0906 106.131 85.0654 106.143 85.0696Z" fill="#263238"/>
<path d="M107.485 83.1217C108.777 83.3395 109.905 83.5406 111.066 84.1857C112.372 84.9977 113.572 85.9745 114.638 87.0929C115.227 87.6835 115.791 88.2909 116.346 88.9109C116.367 88.936 116.326 88.9779 116.301 88.9528C115.032 87.5996 113.678 86.3318 112.247 85.1575C111.575 84.5868 110.819 84.1261 110.008 83.7919C109.186 83.5055 108.342 83.2911 107.485 83.151C107.485 83.151 107.481 83.1217 107.485 83.1217Z" fill="#263238"/>
<path d="M96.281 93.4601L100.348 81.7813C100.348 81.7813 88.6006 81.2786 87.8432 80.7801C87.0859 80.2816 83.2045 73.0263 80.2781 68.1504C77.9649 64.3216 75.1002 64.5981 76.409 72.31C77.792 80.4366 78.9445 86.8373 80.9366 88.7014C84.3076 91.8557 96.281 93.4601 96.281 93.4601Z" fill="#DA83FC"/>
<g opacity="0.1">
<path d="M78.2201 65.9343L76.9853 65.9092C77.1743 65.8002 77.3888 65.745 77.6061 65.7494C77.8233 65.7538 78.0354 65.8177 78.2201 65.9343Z" fill="black"/>
<path d="M80.6197 68.7451L76.0715 68.6613C76.0768 68.2196 76.1223 67.7793 76.2073 67.346L79.7718 67.4088C79.9487 67.6487 80.1136 67.8976 80.2657 68.1545L80.6197 68.7451Z" fill="black"/>
<path d="M82.2537 71.5434L76.2609 71.4219C76.195 70.9486 76.1497 70.5087 76.1168 70.0982L81.4676 70.1987L82.2537 71.5434Z" fill="black"/>
<path d="M83.859 74.3542L76.7218 74.2201C76.6478 73.8012 76.5696 73.3446 76.4914 72.8964L83.0769 73.0179L83.859 74.3542Z" fill="black"/>
<path d="M85.4683 77.1356L77.2117 76.9806C77.1334 76.5617 77.0552 76.1051 76.9729 75.6569L84.6986 75.8035C84.9662 76.2685 85.2172 76.7125 85.4683 77.1356Z" fill="black"/>
<path d="M87.1682 79.9339L77.7426 79.758C77.6562 79.3391 77.5697 78.8867 77.4833 78.4343L86.3327 78.5976C86.6496 79.1254 86.9336 79.5779 87.1682 79.9339Z" fill="black"/>
<path d="M100.348 81.7812L99.936 82.9374L78.3477 82.5185C78.2448 82.0996 78.1419 81.6514 78.039 81.1948L95.4989 81.5173C98.1002 81.6849 100.348 81.7812 100.348 81.7812Z" fill="black"/>
<path d="M99.442 84.3784L98.9893 85.6853L79.1338 85.3167C78.998 84.8978 78.8622 84.4789 78.7222 83.993L99.442 84.3784Z" fill="black"/>
<path d="M98.4871 87.1264L98.0303 88.4375L80.4221 88.1108C80.1371 87.6906 79.8931 87.243 79.6936 86.7745L98.4871 87.1264Z" fill="black"/>
<path d="M97.5281 89.8743L97.0754 91.1854L85.2707 90.9634C84.1908 90.6042 83.1462 90.1428 82.1508 89.5853L97.5281 89.8743Z" fill="black"/>
<path d="M96.5732 92.6222L96.281 93.46C96.281 93.46 93.9266 93.1417 91.0084 92.5175L96.5732 92.6222Z" fill="black"/>
</g>
<path d="M96.0587 87.3694C96.3839 86.452 96.6967 85.5346 97.0013 84.6088C97.3059 83.6831 97.5528 82.6777 97.8944 81.7352C97.8944 81.6933 97.845 81.6807 97.8327 81.7352C97.5034 82.6777 97.0754 83.5867 96.7255 84.5209C96.3756 85.455 96.0505 86.3347 95.7253 87.2521C95.075 89.0952 94.4123 90.9467 93.8896 92.8318C93.8896 92.8862 93.9596 92.9239 93.9843 92.8695C94.7581 91.064 95.4084 89.2083 96.0587 87.3694Z" fill="#263238"/>
<path d="M86.9254 91.4913C84.4558 90.7666 82.1426 89.8157 80.9325 88.7056C78.9321 86.8373 77.7797 80.4408 76.4049 72.31C75.3389 66.1396 76.9853 64.7196 78.8539 66.3952L86.9254 91.4913Z" fill="#263238"/>
<path d="M79.5125 96.4385C78.8169 96.9663 52.1124 96.2039 52.0054 96.0196C51.7173 95.4834 59.9163 70.957 71.5933 63.7017C73.6513 62.445 76.6683 63.4838 77.9525 64.5939C78.5946 65.1469 80.3686 69.2437 80.5044 72.553C80.6403 75.8622 79.9488 96.1033 79.5125 96.4385Z" fill="#DA83FC"/>
<g opacity="0.1">
<path d="M78.7716 65.9469L68.8398 65.7626C69.3625 65.2976 69.8976 64.8662 70.4367 64.4724L77.9813 64.6106C78.308 65.014 78.5743 65.4643 78.7716 65.9469Z" fill="black"/>
<path d="M79.8129 68.7326L66.1479 68.4771C66.5403 68.0302 66.9409 67.5988 67.3498 67.1827L79.3725 67.4047C79.5289 67.8236 79.6771 68.2718 79.8129 68.7326Z" fill="black"/>
<path d="M80.418 71.5099L63.9541 71.2041C64.2834 70.76 64.6209 70.3244 64.9584 69.9013L80.1875 70.1862C80.2781 70.626 80.3604 71.07 80.418 71.5099Z" fill="black"/>
<path d="M80.5209 74.2746L62.0525 73.9353C62.3365 73.4954 62.6287 73.0598 62.9251 72.6325L80.5209 72.9551C80.525 73.3069 80.525 73.751 80.5209 74.2746Z" fill="black"/>
<path d="M80.5044 75.724C80.5044 76.1429 80.5044 76.5618 80.4839 77.0435L60.3608 76.6707C60.616 76.2308 60.8753 75.7952 61.1429 75.3637L80.5044 75.724Z" fill="black"/>
<path d="M80.4509 78.4887C80.4509 78.916 80.4386 79.3558 80.4139 79.8083L58.8256 79.3894C59.0602 78.9705 59.2948 78.5181 59.5417 78.0824L80.4509 78.4887Z" fill="black"/>
<path d="M80.3686 81.2534C80.3686 81.6723 80.3439 82.1289 80.3316 82.573L57.422 82.1541C57.6319 81.7352 57.8336 81.2869 58.0723 80.8471L80.3686 81.2534Z" fill="black"/>
<path d="M80.2781 84.0181L80.2287 85.3376L56.1173 84.8894C56.3148 84.4705 56.5289 84.0223 56.7223 83.5825L80.2781 84.0181Z" fill="black"/>
<path d="M80.1752 86.7828C80.1752 87.231 80.1422 87.6709 80.1216 88.1024L54.9195 87.6332C55.1006 87.2143 55.2899 86.7703 55.4834 86.3262L80.1752 86.7828Z" fill="black"/>
<path d="M80.0558 89.5476C80.0352 90 80.0146 90.4399 79.9899 90.8629L53.8164 90.3812C53.9769 89.9623 54.1498 89.5434 54.3309 89.0701L80.0558 89.5476Z" fill="black"/>
<path d="M79.9117 92.3123C79.887 92.7814 79.8582 93.2255 79.8294 93.6318L52.8121 93.1249C52.9521 92.706 53.1085 92.2871 53.2772 91.8138L79.9117 92.3123Z" fill="black"/>
<path d="M79.7224 95.077C79.7012 95.5201 79.6406 95.9604 79.5413 96.3924L52.0013 95.8771C52.0879 95.4332 52.202 94.9953 52.3429 94.566L79.7224 95.077Z" fill="black"/>
</g>
<path d="M80.3233 55.2483C80.3233 56.882 81.4635 58.2057 82.8711 58.2057C84.2788 58.2057 85.4189 56.882 85.4189 55.2483C85.4189 53.6146 84.2788 52.316 82.8711 52.316C81.4635 52.316 80.3233 53.6146 80.3233 55.2483Z" fill="#DA83FC"/>
<path d="M82.3319 58.6414C83.8982 58.6414 85.1678 57.1691 85.1678 55.353C85.1678 53.5369 83.8982 52.0647 82.3319 52.0647C80.7657 52.0647 79.496 53.5369 79.496 55.353C79.496 57.1691 80.7657 58.6414 82.3319 58.6414Z" fill="#C7C7C7"/>
<path d="M77.3969 68.5525C75.8493 68.8331 73.3673 66.3072 72.4577 64.3258C72.396 64.1917 73.2315 58.9555 73.2809 57.8999C73.2809 57.6821 79.6936 59.8855 79.6936 59.8855C79.2473 61.1837 78.9598 62.5329 78.8375 63.9027C78.8333 64.0535 78.8951 68.2844 77.3969 68.5525Z" fill="#AD6359"/>
<path d="M78.858 64.3342C78.858 64.3342 78.858 64.3803 78.858 64.4054H78.8251C78.6129 64.4243 78.3994 64.4243 78.1871 64.4054C74.6556 64.1164 73.7131 59.6258 73.4785 57.9041C74.5692 58.1219 79.6895 59.8855 79.6895 59.8855C79.2462 61.1772 78.9601 62.5193 78.8375 63.8818C78.8375 63.932 78.8375 63.9823 78.8375 64.0284C78.8348 64.1308 78.8417 64.2331 78.858 64.3342Z" fill="#263238"/>
<path d="M74.2276 49.5848C73.0339 51.7212 72.7664 58.6162 74.0423 60.4762C75.8945 63.1487 79.6524 64.2211 82.0644 61.7873C84.4064 59.4289 84.5998 50.4352 83.1057 48.6842C80.9078 46.087 75.9892 46.4305 74.2276 49.5848Z" fill="#AD6359"/>
<path d="M79.8088 55.085C79.8088 55.085 79.7718 55.1059 79.7718 55.1227C79.7718 55.5876 79.6812 56.1196 79.2614 56.2579V56.283C79.7718 56.2202 79.8665 55.5039 79.8088 55.085Z" fill="#263238"/>
<path d="M79.4219 54.5697C78.6893 54.4775 78.5658 55.973 79.2449 56.0568C79.9241 56.1406 80.0352 54.666 79.4219 54.5697Z" fill="#263238"/>
<path d="M82.336 55.3572C82.336 55.3572 82.369 55.3824 82.369 55.3991C82.3155 55.8641 82.3319 56.4003 82.7312 56.5888C82.7312 56.5888 82.7312 56.6181 82.7312 56.6139C82.2084 56.5008 82.192 55.7845 82.336 55.3572Z" fill="#263238"/>
<path d="M82.7476 54.909C83.4844 54.909 83.4185 56.4129 82.7476 56.4087C82.0767 56.4045 82.1467 54.9007 82.7476 54.909Z" fill="#263238"/>
<path d="M78.8992 53.8283C79.1009 53.7906 79.2861 53.7277 79.4837 53.6733C79.6977 53.6469 79.8972 53.5498 80.0517 53.3968C80.0937 53.3417 80.1166 53.2739 80.1166 53.2041C80.1166 53.1343 80.0937 53.0665 80.0517 53.0114C79.948 52.9192 79.8221 52.8566 79.6869 52.8301C79.5516 52.8036 79.4119 52.8142 79.282 52.8606C79.0043 52.9163 78.7566 53.0744 78.5864 53.3046C78.5518 53.3583 78.5329 53.4208 78.5318 53.4849C78.5307 53.549 78.5475 53.6122 78.5803 53.667C78.613 53.7218 78.6604 53.766 78.7168 53.7946C78.7733 53.8231 78.8365 53.8348 78.8992 53.8283Z" fill="#263238"/>
<path d="M83.3939 54.2011C83.1997 54.1448 83.0087 54.0776 82.8217 54C82.6116 53.9539 82.4213 53.841 82.2784 53.6775C82.2437 53.6167 82.2297 53.5459 82.2386 53.4762C82.2476 53.4065 82.2789 53.3418 82.3278 53.2921C82.4389 53.2097 82.5695 53.1589 82.7062 53.1449C82.8429 53.131 82.9808 53.1543 83.1057 53.2125C83.3784 53.2876 83.6125 53.4659 83.7602 53.711C83.7919 53.768 83.8064 53.8333 83.8021 53.8986C83.7977 53.964 83.7746 54.0267 83.7356 54.0788C83.6966 54.131 83.6435 54.1704 83.5827 54.1921C83.522 54.2138 83.4563 54.2169 83.3939 54.2011Z" fill="#263238"/>
<path d="M78.9115 59.32C79.0103 59.4373 79.1091 59.5965 79.2738 59.6216C79.4428 59.6336 79.6125 59.6094 79.7718 59.5504C79.7718 59.5504 79.8006 59.5504 79.7718 59.5755C79.6994 59.6607 79.6057 59.7244 79.5006 59.7598C79.3955 59.7952 79.283 59.801 79.175 59.7766C79.0871 59.7458 79.0097 59.6899 78.952 59.6157C78.8944 59.5414 78.8589 59.4519 78.8498 59.3577C78.8622 59.3074 78.8992 59.3032 78.9115 59.32Z" fill="#263238"/>
<path d="M79.5042 57.9711C79.6042 58.1646 79.7424 58.3349 79.9104 58.4712C80.0783 58.6074 80.2722 58.7068 80.4797 58.7628C80.6605 58.8149 80.8476 58.8403 81.0354 58.8383H81.1424H81.2453C81.2697 58.835 81.2925 58.824 81.3103 58.8066C81.328 58.7893 81.3399 58.7666 81.3441 58.7419C81.3481 58.7268 81.3481 58.7109 81.3441 58.6958V58.6539C81.3811 58.3021 81.3935 57.7533 81.3935 57.7533C81.517 57.8329 82.1426 58.1722 82.1508 58.0005C82.2434 56.3888 82.173 54.7718 81.9409 53.1748C81.9409 53.1637 81.9366 53.153 81.9289 53.1451C81.9211 53.1373 81.9107 53.1329 81.8997 53.1329C81.8888 53.1329 81.8784 53.1373 81.8706 53.1451C81.8629 53.153 81.8586 53.1637 81.8586 53.1748C81.7639 54.6618 81.9286 56.1573 81.8586 57.6528C81.6358 57.5237 81.396 57.4278 81.1465 57.3679C81.093 57.3679 81.1465 58.4194 81.1136 58.5785C80.8237 58.5833 80.5358 58.5286 80.2671 58.4178C79.9984 58.307 79.7544 58.1423 79.5495 57.9334C79.5207 57.9041 79.4796 57.9334 79.5042 57.9711Z" fill="#263238"/>
<path d="M80.8461 58.6372C80.6326 58.8766 80.3617 59.0556 80.0599 59.1566C79.8966 59.2098 79.7211 59.2098 79.5578 59.1566C79.1997 59.0309 79.2202 58.6875 79.3108 58.4026C79.3605 58.2556 79.4268 58.1151 79.5084 57.9837C79.8751 58.3401 80.3434 58.5689 80.8461 58.6372Z" fill="#263238"/>
<path d="M80.0599 59.1566C79.8966 59.2098 79.7211 59.2098 79.5578 59.1566C79.1997 59.0309 79.2202 58.6874 79.3108 58.4026C79.5004 58.4253 79.6771 58.5118 79.8128 58.6484C79.9485 58.785 80.0355 58.9639 80.0599 59.1566Z" fill="#FF99BA"/>
<path d="M73.7748 54.6661C75.3471 54.6661 75.6846 51.7757 75.6846 51.7757C75.6846 51.7757 78.3888 51.3568 78.8004 49.2874C78.8004 49.2874 81.3441 50.963 83.3692 50.2593C85.3942 49.5555 85.1349 46.9835 84.9126 46.4892C84.3981 45.3498 82.7106 46.7866 82.7106 46.7866C82.7106 46.7866 80.1875 45.199 77.3022 45.4587C74.9561 45.6723 73.7542 47.9051 73.7542 47.9051C73.7542 47.9051 72.4947 48.1648 72.079 49.057C71.6633 49.9493 72.7746 54.6661 73.7748 54.6661Z" fill="#263238"/>
<path d="M75.0466 51.7966C77.1334 52.1024 78.5329 50.7033 78.8539 48.6716C78.8539 48.6661 78.8561 48.6608 78.86 48.6568C78.8638 48.6529 78.869 48.6507 78.8745 48.6507C78.88 48.6507 78.8852 48.6529 78.8891 48.6568C78.8929 48.6608 78.8951 48.6661 78.8951 48.6716C78.8169 50.5651 77.0552 52.6595 75.0261 51.8888C74.9767 51.872 74.9931 51.7882 75.0466 51.7966Z" fill="#263238"/>
<path d="M73.8119 47.8757C73.8365 47.8757 73.8489 47.9092 73.8119 47.9176C73.2233 48.1899 72.5524 48.3868 72.1367 48.9272C71.6345 49.5765 71.7251 50.4352 71.9103 51.1808C72.1819 52.337 72.7335 53.8408 73.7583 54.532C73.816 54.5739 73.7583 54.6577 73.6966 54.6242C72.4906 53.8827 71.8033 51.9307 71.6386 50.5734C71.4904 49.0445 72.4289 48.1899 73.8119 47.8757Z" fill="#263238"/>
<path d="M81.1012 49.8739C81.5787 50.1862 82.1362 50.3481 82.7036 50.3391C83.2711 50.3302 83.8234 50.1508 84.2911 49.8236C85.4024 48.9858 85.1925 47.5742 84.7357 46.4054C84.711 46.3468 84.7892 46.284 84.8221 46.3426C85.4559 47.3731 85.4848 48.9356 84.571 49.8153C83.6573 50.6949 82.015 50.6908 81.0107 50.0121C80.9119 49.9577 81.0025 49.8153 81.1012 49.8739Z" fill="#263238"/>
<path d="M78.574 57.1208C78.2168 57.0429 77.8881 56.8647 77.6253 56.6064C77.3625 56.3481 77.1761 56.02 77.0872 55.6593C76.9983 55.2987 77.0105 54.9198 77.1224 54.5659C77.2342 54.2119 77.4413 53.8969 77.7202 53.6566C77.999 53.4164 78.3384 53.2604 78.6999 53.2065C79.0614 53.1525 79.4306 53.2028 79.7654 53.3515C80.1003 53.5002 80.3875 53.7414 80.5945 54.0478C80.8015 54.3542 80.92 54.7135 80.9366 55.085C80.9499 55.3496 80.9112 55.6143 80.8228 55.8635C80.7344 56.1128 80.5981 56.3416 80.4218 56.5366C80.2455 56.7316 80.0328 56.8889 79.7961 56.9992C79.5594 57.1096 79.3035 57.1709 79.0433 57.1795C78.8851 57.1798 78.7274 57.1601 78.574 57.1208ZM79.3314 53.489C79.1961 53.4598 79.058 53.4471 78.9198 53.4513C78.4871 53.4654 78.076 53.647 77.7704 53.9591C77.4647 54.2712 77.2876 54.6901 77.2751 55.1306C77.2627 55.571 77.4158 55.9996 77.7032 56.3291C77.9906 56.6586 78.3908 56.864 78.822 56.9035C79.2531 56.943 79.6829 56.8136 80.0235 56.5416C80.3641 56.2697 80.59 55.8757 80.655 55.4401C80.72 55.0045 80.6192 54.5601 80.3732 54.1975C80.1273 53.8349 79.7546 53.5815 79.3314 53.489Z" fill="#455A64"/>
<path d="M83.044 57.5187C82.3113 57.3595 81.8092 56.4547 81.9039 55.4242C81.9398 54.9301 82.1269 54.4599 82.4389 54.0796C82.5658 53.9114 82.7324 53.7787 82.9232 53.6936C83.1141 53.6086 83.3229 53.5741 83.5304 53.5934C83.7378 53.6126 83.9371 53.6849 84.1097 53.8036C84.2823 53.9223 84.4226 54.0835 84.5175 54.2723C84.754 54.7059 84.8532 55.2033 84.8015 55.6965C84.7027 56.7898 83.9783 57.6192 83.1551 57.5438L83.044 57.5187ZM83.6079 53.8576H83.5091C83.3412 53.8506 83.1742 53.885 83.0223 53.958C82.8703 54.0309 82.738 54.1402 82.6365 54.2765C82.3595 54.614 82.1939 55.0317 82.1632 55.4703C82.0767 56.417 82.5377 57.2381 83.1963 57.2967C83.8548 57.3553 84.4558 56.639 84.5422 55.6965C84.5872 55.2613 84.4996 54.8226 84.2911 54.4398C84.225 54.2985 84.1298 54.1733 84.0119 54.0729C83.894 53.9724 83.7562 53.899 83.6079 53.8576Z" fill="#455A64"/>
<path d="M80.8502 55.3195L80.6897 55.085C81.0107 54.8588 81.7228 54.5823 82.1508 55.1478L81.945 55.307C81.5705 54.8211 80.879 55.2986 80.8502 55.3195Z" fill="#455A64"/>
<path d="M72.1284 55.0095L71.9103 54.8671C71.9761 54.7624 72.5688 53.845 73.1451 53.8031C73.7213 53.7612 77.154 54.4273 77.3022 54.4566L77.2528 54.7163C76.2609 54.5278 73.5896 54.0377 73.1615 54.0712C72.7335 54.1047 72.2889 54.7582 72.1284 55.0095Z" fill="#455A64"/>
<path d="M74.4292 55.3028C74.4292 55.3028 73.3797 52.8438 72.3136 53.1831C71.2476 53.5224 71.7374 56.8694 72.7787 57.5271C72.9057 57.6195 73.0496 57.6851 73.202 57.7198C73.3543 57.7545 73.512 57.7577 73.6656 57.7291C73.8192 57.7006 73.9655 57.641 74.096 57.5537C74.2265 57.4665 74.3384 57.3534 74.4251 57.2213L74.4292 55.3028Z" fill="#AD6359"/>
<path d="M72.4783 54.1382C72.4783 54.1382 72.4495 54.1382 72.4783 54.1676C73.2027 54.6577 73.4702 55.4871 73.606 56.3207C73.5762 56.2309 73.5276 56.1488 73.4636 56.0799C73.3996 56.011 73.3218 55.957 73.2354 55.9216C73.149 55.8862 73.0561 55.8702 72.9631 55.8748C72.8701 55.8793 72.7791 55.9042 72.6964 55.9479C72.6899 55.9479 72.6836 55.9505 72.679 55.9552C72.6743 55.96 72.6717 55.9663 72.6717 55.973C72.6717 55.9797 72.6743 55.9861 72.679 55.9908C72.6836 55.9955 72.6899 55.9981 72.6964 55.9981C72.8451 55.9817 72.9951 56.0133 73.1251 56.0885C73.2551 56.1637 73.3586 56.2786 73.4208 56.417C73.5278 56.6444 73.6093 56.8833 73.6637 57.1292C73.6884 57.2088 73.8242 57.2004 73.8118 57.1082C74.0341 56.061 73.5402 54.465 72.4783 54.1382Z" fill="#263238"/>
<path d="M72.8981 53.5183C72.8981 53.5183 72.7005 49.9534 73.746 47.9972C74.9108 45.8189 79.5084 44.4114 82.7106 46.795C82.7106 46.795 77.6109 45.1571 75.129 48.1689C74.0835 49.4256 74.067 53.6146 74.067 53.6146L72.8981 53.5183Z" fill="#C7C7C7"/>
<path d="M73.3303 58.6414C74.8965 58.6414 76.1662 57.1691 76.1662 55.353C76.1662 53.5369 74.8965 52.0647 73.3303 52.0647C71.7641 52.0647 70.4944 53.5369 70.4944 55.353C70.4944 57.1691 71.7641 58.6414 73.3303 58.6414Z" fill="#C7C7C7"/>
<path d="M75.3389 55.2483C75.3389 56.882 74.1988 58.2057 72.7911 58.2057C71.3834 58.2057 70.2433 56.882 70.2433 55.2483C70.2433 53.6146 71.3834 52.316 72.7911 52.316C74.1988 52.316 75.3389 53.6146 75.3389 55.2483Z" fill="#DA83FC"/>
<path d="M117.054 77.5714C117.277 77.8436 117.466 78.1369 117.326 78.2458C117.198 78.3463 116.947 78.1159 116.729 77.8269L117.054 77.5714Z" fill="#263238"/>
<path d="M116.956 74.6307C117.186 74.9155 117.223 76.9262 117.124 77.6593C117.107 77.7357 117.067 77.8044 117.008 77.855C116.949 77.9057 116.876 77.9355 116.799 77.9399C116.083 77.8939 114.136 77.4708 113.918 77.1859C113.762 76.9932 113.408 76.1261 112.98 75.28C112.424 74.1699 103.035 61.9465 102.998 61.7538C102.961 61.5611 103.27 61.2469 103.455 61.0961C103.64 60.9453 104.007 60.6772 104.184 60.761C104.361 60.8448 114.346 72.5571 115.297 73.3279C116.034 73.9353 116.799 74.438 116.956 74.6307Z" fill="#37474F"/>
<path d="M116.96 74.6307C116.983 74.6636 116.999 74.7005 117.009 74.7396C116.572 75.3274 116.071 75.8628 115.515 76.3356C115.066 76.7222 114.566 77.0423 114.029 77.2865C113.98 77.268 113.936 77.2378 113.901 77.1985C113.868 77.1544 113.838 77.1083 113.811 77.0603C114.313 76.8592 115.544 76.2225 116.82 74.5134C116.87 74.5482 116.917 74.5874 116.96 74.6307Z" fill="#A6A6A6"/>
<path d="M111.283 70.5929L111.118 70.7313C110.99 70.8387 110.972 71.0314 111.077 71.1618L113.861 74.6024C113.966 74.7328 114.156 74.7515 114.284 74.6441L114.449 74.5056C114.577 74.3983 114.595 74.2056 114.49 74.0752L111.706 70.6345C111.601 70.5042 111.411 70.4855 111.283 70.5929Z" fill="#263238"/>
<path d="M112.259 71.8974L112.167 71.9747C112.091 72.0379 112.08 72.1514 112.143 72.2282L113.927 74.4336C113.989 74.5104 114.101 74.5214 114.176 74.4582L114.268 74.3809C114.344 74.3177 114.355 74.2042 114.292 74.1274L112.508 71.922C112.446 71.8452 112.334 71.8342 112.259 71.8974Z" fill="#A6A6A6"/>
<path d="M113.658 73.3373L113.292 73.6434L113.381 73.7534L113.747 73.4472L113.658 73.3373Z" fill="#263238"/>
<path d="M68.8068 70.2029C71.3505 77.4582 76.5078 84.8434 80.7926 85.5597C85.0773 86.276 96.1081 81.4294 99.4832 79.7957C100.784 79.1673 96.4209 67.7985 95.0338 68.4854C92.6836 69.65 82.4883 75.6067 81.6651 75.3721C81.1506 75.2297 76.6519 71.7612 72.8693 68.1336C67.9301 63.4126 68.0124 67.9451 68.8068 70.2029Z" fill="#AD6359"/>
<path d="M113.543 66.4664C113.725 67.9158 110.172 68.0708 110.172 68.0708C110.722 68.3551 111.159 68.8242 111.407 69.3987C111.819 70.4334 110.378 71.5183 110.378 71.5183C110.894 71.9317 111.276 72.4937 111.473 73.1311C111.753 74.1615 110.469 75.4643 110.469 75.4643C110.736 76.1106 110.766 76.8328 110.555 77.5001C109.917 79.2595 107.164 79.8418 105.418 80.2314C103.673 80.6209 98.3554 80.0596 97.3347 80.0554L94.7828 68.6656C94.7828 68.6656 102.13 64.6526 104.25 64.4766C106.044 64.3594 113.268 64.2504 113.543 66.4664Z" fill="#AD6359"/>
<path d="M110.139 68.033C108.209 67.7147 106.205 67.8655 104.274 68.033C104.265 68.033 104.257 68.0366 104.251 68.0428C104.245 68.0491 104.241 68.0577 104.241 68.0665C104.241 68.0754 104.245 68.084 104.251 68.0902C104.257 68.0965 104.265 68.1001 104.274 68.1001C106.192 67.9116 108.205 68.2383 110.127 68.1294C110.138 68.1279 110.148 68.1229 110.156 68.1151C110.163 68.1072 110.168 68.097 110.17 68.086C110.171 68.075 110.169 68.0639 110.163 68.0543C110.158 68.0447 110.15 68.0372 110.139 68.033Z" fill="#263238"/>
<path d="M110.325 71.3759C109.88 71.3478 109.433 71.3788 108.995 71.468C108.526 71.5309 108.057 71.6063 107.592 71.6858C106.661 71.845 105.731 72.0293 104.809 72.2388C104.768 72.2388 104.772 72.3142 104.809 72.31C105.74 72.1508 106.674 72.0042 107.608 71.8911C108.077 71.8283 108.542 71.7738 109.012 71.7235C109.458 71.7022 109.901 71.632 110.333 71.5141C110.348 71.5094 110.361 71.4997 110.37 71.4866C110.379 71.4735 110.383 71.4576 110.382 71.4417C110.381 71.4257 110.375 71.4105 110.365 71.3986C110.354 71.3867 110.34 71.3786 110.325 71.3759Z" fill="#263238"/>
<path d="M110.44 75.4685C110.037 75.4486 109.633 75.4982 109.246 75.6151C108.824 75.6989 108.4 75.7785 107.974 75.8539C107.127 76.0089 106.279 76.1639 105.427 76.2728C105.381 76.2728 105.39 76.3482 105.427 76.3398C106.295 76.2183 107.164 76.1094 108.032 75.9796L109.308 75.7785C109.7 75.7537 110.085 75.6587 110.444 75.4978C110.447 75.4931 110.447 75.4878 110.447 75.4825C110.446 75.4772 110.444 75.4723 110.44 75.4685Z" fill="#263238"/>
<path d="M91.7493 69.6584L96.8037 82.0535C96.8037 82.0535 84.1265 87.1054 80.2122 85.9199C76.2979 84.7345 70.8977 76.7042 69.1443 71.9204C67.3909 67.1366 67.8437 63.0943 73.8324 68.4813C79.8212 73.8683 81.4593 75.0202 81.838 74.949C82.2167 74.8778 91.7493 69.6584 91.7493 69.6584Z" fill="#DA83FC"/>
<g opacity="0.1">
<path d="M73.9847 68.6237L68.2841 68.519C68.2259 68.0811 68.2259 67.6373 68.2841 67.1995L72.363 67.2749C72.8076 67.6044 73.2946 68.0079 73.8242 68.4855L73.9847 68.6237Z" fill="black"/>
<path d="M75.6393 70.1024C76.1881 70.5967 76.6999 71.0449 77.1746 71.4471L68.9221 71.2963C68.7739 70.8397 68.6463 70.3957 68.5393 69.9684L75.6393 70.1024Z" fill="black"/>
<path d="M92.5972 71.7361L88.0943 71.6523L90.4404 70.3747L92.0539 70.404L92.5972 71.7361Z" fill="black"/>
<path d="M78.9074 72.9258C79.6318 73.529 80.1875 73.9689 80.6114 74.2789L70.0745 74.082C69.8523 73.6212 69.6629 73.1772 69.4695 72.7499L78.9074 72.9258Z" fill="black"/>
<path d="M93.7332 74.5218L83.114 74.3249C83.7643 73.9856 84.6039 73.5332 85.5095 73.0472L93.1899 73.1897L93.7332 74.5218Z" fill="black"/>
<path d="M94.8692 77.3116L71.5975 76.8927C71.3258 76.4445 71.0706 75.9963 70.8278 75.5565L94.3259 75.9754L94.8692 77.3116Z" fill="black"/>
<path d="M96.0052 80.0973L73.4332 79.6784C73.1162 79.2595 72.8117 78.7945 72.5153 78.3421L95.4619 78.761L96.0052 80.0973Z" fill="black"/>
<path d="M96.8037 82.0577C96.8037 82.0577 95.9805 82.3803 94.7457 82.8411L75.697 82.4892C75.3142 82.0703 74.9355 81.6179 74.561 81.1487L96.6185 81.5676L96.8037 82.0577Z" fill="black"/>
<path d="M90.6915 84.2108C89.255 84.6632 87.7115 85.1073 86.2298 85.4675L78.8992 85.3293C78.2701 84.9358 77.6789 84.4828 77.1334 83.9763L90.6915 84.2108Z" fill="black"/>
</g>
<path d="M96.6679 82.0494C94.754 82.7657 92.84 83.461 90.8808 84.0433C88.9216 84.6256 83.9125 85.9074 81.8545 85.9828C80.8946 85.9795 79.9549 85.7023 79.142 85.1827C78.3203 84.6732 77.5687 84.0548 76.9071 83.3438C76.2073 82.6316 75.5447 81.8818 74.8902 81.1278C74.1411 80.29 73.4208 79.3894 72.7005 78.5055C71.9802 77.6216 71.1858 76.6414 70.4944 75.6654C70.4697 75.6319 70.4162 75.6654 70.4367 75.6989C71.0418 76.5702 71.618 77.4582 72.2395 78.317C72.4947 78.6689 72.7582 79.0165 73.0257 79.36C72.8858 79.2553 72.7458 79.1464 72.6141 79.0459C72.079 78.6689 71.5275 78.3086 71.013 77.9023C70.9759 77.873 70.9348 77.9274 70.9718 77.9525C71.4987 78.3337 71.9843 78.7652 72.4741 79.1841C72.717 79.3894 72.9598 79.603 73.2068 79.7873L73.5608 80.0554L73.6102 80.0931L74.1576 80.7843C74.8161 81.6221 75.4912 82.4054 76.1868 83.1846C76.8273 83.933 77.5495 84.6048 78.3394 85.1869C79.0984 85.7825 79.9909 86.1769 80.9366 86.3347C82.8588 86.5609 88.0408 85.2581 90.0617 84.6591C92.3387 84.0169 94.5705 83.2192 96.742 82.2714C96.8654 82.2127 96.8078 81.9949 96.6679 82.0494Z" fill="#263238"/>
<path d="M83.6202 74.0233C83.3362 74.1573 82.336 74.7815 81.9738 74.8108C81.6441 74.8083 81.3276 74.678 81.0889 74.4464C80.8172 74.2286 80.5456 74.0023 80.2657 73.7887L79.2326 72.9886L79.1832 72.9174C79.1338 72.842 79.0803 72.7666 79.0268 72.6954L78.6934 72.2765C78.4711 72 78.2406 71.7319 78.0143 71.4596C77.9855 71.4303 77.9402 71.4597 77.969 71.5099C78.1954 71.7906 78.4053 72.088 78.6152 72.3854L78.8169 72.6786L78.6522 72.553C78.3806 72.3435 77.5204 71.7152 77.0059 71.2963C76.9688 71.267 76.9277 71.2963 76.9688 71.3465C77.4504 71.7277 78.5164 72.6786 78.8128 72.9342C79.389 73.4368 79.9694 73.9311 80.5621 74.4129C81.0107 74.7731 81.4923 75.2507 82.1138 75.0957C82.6688 74.8397 83.1912 74.5162 83.6696 74.1322C83.7314 74.061 83.6655 74.0024 83.6202 74.0233Z" fill="#263238"/>
<path d="M92.3338 76.7587C91.9798 75.8539 91.6162 74.9532 91.243 74.0568C90.8602 73.1352 90.4198 72.2346 90.0412 71.3004C90.0412 71.2627 89.9671 71.3004 89.9835 71.3298C90.354 72.2555 90.6256 73.2274 90.9673 74.1615C91.3089 75.0956 91.6423 75.9795 91.9962 76.8801C92.7124 78.6982 93.4204 80.5371 94.2559 82.3007C94.2631 82.3095 94.2728 82.3158 94.2837 82.3187C94.2946 82.3216 94.3062 82.3209 94.3167 82.3167C94.3272 82.3125 94.3361 82.3051 94.3422 82.2954C94.3483 82.2858 94.3512 82.2744 94.3506 82.263C93.7661 80.4031 93.0376 78.5767 92.3338 76.7587Z" fill="#263238"/>
<path d="M166.829 91.6127H19.2545V96.9537H166.829V91.6127Z" fill="#37474F"/>
<path d="M166.829 94.8676H19.2545V96.9537H166.829V94.8676Z" fill="#455A64"/>
<path d="M24.5477 171.894H22.4239L28.5978 96.9537H34.0145L24.5477 171.894Z" fill="#455A64"/>
<path d="M34.0103 96.9537L33.3765 101.968H28.1862L28.5978 96.9537H34.0103Z" fill="#263238"/>
<path d="M161.532 171.894H163.655L157.481 96.9537H152.065L161.532 171.894Z" fill="#455A64"/>
<path d="M152.069 96.9537L152.703 101.968H157.893L157.481 96.9537H152.069Z" fill="#263238"/>
<path d="M142.763 91.6127H106.11L115.013 66.7177H151.666L142.763 91.6127Z" fill="#263238"/>
<path d="M144.063 91.6127H107.406L116.309 66.7177H152.966L144.063 91.6127Z" fill="#37474F"/>
<path d="M152.966 66.7177L144.059 91.6127H129.238L149.534 66.7177H152.966Z" fill="#263238"/>
<path d="M150.591 91.6127H146.134L142.129 84.5543H146.591L150.591 91.6127Z" fill="#455A64"/>
<path d="M142.129 84.5543V91.6127H146.134L142.129 84.5543Z" fill="#37474F"/>
<path d="M125.57 91.6127H121.109L117.104 84.5543H121.565L125.57 91.6127Z" fill="#455A64"/>
<path d="M117.104 84.5543V91.6127H121.109L117.104 84.5543Z" fill="#263238"/>
<path d="M29.351 89.0365L28.6102 88.936L32.4257 59.4163L46.2677 51.6835L46.6258 52.3495L33.1172 59.898L29.351 89.0365Z" fill="#263238"/>
<path d="M31.7095 59.6551C31.7095 59.8672 31.7713 60.0745 31.8871 60.2509C32.0029 60.4272 32.1674 60.5647 32.36 60.6458C32.5525 60.727 32.7644 60.7482 32.9688 60.7068C33.1732 60.6655 33.3609 60.5633 33.5083 60.4134C33.6556 60.2634 33.756 60.0723 33.7966 59.8643C33.8373 59.6563 33.8164 59.4406 33.7367 59.2447C33.6569 59.0487 33.5219 58.8813 33.3486 58.7634C33.1753 58.6456 32.9716 58.5827 32.7632 58.5827C32.4837 58.5827 32.2157 58.6957 32.0181 58.8968C31.8205 59.0979 31.7095 59.3707 31.7095 59.6551Z" fill="#9F62FB"/>
<path d="M45.2428 52.0144C45.2428 52.2265 45.3046 52.4338 45.4204 52.6102C45.5362 52.7865 45.7008 52.924 45.8933 53.0051C46.0858 53.0863 46.2977 53.1075 46.5021 53.0662C46.7065 53.0248 46.8942 52.9227 47.0416 52.7727C47.189 52.6227 47.2893 52.4316 47.33 52.2236C47.3706 52.0156 47.3498 51.8 47.27 51.604C47.1903 51.4081 47.0552 51.2406 46.8819 51.1227C46.7087 51.0049 46.5049 50.942 46.2965 50.942C46.0171 50.942 45.7491 51.055 45.5515 51.2561C45.3539 51.4572 45.2428 51.73 45.2428 52.0144Z" fill="#9F62FB"/>
<path d="M53.3801 52.9988L48.4286 58.6246L46.1442 55.751L44.753 54L48.4657 49.7859L50.3261 51.0007L53.3801 52.9988Z" fill="#9F62FB"/>
<path opacity="0.1" d="M53.3801 52.9988L48.4286 58.6246L46.1442 55.751L50.3261 51.0007L53.3801 52.9988Z" fill="black"/>
<path d="M60.5584 55.7761L51.9272 65.5825L46.1895 58.1345L52.664 50.787L60.5584 55.7761Z" fill="#9F62FB"/>
<path d="M35.7637 91.6127H22.9836L23.7698 87.5285H34.9776L35.7637 91.6127Z" fill="#9F62FB"/>
<path d="M109.814 79.9633L108.905 91.6128H102.603L101.693 79.9633H109.814Z" fill="#B06CFB"/>
<path d="M110.358 78.9118H101.101V80.6083H110.358V78.9118Z" fill="#455A64"/>
<path d="M109.72 78.9118H101.735L102.2 77.0016H109.255L109.72 78.9118Z" fill="#37474F"/>
<path d="M107.937 85.8906C107.937 87.4029 106.958 88.6302 105.752 88.6302C104.546 88.6302 103.566 87.4029 103.566 85.8906C103.566 84.3784 104.562 83.1511 105.752 83.1511C106.941 83.1511 107.937 84.3784 107.937 85.8906Z" fill="white"/>
<path d="M48.0499 114.677C45.3581 114.677 43.226 113.839 41.7072 112.214C38.4762 108.733 38.826 102.579 39.0071 99.266C39.0359 98.7089 39.0648 98.2313 39.0648 97.8962C39.0648 96.162 38.5997 94.7922 38.1099 93.3386C37.7254 92.3026 37.4361 91.2327 37.2455 90.1424C36.9615 88.2867 37.7106 85.7859 38.5626 84.5334C39.2171 83.5699 40.6453 83.7542 40.707 83.7626L40.5959 84.6004C40.3242 84.5627 39.5422 84.5669 39.2376 85.0193C38.4885 86.1252 37.8176 88.4501 38.0563 90.0461C38.2402 91.0857 38.5157 92.1063 38.8795 93.0956C39.3693 94.5492 39.8797 96.053 39.8797 97.9255C39.8797 98.2816 39.8509 98.7633 39.818 99.3414C39.641 102.525 39.3076 108.448 42.2876 111.67C43.6458 113.131 45.5804 113.869 48.0499 113.869C49.9145 113.869 51.3427 113.312 52.454 112.16C55.2653 109.227 55.0883 102.944 54.973 98.8178C54.936 97.5401 54.9072 96.4384 54.973 95.6216C55.1133 94.1743 55.4341 92.7512 55.9279 91.3865C56.5741 89.3633 57.1339 87.6165 56.3395 85.3796C56.2377 85.1131 56.052 84.8884 55.8115 84.7407C55.571 84.5929 55.2892 84.5303 55.0101 84.5627L54.9072 83.7249C55.3722 83.6668 55.843 83.77 56.2433 84.0178C56.6436 84.2656 56.9501 84.6435 57.1133 85.0905C57.9941 87.6039 57.3685 89.5602 56.7017 91.6379C56.2294 92.9374 55.9224 94.2931 55.788 95.6719C55.7345 96.4468 55.7633 97.5276 55.788 98.7843C55.9073 103.065 56.0926 109.533 53.0344 112.738C51.7996 114.02 50.1203 114.677 48.0499 114.677Z" fill="#A6A6A6"/>
<path d="M55.0677 82.4808H40.2996V91.6128H55.0677V82.4808Z" fill="#263238"/>
<path d="M44.5555 82.087H41.9542V82.4808H44.5555V82.087Z" fill="#263238"/>
<path d="M44.078 81.7017H42.4357V82.0954H44.078V81.7017Z" fill="#263238"/>
<path d="M52.2359 82.4808H48.3051L48.7167 81.2493H51.8243L52.2359 82.4808Z" fill="#263238"/>
<path d="M51.2645 81.7436H49.2806V82.4808H51.2645V81.7436Z" fill="white"/>
<path d="M39.9209 83.6914V84.4161L40.2954 84.5502V84.8601L39.6822 84.6465V83.4652L40.2954 83.2516V83.5616L39.9209 83.6914Z" fill="#263238"/>
<path d="M55.4464 83.6914V84.4161L55.0677 84.5502V84.8601L55.681 84.6465V83.4652L55.0677 83.2516V83.5616L55.4464 83.6914Z" fill="#263238"/>
<path d="M44.5555 83.9386C44.8299 86.1121 44.8299 88.3124 44.5555 90.486C44.2811 88.3124 44.2811 86.1121 44.5555 83.9386Z" fill="#455A64"/>
<path d="M50.2685 90.9384C49.5439 90.9384 48.8357 90.7197 48.2333 90.3101C47.6309 89.9004 47.1613 89.3181 46.8841 88.6369C46.6068 87.9557 46.5343 87.206 46.6756 86.4828C46.817 85.7596 47.1659 85.0953 47.6782 84.574C48.1905 84.0526 48.8432 83.6975 49.5538 83.5536C50.2644 83.4098 51.0009 83.4836 51.6703 83.7658C52.3397 84.048 52.9118 84.5258 53.3143 85.1389C53.7168 85.752 53.9317 86.4728 53.9317 87.2102C53.9317 88.199 53.5457 89.1472 52.8587 89.8464C52.1718 90.5456 51.24 90.9384 50.2685 90.9384ZM50.2685 83.6956C49.5845 83.6956 48.9158 83.9021 48.3472 84.2889C47.7785 84.6758 47.3354 85.2256 47.0738 85.8688C46.8123 86.512 46.744 87.2197 46.8778 87.9024C47.0115 88.5851 47.3412 89.212 47.8252 89.704C48.3091 90.1959 48.9255 90.5307 49.5965 90.666C50.2674 90.8013 50.9627 90.731 51.5944 90.464C52.2261 90.1971 52.7658 89.7454 53.1452 89.1662C53.5246 88.587 53.7267 87.9063 53.7259 87.2102C53.7259 86.7483 53.6364 86.2909 53.4626 85.8643C53.2888 85.4376 53.0341 85.0499 52.713 84.7235C52.3919 84.3971 52.0107 84.1383 51.5912 83.962C51.1718 83.7856 50.7223 83.6951 50.2685 83.6956Z" fill="#37474F"/>
<path d="M53.0879 87.2102C53.0887 87.7779 52.9241 88.3331 52.6147 88.8055C52.3054 89.2779 51.8654 89.6463 51.3503 89.8642C50.8352 90.082 50.2681 90.1394 49.7209 90.0292C49.1737 89.9189 48.671 89.646 48.2763 89.2448C47.8815 88.8437 47.6126 88.3324 47.5035 87.7757C47.3944 87.219 47.45 86.6418 47.6632 86.1172C47.8765 85.5927 48.2379 85.1443 48.7016 84.8288C49.1654 84.5133 49.7106 84.3449 50.2685 84.3449C51.0155 84.3449 51.732 84.6466 52.2606 85.1839C52.7893 85.7211 53.0868 86.4499 53.0879 87.2102Z" fill="#455A64"/>
<path d="M54.1704 83.5532C54.3341 83.5532 54.4668 83.4182 54.4668 83.2516C54.4668 83.085 54.3341 82.95 54.1704 82.95C54.0067 82.95 53.8741 83.085 53.8741 83.2516C53.8741 83.4182 54.0067 83.5532 54.1704 83.5532Z" fill="#FFC727"/>
<path d="M136.441 52.3454L128.283 60.5893C128.013 60.8385 127.659 60.9721 127.294 60.9623C126.93 60.9525 126.583 60.8 126.326 60.5366C126.07 60.2731 125.923 59.9191 125.916 59.5481C125.909 59.1771 126.043 58.8178 126.291 58.545L134.444 50.3011L136.441 52.3454Z" fill="#EBEBEB"/>
<path d="M136.441 52.3454L134.123 54.6912L132.58 52.1862L134.444 50.3011L136.441 52.3454Z" fill="#C7C7C7"/>
<path d="M125.751 61.1171C125.684 61.0487 125.647 60.9561 125.647 60.8594C125.647 60.7628 125.684 60.6702 125.751 60.6018L127.595 58.7377L128.102 59.2572L126.258 61.1213C126.19 61.189 126.099 61.2266 126.004 61.2258C125.909 61.225 125.818 61.1859 125.751 61.1171Z" fill="#EBEBEB"/>
<path d="M128.102 59.2739L126.258 61.1422C126.225 61.1765 126.185 61.2038 126.142 61.2224C126.098 61.2411 126.052 61.2506 126.005 61.2506C125.957 61.2506 125.911 61.2411 125.867 61.2224C125.824 61.2038 125.784 61.1765 125.751 61.1422C125.684 61.0739 125.647 60.9812 125.647 60.8846C125.647 60.788 125.684 60.6953 125.751 60.627L126.064 60.3128L127.595 58.7629L128.102 59.2739Z" fill="#EBEBEB"/>
<path d="M137.043 52.7613L134.059 49.7027L132.642 51.1343L135.626 54.1928L137.043 52.7613Z" fill="#DB84FC"/>
<path d="M135.737 53.0575L133.741 51.0133L135.428 49.3084C135.694 49.0388 136.053 48.8873 136.428 48.8873C136.803 48.8873 137.163 49.0388 137.428 49.3084C137.56 49.4419 137.665 49.6005 137.736 49.7752C137.807 49.9499 137.844 50.1371 137.844 50.3263C137.844 50.5154 137.807 50.7027 137.736 50.8774C137.665 51.0521 137.56 51.2107 137.428 51.3442L135.737 53.0575Z" fill="#DB84FC"/>
<path d="M131.316 57.5272L128.287 60.5893C128.066 60.8138 127.777 60.9567 127.467 60.9954C127.157 61.0341 126.843 60.9664 126.575 60.8029L126.262 61.1213C126.229 61.1556 126.189 61.1829 126.146 61.2015C126.102 61.2201 126.056 61.2297 126.009 61.2297C125.961 61.2297 125.915 61.2201 125.871 61.2015C125.828 61.1829 125.788 61.1556 125.756 61.1213C125.688 61.053 125.651 60.9603 125.651 60.8637C125.651 60.767 125.688 60.6744 125.756 60.606L126.068 60.2919C125.911 60.0173 125.847 59.6973 125.887 59.382C125.927 59.0666 126.069 58.7737 126.291 58.5493L127.315 57.5146L131.316 57.5272Z" fill="#DB84FC"/>
<path d="M125.871 64.6484C124.846 64.6484 125.196 62.5874 125.871 61.9005C126.566 62.6251 126.896 64.6484 125.871 64.6484Z" fill="#DB84FC"/>
<path d="M110.304 59.4205H93.0829V36.9258H105.871L110.304 41.2111V59.4205Z" fill="#DBDBDB"/>
<path d="M110.304 52.8397H93.0829V59.4247H110.304V52.8397Z" fill="#EBEBEB"/>
<path d="M93.0829 52.8397L98.5324 47.5281L103.472 52.8397H93.0829Z" fill="#DB84FC"/>
<path d="M100.08 52.8397L106.55 44.5204L110.304 49.3503V52.8397H100.08Z" fill="#DB84FC"/>
<path d="M98.7218 44.0261C98.7218 44.4147 98.6085 44.7945 98.3964 45.1176C98.1843 45.4407 97.8828 45.6925 97.5301 45.8412C97.1774 45.9899 96.7892 46.0288 96.4148 45.953C96.0403 45.8772 95.6963 45.69 95.4264 45.4153C95.1564 45.1405 94.9725 44.7905 94.8981 44.4094C94.8236 44.0283 94.8618 43.6332 95.0079 43.2743C95.154 42.9153 95.4014 42.6084 95.7189 42.3926C96.0363 42.1767 96.4096 42.0615 96.7914 42.0615C97.3033 42.0615 97.7943 42.2685 98.1564 42.6369C98.5184 43.0053 98.7218 43.505 98.7218 44.0261Z" fill="white"/>
<path d="M105.871 36.9258L110.304 41.2111H105.871V36.9258Z" fill="#EBEBEB"/>
<path d="M97.0836 56.8611C97.1131 56.8517 97.145 56.8543 97.1726 56.8684C97.2003 56.8824 97.2215 56.9068 97.2318 56.9365C97.2974 57.1537 97.4377 57.3396 97.6269 57.4603C97.8161 57.5809 98.0416 57.6283 98.2623 57.5938C98.483 57.5592 98.6841 57.445 98.8289 57.2721C98.9737 57.0991 99.0525 56.8789 99.051 56.6516V54.4441C99.051 54.4118 99.0636 54.3809 99.086 54.3582C99.1084 54.3354 99.1387 54.3226 99.1704 54.3226C99.2021 54.3226 99.2324 54.3354 99.2548 54.3582C99.2772 54.3809 99.2898 54.4118 99.2898 54.4441V56.6516C99.2886 56.9354 99.1881 57.2095 99.0064 57.4247C98.8246 57.6399 98.5735 57.7822 98.2981 57.826C98.0226 57.8699 97.7408 57.8125 97.5031 57.6641C97.2655 57.5156 97.0876 57.2859 97.0013 57.0161C96.9933 56.9844 96.9974 56.9509 97.0127 56.9222C97.0279 56.8935 97.0532 56.8717 97.0836 56.8611Z" fill="#A6A6A6"/>
<path d="M100.224 54.4441C100.225 54.4122 100.238 54.3819 100.26 54.3593C100.282 54.3368 100.312 54.3236 100.343 54.3226H101.319C101.569 54.339 101.804 54.4519 101.976 54.6383C102.148 54.8246 102.243 55.0704 102.243 55.3258C102.243 55.5812 102.148 55.8271 101.976 56.0134C101.804 56.1997 101.569 56.3126 101.319 56.3291H100.467V57.7115C100.466 57.744 100.452 57.7749 100.429 57.7976C100.406 57.8203 100.376 57.8329 100.343 57.8329C100.312 57.8329 100.281 57.8201 100.259 57.7974C100.237 57.7746 100.224 57.7437 100.224 57.7115V54.4441ZM101.319 56.0945C101.517 56.0912 101.706 56.0091 101.845 55.8659C101.984 55.7226 102.063 55.5295 102.064 55.3279C102.063 55.1272 101.984 54.935 101.845 54.793C101.705 54.6511 101.516 54.5708 101.319 54.5697H100.467V56.0945H101.319Z" fill="#A6A6A6"/>
<path d="M104.719 56.2579C104.703 56.2585 104.687 56.2557 104.672 56.2499C104.657 56.244 104.643 56.2352 104.632 56.2238C104.62 56.2125 104.611 56.1989 104.605 56.1839C104.598 56.1689 104.595 56.1527 104.595 56.1364C104.595 56.1031 104.608 56.0711 104.631 56.0476C104.655 56.024 104.686 56.0108 104.719 56.0108H105.797C105.827 56.0148 105.855 56.0296 105.876 56.0527C105.896 56.0757 105.908 56.1054 105.908 56.1364V57.3638C105.903 57.3984 105.887 57.4305 105.863 57.456C105.544 57.7076 105.151 57.8433 104.748 57.8413C104.283 57.8413 103.837 57.6533 103.508 57.3187C103.179 56.984 102.994 56.5301 102.994 56.0568C102.994 55.5836 103.179 55.1297 103.508 54.795C103.837 54.4603 104.283 54.2723 104.748 54.2723C105.154 54.2727 105.549 54.4129 105.867 54.6703C105.888 54.694 105.899 54.7245 105.899 54.7562C105.899 54.7878 105.888 54.8183 105.867 54.842C105.846 54.8663 105.816 54.8819 105.785 54.8857C105.753 54.8896 105.721 54.8815 105.694 54.863C105.422 54.6385 105.082 54.5171 104.731 54.5195C104.33 54.5195 103.946 54.6815 103.663 54.9698C103.38 55.2581 103.221 55.6491 103.221 56.0568C103.221 56.4646 103.38 56.8556 103.663 57.1439C103.946 57.4322 104.33 57.5942 104.731 57.5942C105.059 57.5946 105.379 57.489 105.645 57.2926V56.2579H104.719Z" fill="#A6A6A6"/>
<path d="M54.7384 11.8799H47.2638V35.8031H54.7384V11.8799Z" fill="#C7C7C7"/>
<path d="M53.9111 12.6381H48.0952V15.9474H53.9111V12.6381Z" fill="#DB84FC"/>
<path d="M53.9111 16.6512H48.0952V19.9605H53.9111V16.6512Z" fill="#DB84FC"/>
<path d="M53.9111 20.66H48.0952V23.9693H53.9111V20.66Z" fill="#DB84FC"/>
<path d="M53.9111 24.6689H48.0952V27.9782H53.9111V24.6689Z" fill="#DB84FC"/>
<path d="M53.9111 28.6819H48.0952V31.9912H53.9111V28.6819Z" fill="#DB84FC"/>
<path opacity="0.3" d="M53.9111 12.6381H48.0952V15.9474H53.9111V12.6381Z" fill="black"/>
<path opacity="0.1" d="M53.9111 16.6512H48.0952V19.9605H53.9111V16.6512Z" fill="black"/>
<path opacity="0.2" d="M53.9111 24.6689H48.0952V27.9782H53.9111V24.6689Z" fill="white"/>
<path opacity="0.4" d="M53.9111 28.6819H48.0952V31.9912H53.9111V28.6819Z" fill="white"/>
<path d="M51.4662 34.3119C51.4662 34.4502 51.4259 34.5855 51.3504 34.7005C51.2748 34.8156 51.1675 34.9052 51.0419 34.9582C50.9163 35.0111 50.7781 35.025 50.6447 34.998C50.5114 34.971 50.3889 34.9044 50.2928 34.8065C50.1967 34.7087 50.1312 34.5841 50.1047 34.4484C50.0782 34.3127 50.0918 34.172 50.1438 34.0442C50.1958 33.9163 50.2839 33.8071 50.397 33.7302C50.51 33.6533 50.6429 33.6123 50.7788 33.6123C50.8693 33.6118 50.9589 33.6295 51.0425 33.6644C51.1262 33.6994 51.2022 33.7509 51.2661 33.816C51.33 33.881 51.3806 33.9584 51.415 34.0435C51.4493 34.1286 51.4667 34.2199 51.4662 34.3119Z" fill="#263238"/>
<path d="M69.2186 21.3727L63.9332 15.9937L47.3117 32.9099L52.5971 38.289L69.2186 21.3727Z" fill="#DBDBDB"/>
<path d="M68.1089 21.3084L63.9964 17.123L61.6972 19.4631L65.8096 23.6484L68.1089 21.3084Z" fill="#DB84FC"/>
<path d="M65.3206 24.1443L61.2082 19.9589L58.9089 22.2989L63.0214 26.4843L65.3206 24.1443Z" fill="#DB84FC"/>
<path d="M62.5365 26.9802L58.424 22.7949L56.1248 25.1349L60.2372 29.3203L62.5365 26.9802Z" fill="#DB84FC"/>
<path d="M59.7482 29.8162L55.6358 25.6308L53.3365 27.9708L57.449 32.1562L59.7482 29.8162Z" fill="#DB84FC"/>
<path d="M56.96 32.6521L52.8475 28.4667L50.5483 30.8068L54.6607 34.9921L56.96 32.6521Z" fill="#DB84FC"/>
<path opacity="0.3" d="M68.1089 21.3084L63.9964 17.123L61.6972 19.4631L65.8096 23.6484L68.1089 21.3084Z" fill="black"/>
<path opacity="0.1" d="M65.3206 24.1443L61.2082 19.9589L58.9089 22.2989L63.0214 26.4843L65.3206 24.1443Z" fill="black"/>
<path opacity="0.2" d="M59.7482 29.8162L55.6358 25.6308L53.3365 27.9708L57.449 32.1562L59.7482 29.8162Z" fill="white"/>
<path opacity="0.4" d="M56.96 32.6521L52.8475 28.4667L50.5483 30.8068L54.6607 34.9921L56.96 32.6521Z" fill="white"/>
<path d="M51.3221 34.8774C51.2261 34.9753 51.1036 35.0421 50.9702 35.0691C50.8369 35.0962 50.6986 35.0824 50.5729 35.0295C50.4473 34.9766 50.3399 34.8869 50.2643 34.7719C50.1887 34.6568 50.1484 34.5215 50.1484 34.3831C50.1484 34.2447 50.1887 34.1094 50.2643 33.9943C50.3399 33.8793 50.4473 33.7896 50.5729 33.7367C50.6986 33.6838 50.8369 33.67 50.9702 33.697C51.1036 33.7241 51.2261 33.7909 51.3221 33.8888C51.4508 34.02 51.5231 34.1977 51.5231 34.3831C51.5231 34.5684 51.4508 34.7462 51.3221 34.8774Z" fill="#263238"/>
<path d="M72.8652 38.5051V30.8979H49.3588V38.5051H72.8652Z" fill="#EBEBEB"/>
<path d="M72.1202 37.663V31.744H68.8686V37.663H72.1202Z" fill="#DB84FC"/>
<path d="M68.1771 37.663V31.744H64.9255V37.663H68.1771Z" fill="#DB84FC"/>
<path d="M64.2381 37.663V31.744H60.9865V37.663H64.2381Z" fill="#DB84FC"/>
<path d="M60.2991 37.663V31.744H57.0475V37.663H60.2991Z" fill="#DB84FC"/>
<path d="M56.356 37.663V31.744H53.1044V37.663H56.356Z" fill="#DB84FC"/>
<path opacity="0.3" d="M72.1202 37.663V31.744H68.8686V37.663H72.1202Z" fill="black"/>
<path opacity="0.1" d="M68.1771 37.663V31.744H64.9255V37.663H68.1771Z" fill="black"/>
<path opacity="0.2" d="M60.2991 37.663V31.744H57.0475V37.663H60.2991Z" fill="white"/>
<path opacity="0.4" d="M56.356 37.663V31.744H53.1044V37.663H56.356Z" fill="white"/>
<path d="M50.8241 35.179C50.6882 35.179 50.5553 35.1379 50.4422 35.0611C50.3292 34.9842 50.2411 34.8749 50.1891 34.7471C50.137 34.6193 50.1234 34.4786 50.15 34.3429C50.1765 34.2072 50.2419 34.0826 50.3381 33.9847C50.4342 33.8869 50.5567 33.8203 50.69 33.7933C50.8233 33.7663 50.9616 33.7801 51.0872 33.8331C51.2128 33.886 51.3201 33.9757 51.3956 34.0907C51.4712 34.2058 51.5115 34.341 51.5115 34.4794C51.5115 34.6649 51.4391 34.8429 51.3102 34.9741C51.1812 35.1053 51.0064 35.179 50.8241 35.179Z" fill="#263238"/>
</svg>
