<svg width="1440" height="1056" viewBox="0 0 1440 1056" fill="none" xmlns="http://www.w3.org/2000/svg">
<mask id="mask0_212_115" style="mask-type:luminance" maskUnits="userSpaceOnUse" x="-114" y="0" width="229" height="950">
<path d="M115 0H-114V949.223H115V0Z" fill="white"/>
</mask>
<g mask="url(#mask0_212_115)">
<path d="M-282.689 693.099C-277.116 698.675 -273.986 706.235 -273.986 714.118C-273.986 722.001 -277.116 729.562 -282.689 735.137L-371.311 823.747C-376.883 829.323 -380.013 836.884 -380.013 844.767C-380.013 852.65 -376.883 860.21 -371.311 865.786C-368.548 868.546 -366.357 871.824 -364.861 875.432C-363.366 879.039 -362.597 882.906 -362.597 886.811C-362.597 890.717 -363.366 894.583 -364.861 898.191C-366.357 901.799 -368.548 905.076 -371.311 907.837L-389.903 926.418C-395.477 931.996 -398.607 939.558 -398.607 947.443C-398.607 955.328 -395.477 962.89 -389.903 968.468C-384.326 974.042 -376.763 977.172 -368.878 977.172C-360.993 977.172 -353.431 974.042 -347.853 968.468L-49.0375 669.641C-43.465 664.065 -40.3345 656.505 -40.3345 648.622C-40.3345 640.739 -43.465 633.178 -49.0375 627.602C-51.8053 624.846 -54.0015 621.571 -55.5001 617.964C-56.9987 614.356 -57.7701 610.489 -57.7701 606.583C-57.7701 602.677 -56.9987 598.81 -55.5001 595.202C-54.0015 591.595 -51.8053 588.32 -49.0375 585.564L-30.4446 566.971C-27.6839 564.211 -25.494 560.934 -23.9999 557.327C-22.5058 553.721 -21.7368 549.855 -21.7368 545.951C-21.7368 542.048 -22.5058 538.182 -23.9999 534.576C-25.494 530.969 -27.6839 527.692 -30.4446 524.932C-36.0172 519.356 -39.1476 511.796 -39.1476 503.913C-39.1476 496.03 -36.0172 488.469 -30.4446 482.893L58.1653 394.283C63.7379 388.708 66.8682 381.147 66.8682 373.264C66.8682 365.381 63.7379 357.821 58.1653 352.245C55.4092 349.477 52.1336 347.281 48.5266 345.782C44.9194 344.284 41.0519 343.512 37.1459 343.512C33.24 343.512 29.3724 344.284 25.7654 345.782C22.1583 347.281 18.8828 349.477 16.1266 352.245L-33.6008 401.96C-36.3569 404.728 -39.6324 406.924 -43.2396 408.423C-46.8466 409.921 -50.7141 410.693 -54.6201 410.693C-58.5261 410.693 -62.3936 409.921 -66.0007 408.423C-69.6078 406.924 -72.8834 404.728 -75.6395 401.96C-81.2173 396.387 -88.7798 393.256 -96.6648 393.256C-104.55 393.256 -112.112 396.387 -117.69 401.96L-182.522 466.804C-188.098 472.377 -195.658 475.507 -203.541 475.507C-211.424 475.507 -218.985 472.377 -224.561 466.804C-230.134 461.226 -233.265 453.664 -233.265 445.779C-233.265 437.894 -230.134 430.331 -224.561 424.753L-198.611 398.816C-193.039 393.24 -189.908 385.68 -189.908 377.797C-189.908 369.914 -193.039 362.353 -198.611 356.777C-201.374 354.017 -203.565 350.739 -205.06 347.132C-206.556 343.524 -207.325 339.657 -207.325 335.752C-207.325 331.847 -206.556 327.98 -205.06 324.372C-203.565 320.765 -201.374 317.487 -198.611 314.727L-145.74 261.855C-142.972 259.099 -140.776 255.823 -139.277 252.216C-137.778 248.609 -137.007 244.742 -137.007 240.836C-137.007 236.93 -137.778 233.062 -139.277 229.455C-140.776 225.848 -142.972 222.572 -145.74 219.816C-148.496 217.049 -151.771 214.852 -155.378 213.354C-158.985 211.855 -162.853 211.084 -166.759 211.084C-170.665 211.084 -174.532 211.855 -178.14 213.354C-181.747 214.852 -185.022 217.049 -187.778 219.816L-240.65 272.688C-243.406 275.456 -246.682 277.652 -250.289 279.151C-253.896 280.649 -257.763 281.421 -261.669 281.421C-265.575 281.421 -269.443 280.649 -273.05 279.151C-276.657 277.652 -279.933 275.456 -282.689 272.688C-288.267 267.115 -295.829 263.984 -303.714 263.984C-311.599 263.984 -319.161 267.115 -324.739 272.688L-623.555 571.503C-629.127 577.079 -632.258 584.64 -632.258 592.523C-632.258 600.406 -629.127 607.966 -623.555 613.542C-620.799 616.31 -617.523 618.506 -613.916 620.005C-610.309 621.503 -606.441 622.275 -602.535 622.275C-598.629 622.275 -594.762 621.503 -591.155 620.005C-587.548 618.506 -584.272 616.31 -581.516 613.542L-528.632 560.67C-525.876 557.903 -522.601 555.706 -518.994 554.208C-515.386 552.709 -511.519 551.938 -507.613 551.938C-503.707 551.938 -499.839 552.709 -496.232 554.208C-492.625 555.706 -489.35 557.903 -486.594 560.67C-483.817 563.426 -481.613 566.703 -480.108 570.314C-478.603 573.924 -477.828 577.797 -477.825 581.708C-477.823 585.62 -478.595 589.494 -480.095 593.106C-481.596 596.718 -483.797 599.998 -486.57 602.756L-539.442 655.64C-542.209 658.396 -544.406 661.672 -545.904 665.279C-547.403 668.886 -548.174 672.753 -548.174 676.659C-548.174 680.565 -547.403 684.433 -545.904 688.04C-544.406 691.647 -542.209 694.923 -539.442 697.679C-533.869 703.255 -530.739 710.815 -530.739 718.698C-530.739 726.581 -533.869 734.142 -539.442 739.717L-565.391 765.667C-568.159 768.423 -570.355 771.699 -571.854 775.306C-573.352 778.913 -574.124 782.78 -574.124 786.686C-574.124 790.592 -573.352 794.46 -571.854 798.067C-570.355 801.674 -568.159 804.949 -565.391 807.706C-559.815 813.278 -552.255 816.409 -544.372 816.409C-536.489 816.409 -528.928 813.278 -523.352 807.706L-458.52 742.874C-455.764 740.106 -452.489 737.91 -448.882 736.411C-445.274 734.912 -441.407 734.141 -437.501 734.141C-433.595 734.141 -429.727 734.912 -426.12 736.411C-422.513 737.91 -419.238 740.106 -416.482 742.874C-410.906 748.446 -403.345 751.577 -395.462 751.577C-387.579 751.577 -380.019 748.446 -374.443 742.874L-324.716 693.146C-319.148 687.568 -311.593 684.429 -303.712 684.421C-295.831 684.412 -288.269 687.533 -282.689 693.099Z" fill="url(#paint0_linear_212_115)"/>
<path d="M130.733 1241.9L109.067 1263.56C106.243 1266.38 104.003 1269.73 102.474 1273.42C100.946 1277.11 100.159 1281.06 100.159 1285.06C100.159 1289.05 100.946 1293 102.474 1296.69C104.003 1300.38 106.243 1303.73 109.067 1306.56C114.77 1312.25 122.501 1315.46 130.561 1315.46C138.622 1315.46 146.353 1312.25 152.055 1306.56L235.053 1223.5C237.876 1220.68 241.228 1218.44 244.917 1216.91C248.606 1215.38 252.56 1214.59 256.553 1214.59C260.546 1214.59 264.5 1215.38 268.189 1216.91C271.878 1218.44 275.23 1220.68 278.053 1223.5C283.75 1229.2 286.95 1236.93 286.95 1244.99C286.95 1253.06 283.75 1260.79 278.053 1266.49L195.055 1349.55C192.231 1352.37 189.991 1355.72 188.463 1359.41C186.935 1363.09 186.148 1367.05 186.148 1371.04C186.148 1375.03 186.935 1378.98 188.463 1382.67C189.991 1386.36 192.231 1389.71 195.055 1392.53C197.877 1395.36 201.228 1397.6 204.916 1399.13C208.604 1400.65 212.557 1401.44 216.549 1401.44C220.541 1401.44 224.494 1400.65 228.182 1399.13C231.87 1397.6 235.221 1395.36 238.043 1392.53L284.199 1346.39C287.022 1343.57 290.374 1341.32 294.063 1339.8C297.752 1338.27 301.706 1337.48 305.699 1337.48C309.692 1337.48 313.646 1338.27 317.335 1339.8C321.024 1341.32 324.376 1343.57 327.199 1346.39C332.896 1352.09 336.096 1359.82 336.096 1367.88C336.096 1375.94 332.896 1383.67 327.199 1389.38L244.783 1471.79C241.959 1474.62 239.719 1477.97 238.19 1481.65C236.662 1485.34 235.875 1489.3 235.875 1493.29C235.875 1497.28 236.662 1501.23 238.19 1504.92C239.719 1508.61 241.959 1511.96 244.783 1514.78C247.605 1517.61 250.955 1519.85 254.643 1521.37C258.331 1522.9 262.284 1523.69 266.277 1523.69C270.269 1523.69 274.222 1522.9 277.91 1521.37C281.598 1519.85 284.949 1517.61 287.77 1514.78L626.097 1176.48C631.795 1170.77 634.996 1163.04 634.996 1154.98C634.996 1146.92 631.795 1139.18 626.097 1133.48C623.273 1130.66 621.033 1127.31 619.505 1123.62C617.977 1119.93 617.19 1115.98 617.19 1111.98C617.19 1107.99 617.977 1104.04 619.505 1100.35C621.033 1096.66 623.273 1093.31 626.097 1090.49L708.514 1008.07C714.211 1002.37 717.411 994.641 717.411 986.581C717.411 978.52 714.211 970.789 708.514 965.087C705.691 962.262 702.339 960.022 698.65 958.494C694.961 956.965 691.007 956.178 687.014 956.178C683.021 956.178 679.066 956.965 675.377 958.494C671.688 960.022 668.337 962.262 665.514 965.087L619.358 1011.23C616.536 1014.05 613.185 1016.29 609.497 1017.82C605.809 1019.35 601.856 1020.14 597.864 1020.14C593.872 1020.14 589.919 1019.35 586.231 1017.82C582.543 1016.29 579.192 1014.05 576.37 1011.23C573.546 1008.41 571.306 1005.06 569.778 1001.37C568.249 997.682 567.463 993.729 567.463 989.737C567.463 985.745 568.249 981.792 569.778 978.104C571.306 974.415 573.546 971.065 576.37 968.243L659.367 885.245C665.065 879.543 668.265 871.812 668.265 863.751C668.265 855.69 665.065 847.959 659.367 842.257C656.545 839.433 653.193 837.193 649.504 835.664C645.815 834.136 641.861 833.349 637.868 833.349C633.874 833.349 629.92 834.136 626.231 835.664C622.542 837.193 619.191 839.433 616.368 842.257L533.37 925.255C527.668 930.952 519.937 934.152 511.876 934.152C503.815 934.152 496.084 930.952 490.382 925.255C487.558 922.433 485.318 919.082 483.79 915.394C482.262 911.706 481.475 907.753 481.475 903.761C481.475 899.769 482.262 895.816 483.79 892.128C485.318 888.44 487.558 885.089 490.382 882.267L512.036 860.613C514.86 857.79 517.101 854.438 518.629 850.749C520.158 847.06 520.945 843.106 520.945 839.113C520.945 835.12 520.158 831.166 518.629 827.477C517.101 823.788 514.86 820.436 512.036 817.613C506.334 811.916 498.603 808.716 490.542 808.716C482.482 808.716 474.751 811.916 469.048 817.613L130.733 1155.92C125.036 1161.62 121.836 1169.35 121.836 1177.41C121.836 1185.47 125.036 1193.2 130.733 1198.9C133.558 1201.73 135.798 1205.08 137.326 1208.77C138.855 1212.46 139.642 1216.41 139.642 1220.4C139.642 1224.4 138.855 1228.35 137.326 1232.04C135.798 1235.73 133.558 1239.08 130.733 1241.9Z" fill="url(#paint1_linear_212_115)"/>
<path d="M30.1628 1445.01L61.1905 1414C64.0125 1411.17 67.3632 1408.93 71.0512 1407.4C74.7393 1405.87 78.6923 1405.09 82.6845 1405.09C86.6767 1405.09 90.6297 1405.87 94.3177 1407.4C98.0058 1408.93 101.356 1411.17 104.178 1414C109.883 1419.69 117.616 1422.89 125.678 1422.89C133.741 1422.89 141.474 1419.69 147.178 1414L485.719 1075.42C491.347 1069.78 494.508 1062.15 494.508 1054.18C494.508 1046.22 491.347 1038.58 485.719 1032.94L485.196 1032.43C482.408 1029.64 479.097 1027.43 475.452 1025.92C471.808 1024.41 467.902 1023.63 463.958 1023.63C460.013 1023.63 456.107 1024.41 452.463 1025.92C448.819 1027.43 445.508 1029.64 442.719 1032.43L411.442 1063.71C408.62 1066.53 405.269 1068.77 401.581 1070.3C397.893 1071.83 393.94 1072.62 389.948 1072.62C385.956 1072.62 382.003 1071.83 378.315 1070.3C374.627 1068.77 371.276 1066.53 368.454 1063.71C365.63 1060.89 363.39 1057.54 361.862 1053.85C360.333 1050.16 359.547 1046.21 359.547 1042.21C359.547 1038.22 360.333 1034.27 361.862 1030.58C363.39 1026.89 365.63 1023.54 368.454 1020.72L377.436 1011.73C380.226 1008.94 382.439 1005.63 383.949 1001.98C385.458 998.338 386.236 994.432 386.236 990.488C386.236 986.543 385.458 982.637 383.949 978.993C382.439 975.349 380.226 972.038 377.436 969.249L376.926 968.739C374.136 965.95 371.923 962.639 370.413 958.995C368.903 955.35 368.126 951.444 368.126 947.5C368.126 943.555 368.903 939.649 370.413 936.005C371.923 932.361 374.136 929.05 376.926 926.261C382.554 920.626 385.716 912.987 385.716 905.022C385.716 897.058 382.554 889.419 376.926 883.783L376.404 883.261C370.768 877.633 363.129 874.471 355.165 874.471C347.2 874.471 339.561 877.633 333.926 883.261L300.003 917.184C297.214 919.974 293.903 922.187 290.259 923.697C286.615 925.207 282.709 925.984 278.764 925.984C274.82 925.984 270.914 925.207 267.269 923.697C263.625 922.187 260.314 919.974 257.525 917.184L257.015 916.674C254.226 913.884 250.915 911.671 247.271 910.161C243.627 908.651 239.721 907.874 235.776 907.874C231.832 907.874 227.926 908.651 224.282 910.161C220.637 911.671 217.326 913.884 214.537 916.674L-124.086 1255.24C-129.784 1260.94 -132.984 1268.68 -132.984 1276.74C-132.984 1284.8 -129.784 1292.53 -124.086 1298.24C-118.382 1303.94 -110.649 1307.14 -102.586 1307.14C-94.5234 1307.14 -86.7905 1303.94 -81.0861 1298.24L-47.1633 1264.3C-44.4085 1261.55 -41.1373 1259.36 -37.5368 1257.87C-33.9363 1256.37 -30.077 1255.61 -26.1795 1255.61C-22.282 1255.61 -18.4227 1256.37 -14.8222 1257.87C-11.2217 1259.36 -7.95056 1261.55 -5.19576 1264.3L-4.17534 1265.34C-1.41826 1268.09 0.768921 1271.36 2.26118 1274.96C3.75343 1278.56 4.52151 1282.42 4.52151 1286.32C4.52151 1290.22 3.75343 1294.08 2.26118 1297.68C0.768921 1301.28 -1.41826 1304.55 -4.17534 1307.3C-9.87255 1313.01 -13.0728 1320.74 -13.0728 1328.8C-13.0728 1336.86 -9.87255 1344.59 -4.17534 1350.29C-1.35115 1353.11 0.889191 1356.47 2.41769 1360.15C3.94621 1363.84 4.73293 1367.8 4.73293 1371.79C4.73293 1375.78 3.94621 1379.74 2.41769 1383.43C0.889191 1387.12 -1.35115 1390.47 -4.17534 1393.29L-12.9082 1402.02C-18.6054 1407.73 -21.8056 1415.46 -21.8056 1423.52C-21.8056 1431.58 -18.6054 1439.31 -12.9082 1445.01C-10.0839 1447.85 -6.72774 1450.1 -3.03217 1451.63C0.663422 1453.17 4.62567 1453.96 8.62729 1453.96C12.6289 1453.96 16.5912 1453.17 20.2868 1451.63C23.9823 1450.1 27.3385 1447.85 30.1628 1445.01Z" fill="url(#paint2_linear_212_115)"/>
<path d="M69.7696 753.778C86.5584 753.778 100.168 740.168 100.168 723.379C100.168 706.59 86.5584 692.98 69.7696 692.98C52.9808 692.98 39.3707 706.59 39.3707 723.379C39.3707 740.168 52.9808 753.778 69.7696 753.778Z" fill="url(#paint3_linear_212_115)"/>
</g>
<g clip-path="url(#clip0_212_115)">
<path d="M1321.38 1052.15C1319.54 1053.99 1317.19 1055.25 1314.64 1055.75C1312.09 1056.26 1309.44 1056 1307.04 1055.01C1304.63 1054.01 1302.58 1052.33 1301.13 1050.16C1299.69 1048 1298.92 1045.46 1298.92 1042.86C1298.92 1040.25 1299.69 1037.71 1301.13 1035.55C1302.58 1033.38 1304.63 1031.7 1307.04 1030.7C1309.44 1029.71 1312.09 1029.45 1314.64 1029.96C1317.19 1030.47 1319.54 1031.72 1321.38 1033.56C1322.6 1034.78 1323.57 1036.23 1324.23 1037.82C1324.89 1039.42 1325.23 1041.13 1325.23 1042.86C1325.23 1044.58 1324.89 1046.29 1324.23 1047.89C1323.57 1049.48 1322.6 1050.93 1321.38 1052.15Z" fill="white"/>
<path d="M1362.81 1010.74C1360.97 1012.58 1358.62 1013.83 1356.07 1014.34C1353.52 1014.85 1350.87 1014.59 1348.47 1013.59C1346.06 1012.6 1344.01 1010.91 1342.56 1008.75C1341.12 1006.59 1340.34 1004.04 1340.34 1001.44C1340.34 998.84 1341.12 996.297 1342.56 994.134C1344.01 991.971 1346.06 990.285 1348.47 989.29C1350.87 988.295 1353.52 988.035 1356.07 988.544C1358.62 989.052 1360.97 990.306 1362.81 992.146C1365.27 994.612 1366.66 997.956 1366.66 1001.44C1366.66 1004.93 1365.27 1008.27 1362.81 1010.74Z" fill="white"/>
<path d="M1404.25 969.311C1402.41 971.151 1400.07 972.405 1397.52 972.913C1394.96 973.421 1392.32 973.162 1389.91 972.166C1387.51 971.171 1385.45 969.486 1384.01 967.323C1382.56 965.16 1381.79 962.617 1381.79 960.015C1381.79 957.413 1382.56 954.87 1384.01 952.707C1385.45 950.544 1387.51 948.859 1389.91 947.863C1392.32 946.868 1394.96 946.609 1397.52 947.117C1400.07 947.625 1402.41 948.879 1404.25 950.719C1405.47 951.939 1406.44 953.388 1407.1 954.983C1407.77 956.578 1408.11 958.288 1408.11 960.015C1408.11 961.742 1407.77 963.451 1407.1 965.047C1406.44 966.642 1405.47 968.091 1404.25 969.311Z" fill="white"/>
<path d="M1445.72 927.898C1443.88 929.744 1441.54 931.003 1438.99 931.516C1436.43 932.029 1433.78 931.773 1431.38 930.779C1428.97 929.786 1426.91 928.1 1425.46 925.936C1424.01 923.772 1423.24 921.226 1423.24 918.622C1423.24 916.018 1424.01 913.473 1425.46 911.308C1426.91 909.144 1428.97 907.459 1431.38 906.465C1433.78 905.472 1436.43 905.215 1438.99 905.728C1441.54 906.241 1443.88 907.5 1445.72 909.347C1448.17 911.811 1449.55 915.146 1449.55 918.622C1449.55 922.098 1448.17 925.433 1445.72 927.898Z" fill="white"/>
<path d="M1270.06 638.698C1269.52 639.241 1268.83 639.612 1268.08 639.764C1267.33 639.915 1266.55 639.841 1265.84 639.549C1265.14 639.258 1264.53 638.763 1264.1 638.127C1263.68 637.491 1263.45 636.743 1263.45 635.978C1263.45 635.213 1263.68 634.465 1264.1 633.829C1264.53 633.193 1265.14 632.698 1265.84 632.406C1266.55 632.115 1267.33 632.04 1268.08 632.192C1268.83 632.343 1269.52 632.714 1270.06 633.258C1270.78 633.979 1271.18 634.958 1271.18 635.978C1271.18 636.998 1270.78 637.976 1270.06 638.698Z" fill="white"/>
<path d="M1282.21 626.594C1281.67 627.137 1280.98 627.508 1280.23 627.659C1279.48 627.811 1278.7 627.736 1277.99 627.445C1277.29 627.154 1276.68 626.658 1276.25 626.023C1275.83 625.387 1275.6 624.639 1275.6 623.873C1275.6 623.108 1275.83 622.36 1276.25 621.724C1276.68 621.088 1277.29 620.593 1277.99 620.302C1278.7 620.011 1279.48 619.936 1280.23 620.087C1280.98 620.239 1281.67 620.61 1282.21 621.153C1282.92 621.879 1283.32 622.856 1283.32 623.873C1283.32 624.891 1282.92 625.868 1282.21 626.594Z" fill="white"/>
<path d="M1294.36 614.435C1293.82 614.973 1293.13 615.34 1292.39 615.489C1291.64 615.638 1290.86 615.562 1290.16 615.271C1289.46 614.98 1288.86 614.486 1288.43 613.853C1288.01 613.22 1287.78 612.476 1287.78 611.715C1287.78 610.953 1288.01 610.209 1288.43 609.576C1288.86 608.943 1289.46 608.449 1290.16 608.158C1290.86 607.867 1291.64 607.791 1292.39 607.94C1293.13 608.089 1293.82 608.456 1294.36 608.995C1294.72 609.35 1295 609.774 1295.2 610.241C1295.39 610.707 1295.5 611.209 1295.5 611.715C1295.5 612.221 1295.39 612.722 1295.2 613.189C1295 613.656 1294.72 614.079 1294.36 614.435Z" fill="white"/>
<path d="M1306.52 602.303C1305.98 602.846 1305.29 603.217 1304.54 603.369C1303.79 603.521 1303.01 603.446 1302.31 603.155C1301.6 602.863 1300.99 602.368 1300.57 601.732C1300.14 601.096 1299.91 600.348 1299.91 599.583C1299.91 598.818 1300.14 598.07 1300.57 597.434C1300.99 596.798 1301.6 596.303 1302.31 596.012C1303.01 595.72 1303.79 595.645 1304.54 595.797C1305.29 595.949 1305.98 596.32 1306.52 596.863C1307.24 597.588 1307.64 598.565 1307.64 599.583C1307.64 600.601 1307.24 601.578 1306.52 602.303Z" fill="white"/>
<path d="M1318.67 590.144C1318.13 590.688 1317.44 591.059 1316.69 591.21C1315.94 591.362 1315.16 591.287 1314.46 590.996C1313.75 590.704 1313.14 590.209 1312.72 589.573C1312.29 588.938 1312.06 588.19 1312.06 587.424C1312.06 586.659 1312.29 585.911 1312.72 585.275C1313.14 584.639 1313.75 584.144 1314.46 583.853C1315.16 583.561 1315.94 583.487 1316.69 583.638C1317.44 583.79 1318.13 584.161 1318.67 584.704C1319.39 585.426 1319.8 586.404 1319.8 587.424C1319.8 588.444 1319.39 589.423 1318.67 590.144Z" fill="white"/>
<path d="M1330.82 577.999C1330.28 578.542 1329.59 578.913 1328.84 579.065C1328.09 579.217 1327.31 579.142 1326.61 578.851C1325.9 578.559 1325.29 578.064 1324.87 577.428C1324.44 576.792 1324.21 576.044 1324.21 575.279C1324.21 574.514 1324.44 573.766 1324.87 573.13C1325.29 572.494 1325.9 571.999 1326.61 571.708C1327.31 571.416 1328.09 571.342 1328.84 571.493C1329.59 571.645 1330.28 572.016 1330.82 572.559C1331.54 573.281 1331.95 574.259 1331.95 575.279C1331.95 576.299 1331.54 577.277 1330.82 577.999Z" fill="white"/>
<path d="M1342.97 565.854C1342.43 566.397 1341.74 566.768 1340.99 566.92C1340.24 567.071 1339.46 566.997 1338.76 566.705C1338.05 566.414 1337.44 565.919 1337.02 565.283C1336.59 564.647 1336.36 563.899 1336.36 563.134C1336.36 562.369 1336.59 561.621 1337.02 560.985C1337.44 560.349 1338.05 559.854 1338.76 559.562C1339.46 559.271 1340.24 559.196 1340.99 559.348C1341.74 559.499 1342.43 559.87 1342.97 560.414C1343.69 561.135 1344.1 562.114 1344.1 563.134C1344.1 564.154 1343.69 565.132 1342.97 565.854Z" fill="white"/>
<path d="M1355.12 553.709C1354.58 554.252 1353.89 554.623 1353.14 554.775C1352.39 554.926 1351.61 554.852 1350.91 554.56C1350.2 554.269 1349.59 553.774 1349.17 553.138C1348.74 552.502 1348.51 551.754 1348.51 550.989C1348.51 550.223 1348.74 549.475 1349.17 548.84C1349.59 548.204 1350.2 547.709 1350.91 547.417C1351.61 547.126 1352.39 547.051 1353.14 547.203C1353.89 547.354 1354.58 547.725 1355.12 548.269C1355.84 548.99 1356.25 549.969 1356.25 550.989C1356.25 552.009 1355.84 552.987 1355.12 553.709Z" fill="white"/>
<path d="M1253.8 1002.16C1289.32 1002.16 1324.05 991.637 1353.59 971.911C1383.13 952.185 1406.16 924.144 1419.75 891.336C1433.35 858.528 1436.91 822.426 1429.97 787.598C1423.04 752.769 1405.93 720.777 1380.81 695.67L1376.01 690.856L1122 944.708L1126.8 949.522C1143.44 966.253 1163.23 979.52 1185.03 988.555C1206.83 997.589 1230.2 1002.21 1253.8 1002.16ZM1375.91 710.182C1405.22 741.635 1421.17 783.231 1420.41 826.209C1419.65 869.188 1402.24 910.193 1371.83 940.591C1341.43 970.988 1300.41 988.405 1257.41 989.173C1214.42 989.941 1172.8 974 1141.33 944.708L1375.91 710.182Z" fill="white"/>
<path d="M1200.64 924.402C1217.14 940.89 1236.72 953.969 1258.27 962.892C1279.82 971.815 1302.92 976.408 1326.24 976.408C1349.57 976.408 1372.67 971.815 1394.22 962.892C1415.77 953.969 1435.35 940.89 1451.84 924.402C1485.16 891.104 1503.87 845.941 1503.87 798.85C1503.87 751.759 1485.16 706.596 1451.84 673.297L1200.64 924.402Z" fill="url(#paint4_linear_212_115)"/>
<path d="M1411.42 897.541C1411.69 897.545 1411.96 897.494 1412.2 897.391C1412.45 897.288 1412.68 897.136 1412.86 896.943L1711.4 598.522C1711.78 598.138 1711.99 597.62 1711.99 597.081C1711.99 596.541 1711.78 596.023 1711.4 595.639C1711.21 595.448 1710.99 595.297 1710.74 595.193C1710.49 595.09 1710.23 595.037 1709.96 595.037C1709.69 595.037 1709.43 595.09 1709.18 595.193C1708.93 595.297 1708.71 595.448 1708.52 595.639L1409.98 894.06C1409.6 894.444 1409.39 894.962 1409.39 895.501C1409.39 896.041 1409.6 896.559 1409.98 896.943C1410.17 897.134 1410.39 897.286 1410.64 897.389C1410.89 897.491 1411.15 897.543 1411.42 897.541Z" fill="url(#paint5_linear_212_115)"/>
<path d="M1309.87 745.475C1325.87 761.472 1344.87 774.161 1365.78 782.818C1386.69 791.475 1409.1 795.931 1431.73 795.931C1477.43 795.931 1521.27 777.782 1553.59 745.475C1585.91 713.168 1604.06 669.351 1604.06 623.663C1604.06 577.974 1585.91 534.157 1553.59 501.85L1309.87 745.475Z" fill="url(#paint6_linear_212_115)"/>
<path d="M1283.75 700.539C1284.29 700.523 1284.8 700.293 1285.17 699.9L1520.39 464.83C1520.77 464.446 1520.98 463.928 1520.98 463.388C1520.98 462.849 1520.77 462.331 1520.39 461.947C1520.2 461.756 1519.98 461.604 1519.73 461.501C1519.48 461.398 1519.22 461.344 1518.95 461.344C1518.68 461.344 1518.41 461.398 1518.17 461.501C1517.92 461.604 1517.69 461.756 1517.51 461.947L1282.3 697.057C1282.02 697.343 1281.82 697.706 1281.75 698.102C1281.67 698.497 1281.71 698.907 1281.86 699.279C1282.02 699.652 1282.28 699.97 1282.61 700.195C1282.95 700.419 1283.34 700.539 1283.75 700.539Z" fill="white"/>
<path d="M1424.9 608.777C1399.94 608.777 1375.53 616.178 1354.77 630.045C1334 643.912 1317.82 663.622 1308.27 686.681C1298.71 709.741 1296.21 735.115 1301.08 759.595C1305.95 784.076 1317.98 806.562 1335.63 824.211C1353.29 841.86 1375.79 853.88 1400.28 858.749C1424.76 863.618 1450.15 861.119 1473.22 851.568C1496.29 842.016 1516 825.841 1529.88 805.087C1543.75 784.334 1551.15 759.935 1551.15 734.975C1551.15 701.505 1537.85 669.406 1514.18 645.74C1490.5 622.073 1458.39 608.777 1424.9 608.777Z" fill="url(#paint7_radial_212_115)"/>
<path d="M1320.55 703.259C1320.82 703.261 1321.08 703.209 1321.33 703.106C1321.58 703.004 1321.8 702.852 1321.99 702.661L1518.57 506.162C1518.93 505.775 1519.12 505.263 1519.11 504.735C1519.11 504.206 1518.89 503.702 1518.52 503.328C1518.14 502.955 1517.64 502.74 1517.11 502.731C1516.58 502.722 1516.07 502.918 1515.68 503.278L1319.11 699.777C1318.92 699.966 1318.76 700.19 1318.66 700.438C1318.56 700.685 1318.5 700.951 1318.5 701.219C1318.5 701.487 1318.56 701.753 1318.66 702C1318.76 702.248 1318.92 702.472 1319.11 702.661C1319.29 702.853 1319.52 703.006 1319.77 703.109C1320.01 703.212 1320.28 703.263 1320.55 703.259Z" fill="white"/>
<path d="M1411.04 869.81C1410.25 870.603 1409.24 871.142 1408.14 871.361C1407.04 871.579 1405.89 871.467 1404.86 871.037C1403.82 870.608 1402.94 869.881 1402.31 868.948C1401.69 868.016 1401.36 866.919 1401.36 865.798C1401.36 864.677 1401.69 863.58 1402.31 862.648C1402.94 861.715 1403.82 860.988 1404.86 860.559C1405.89 860.129 1407.04 860.017 1408.14 860.235C1409.24 860.454 1410.25 860.993 1411.04 861.786C1411.57 862.313 1411.99 862.938 1412.27 863.626C1412.56 864.315 1412.7 865.053 1412.7 865.798C1412.7 866.543 1412.56 867.281 1412.27 867.97C1411.99 868.658 1411.57 869.283 1411.04 869.81Z" fill="white"/>
<path d="M1428.93 851.925C1428.14 852.723 1427.12 853.266 1426.02 853.488C1424.92 853.709 1423.77 853.597 1422.73 853.168C1421.69 852.738 1420.8 852.009 1420.18 851.074C1419.55 850.139 1419.22 849.039 1419.22 847.913C1419.22 846.788 1419.55 845.688 1420.18 844.753C1420.8 843.817 1421.69 843.089 1422.73 842.659C1423.77 842.229 1424.92 842.118 1426.02 842.339C1427.12 842.56 1428.14 843.104 1428.93 843.901C1429.99 844.967 1430.59 846.409 1430.59 847.913C1430.59 849.417 1429.99 850.86 1428.93 851.925Z" fill="white"/>
<path d="M1446.82 834.041C1446.03 834.838 1445.02 835.382 1443.91 835.603C1442.81 835.824 1441.66 835.713 1440.62 835.283C1439.58 834.854 1438.69 834.125 1438.07 833.19C1437.44 832.254 1437.11 831.154 1437.11 830.029C1437.11 828.904 1437.44 827.804 1438.07 826.868C1438.69 825.933 1439.58 825.204 1440.62 824.775C1441.66 824.345 1442.81 824.234 1443.91 824.455C1445.02 824.676 1446.03 825.219 1446.82 826.017C1447.35 826.543 1447.77 827.168 1448.06 827.856C1448.35 828.545 1448.49 829.283 1448.49 830.029C1448.49 830.775 1448.35 831.513 1448.06 832.201C1447.77 832.89 1447.35 833.515 1446.82 834.041Z" fill="white"/>
<path d="M1353.88 698.54C1346.02 690.681 1339.79 681.352 1335.53 671.084C1331.28 660.816 1329.09 649.812 1329.09 638.698C1329.09 627.584 1331.28 616.579 1335.53 606.312C1339.79 596.044 1346.02 586.715 1353.88 578.856C1361.74 570.997 1371.08 564.764 1381.35 560.511C1391.62 556.258 1402.63 554.069 1413.75 554.069C1424.87 554.069 1435.88 556.258 1446.15 560.511C1456.42 564.764 1465.75 570.997 1473.61 578.856L1353.88 698.54Z" fill="url(#paint8_linear_212_115)"/>
<path d="M1418.4 981.551C1418.94 981.549 1419.46 981.334 1419.84 980.953L1512.76 888.075C1513.12 887.689 1513.31 887.177 1513.3 886.649C1513.3 886.12 1513.08 885.616 1512.71 885.242C1512.33 884.868 1511.83 884.654 1511.3 884.645C1510.77 884.636 1510.26 884.832 1509.87 885.192L1416.96 978.07C1416.67 978.355 1416.48 978.718 1416.4 979.114C1416.32 979.509 1416.36 979.919 1416.52 980.292C1416.67 980.664 1416.93 980.983 1417.27 981.207C1417.6 981.431 1418 981.551 1418.4 981.551Z" fill="url(#paint9_linear_212_115)"/>
<path d="M1283.81 1014.31C1284.08 1014.32 1284.35 1014.27 1284.6 1014.16C1284.84 1014.06 1285.07 1013.91 1285.26 1013.72L1400.41 898.602C1400.78 898.216 1400.97 897.704 1400.96 897.175C1400.95 896.647 1400.74 896.143 1400.36 895.769C1399.99 895.395 1399.49 895.181 1398.96 895.172C1398.43 895.162 1397.92 895.359 1397.53 895.719L1282.36 1010.83C1281.98 1011.22 1281.77 1011.74 1281.77 1012.27C1281.77 1012.81 1281.98 1013.33 1282.36 1013.72C1282.55 1013.91 1282.77 1014.06 1283.02 1014.16C1283.27 1014.27 1283.54 1014.32 1283.81 1014.31Z" fill="white"/>
<path d="M1406.5 935.813C1406.76 935.816 1407.03 935.766 1407.28 935.665C1407.52 935.565 1407.75 935.416 1407.94 935.228L1495.97 847.233C1496.33 846.847 1496.52 846.335 1496.52 845.807C1496.51 845.278 1496.29 844.774 1495.92 844.4C1495.54 844.026 1495.04 843.812 1494.51 843.803C1493.98 843.793 1493.47 843.99 1493.08 844.35L1405.05 932.331C1404.67 932.718 1404.46 933.238 1404.46 933.78C1404.46 934.321 1404.67 934.842 1405.05 935.228C1405.44 935.606 1405.96 935.816 1406.5 935.813Z" fill="white"/>
<path d="M1263.64 927.027C1263.9 927.031 1264.17 926.979 1264.42 926.877C1264.67 926.774 1264.89 926.621 1265.08 926.429L1378.85 812.783C1379.04 812.595 1379.19 812.37 1379.3 812.123C1379.4 811.876 1379.45 811.61 1379.45 811.342C1379.45 811.074 1379.4 810.808 1379.3 810.561C1379.19 810.313 1379.04 810.089 1378.85 809.9C1378.47 809.521 1377.95 809.309 1377.41 809.309C1376.87 809.309 1376.35 809.521 1375.97 809.9L1262.19 923.627C1261.81 924.011 1261.6 924.529 1261.6 925.069C1261.6 925.608 1261.81 926.126 1262.19 926.51C1262.39 926.687 1262.62 926.824 1262.86 926.912C1263.11 927.001 1263.37 927.04 1263.64 927.027Z" fill="white"/>
<path d="M1352.25 653.74C1352.8 653.739 1353.32 653.524 1353.71 653.142L1470.14 536.695C1470.53 536.312 1470.74 535.793 1470.75 535.251C1470.75 534.709 1470.53 534.189 1470.15 533.805C1469.77 533.42 1469.25 533.204 1468.71 533.203C1468.16 533.201 1467.64 533.415 1467.26 533.798L1350.81 650.204C1350.43 650.588 1350.22 651.106 1350.22 651.646C1350.22 652.185 1350.43 652.703 1350.81 653.087C1351.18 653.486 1351.7 653.721 1352.25 653.74Z" fill="url(#paint10_linear_212_115)"/>
<path d="M1162.72 806.527C1163.23 806.522 1163.71 806.328 1164.08 805.983L1280.53 689.591C1280.92 689.207 1281.13 688.686 1281.13 688.144C1281.13 687.602 1280.91 687.083 1280.53 686.701C1280.14 686.318 1279.62 686.104 1279.08 686.105C1278.54 686.107 1278.02 686.323 1277.64 686.707L1161.2 803.1C1160.93 803.393 1160.75 803.759 1160.68 804.153C1160.62 804.547 1160.67 804.951 1160.83 805.316C1160.99 805.681 1161.26 805.99 1161.59 806.205C1161.93 806.421 1162.32 806.533 1162.72 806.527Z" fill="url(#paint11_linear_212_115)"/>
<path d="M1273.65 758.273L1361.88 670.074L1357.07 665.26C1351.29 659.45 1344.41 654.845 1336.84 651.709C1329.27 648.574 1321.15 646.971 1312.96 646.994C1300.62 646.998 1288.56 650.659 1278.3 657.512C1268.05 664.366 1260.05 674.106 1255.33 685.5C1250.61 696.894 1249.37 709.432 1251.78 721.528C1254.19 733.624 1260.13 744.736 1268.85 753.458L1273.65 758.273ZM1342.32 670.4L1273.99 738.702C1268.53 731.46 1265.21 722.841 1264.38 713.813C1263.55 704.786 1265.26 695.706 1269.31 687.594C1273.36 679.482 1279.59 672.658 1287.3 667.889C1295.01 663.12 1303.9 660.594 1312.97 660.595C1323.56 660.563 1333.87 664.008 1342.32 670.4Z" fill="white"/>
<path d="M1242.37 874.189C1256.26 874.186 1269.83 870.066 1281.37 862.351C1292.92 854.636 1301.91 843.673 1307.22 830.847C1312.53 818.021 1313.92 803.91 1311.2 790.297C1308.49 776.684 1301.8 764.181 1291.98 754.37L1290.06 752.452L1190.74 851.735L1192.65 853.585C1199.16 860.139 1206.91 865.336 1215.44 868.873C1223.98 872.41 1233.13 874.217 1242.37 874.189ZM1290.06 760.177C1301.39 772.468 1307.53 788.665 1307.2 805.379C1306.86 822.093 1300.06 838.028 1288.24 849.85C1276.42 861.672 1260.48 868.464 1243.75 868.805C1227.03 869.146 1210.83 863.01 1198.53 851.681L1290.06 760.177Z" fill="url(#paint12_linear_212_115)"/>
<path d="M1400.21 528.725C1411.66 528.729 1422.86 525.337 1432.39 518.977C1441.91 512.618 1449.33 503.577 1453.72 492.999C1458.1 482.421 1459.25 470.781 1457.01 459.552C1454.77 448.323 1449.25 438.01 1441.15 429.918L1439.23 428L1357.28 509.847L1359.2 511.779C1364.58 517.175 1370.97 521.452 1378.01 524.361C1385.05 527.27 1392.59 528.753 1400.21 528.725ZM1439.18 435.739C1448.16 445.723 1452.97 458.77 1452.61 472.191C1452.25 485.613 1446.76 498.387 1437.26 507.881C1427.77 517.376 1414.99 522.868 1401.56 523.227C1388.14 523.585 1375.08 518.782 1365.09 509.807L1439.18 435.739Z" fill="url(#paint13_linear_212_115)"/>
<path d="M1441.56 610.871C1441.83 610.872 1442.09 610.819 1442.34 610.717C1442.59 610.614 1442.81 610.463 1443 610.273L1530.46 522.849C1530.66 522.663 1530.82 522.437 1530.93 522.187C1531.04 521.937 1531.1 521.667 1531.11 521.393C1531.11 521.119 1531.06 520.847 1530.96 520.593C1530.86 520.339 1530.7 520.108 1530.51 519.914C1530.32 519.721 1530.09 519.568 1529.83 519.465C1529.58 519.363 1529.31 519.312 1529.03 519.317C1528.76 519.322 1528.49 519.382 1528.24 519.493C1527.99 519.605 1527.76 519.766 1527.57 519.966L1440.12 607.417C1439.83 607.702 1439.64 608.066 1439.56 608.461C1439.48 608.857 1439.52 609.266 1439.67 609.639C1439.83 610.012 1440.09 610.33 1440.43 610.554C1440.76 610.778 1441.16 610.898 1441.56 610.899V610.871Z" fill="url(#paint14_linear_212_115)"/>
<path d="M1431.22 494.207C1425.98 494.207 1420.87 495.758 1416.52 498.665C1412.16 501.572 1408.77 505.703 1406.77 510.537C1404.77 515.37 1404.24 520.689 1405.26 525.82C1406.28 530.952 1408.8 535.665 1412.51 539.365C1416.21 543.064 1420.92 545.584 1426.06 546.604C1431.19 547.625 1436.51 547.101 1441.35 545.099C1446.18 543.097 1450.31 539.706 1453.22 535.356C1456.13 531.006 1457.68 525.892 1457.68 520.66C1457.68 513.644 1454.89 506.916 1449.93 501.955C1444.97 496.994 1438.24 494.207 1431.22 494.207Z" fill="url(#paint15_radial_212_115)"/>
<path d="M1237.06 791.975C1242.8 797.81 1249.64 802.451 1257.18 805.632C1264.72 808.812 1272.81 810.468 1280.99 810.504C1289.18 810.54 1297.29 808.956 1304.86 805.842C1312.42 802.729 1319.3 798.148 1325.09 792.364C1330.87 786.579 1335.46 779.707 1338.57 772.142C1341.69 764.578 1343.28 756.471 1343.24 748.291C1343.21 740.11 1341.55 732.018 1338.37 724.48C1335.19 716.942 1330.55 710.109 1324.71 704.374L1237.06 791.975Z" fill="url(#paint16_linear_212_115)"/>
</g>
<defs>
<linearGradient id="paint0_linear_212_115" x1="-553.466" y1="594.142" x2="145.66" y2="594.142" gradientUnits="userSpaceOnUse">
<stop stop-color="#F1D8FC"/>
<stop offset="1" stop-color="#5530C7"/>
</linearGradient>
<linearGradient id="paint1_linear_212_115" x1="100.168" y1="1166.19" x2="717.412" y2="1166.19" gradientUnits="userSpaceOnUse">
<stop stop-color="#442AFF"/>
<stop offset="1" stop-color="#B690FC"/>
</linearGradient>
<linearGradient id="paint2_linear_212_115" x1="-132.937" y1="1164.2" x2="494.511" y2="1164.2" gradientUnits="userSpaceOnUse">
<stop stop-color="#F190FC"/>
<stop offset="1" stop-color="#764BFA"/>
</linearGradient>
<linearGradient id="paint3_linear_212_115" x1="39.3707" y1="723.379" x2="100.168" y2="723.379" gradientUnits="userSpaceOnUse">
<stop stop-color="#764BFA"/>
<stop offset="1" stop-color="#F190FC"/>
</linearGradient>
<linearGradient id="paint4_linear_212_115" x1="1352.25" y1="976.41" x2="1352.25" y2="673.297" gradientUnits="userSpaceOnUse">
<stop stop-color="#AA00EF"/>
<stop offset="1" stop-color="#3700A2"/>
</linearGradient>
<linearGradient id="paint5_linear_212_115" x1="1410.08" y1="896.999" x2="1711.39" y2="595.572" gradientUnits="userSpaceOnUse">
<stop stop-color="#2C0086"/>
<stop offset="0.21" stop-color="#4000AE"/>
<stop offset="0.44" stop-color="#5200D1"/>
<stop offset="0.65" stop-color="#5F00EA"/>
<stop offset="0.84" stop-color="#6600FA"/>
<stop offset="1" stop-color="#6900FF"/>
</linearGradient>
<linearGradient id="paint6_linear_212_115" x1="1456.96" y1="795.932" x2="1456.96" y2="501.85" gradientUnits="userSpaceOnUse">
<stop stop-color="#AA00EF"/>
<stop offset="1" stop-color="#3700A2"/>
</linearGradient>
<radialGradient id="paint7_radial_212_115" cx="0" cy="0" r="1" gradientUnits="userSpaceOnUse" gradientTransform="translate(1531.56 699.482) rotate(-90) scale(206.918 206.999)">
<stop stop-color="white"/>
<stop offset="0.15" stop-color="#FAF8FC"/>
<stop offset="0.36" stop-color="#EEE6F3"/>
<stop offset="0.61" stop-color="#D9C8E4"/>
<stop offset="0.88" stop-color="#BC9FD0"/>
<stop offset="1" stop-color="#AD8AC6"/>
</radialGradient>
<linearGradient id="paint8_linear_212_115" x1="1329.08" y1="626.267" x2="1473.6" y2="626.267" gradientUnits="userSpaceOnUse">
<stop stop-color="#AA00EF"/>
<stop offset="1" stop-color="#3700A2"/>
</linearGradient>
<linearGradient id="paint9_linear_212_115" x1="1417.06" y1="981.013" x2="1512.83" y2="885.209" gradientUnits="userSpaceOnUse">
<stop stop-color="#2C0086"/>
<stop offset="0.21" stop-color="#4000AE"/>
<stop offset="0.44" stop-color="#5200D1"/>
<stop offset="0.65" stop-color="#5F00EA"/>
<stop offset="0.84" stop-color="#6600FA"/>
<stop offset="1" stop-color="#6900FF"/>
</linearGradient>
<linearGradient id="paint10_linear_212_115" x1="1350.91" y1="653.19" x2="1470.19" y2="533.864" gradientUnits="userSpaceOnUse">
<stop stop-color="#2C0086"/>
<stop offset="0.21" stop-color="#4000AE"/>
<stop offset="0.44" stop-color="#5200D1"/>
<stop offset="0.65" stop-color="#5F00EA"/>
<stop offset="0.84" stop-color="#6600FA"/>
<stop offset="1" stop-color="#6900FF"/>
</linearGradient>
<linearGradient id="paint11_linear_212_115" x1="1161.32" y1="805.984" x2="1280.6" y2="686.658" gradientUnits="userSpaceOnUse">
<stop stop-color="#2C0086"/>
<stop offset="0.21" stop-color="#4000AE"/>
<stop offset="0.44" stop-color="#5200D1"/>
<stop offset="0.65" stop-color="#5F00EA"/>
<stop offset="0.84" stop-color="#6600FA"/>
<stop offset="1" stop-color="#6900FF"/>
</linearGradient>
<linearGradient id="paint12_linear_212_115" x1="1216.67" y1="877.552" x2="1315.93" y2="778.247" gradientUnits="userSpaceOnUse">
<stop stop-color="#230072"/>
<stop offset="0.02" stop-color="#280076"/>
<stop offset="0.25" stop-color="#5600A1"/>
<stop offset="0.47" stop-color="#7B00C3"/>
<stop offset="0.67" stop-color="#9500DB"/>
<stop offset="0.86" stop-color="#A400EA"/>
<stop offset="1" stop-color="#AA00EF"/>
</linearGradient>
<linearGradient id="paint13_linear_212_115" x1="1378.87" y1="531.342" x2="1460.73" y2="449.45" gradientUnits="userSpaceOnUse">
<stop stop-color="#230072"/>
<stop offset="0.02" stop-color="#280076"/>
<stop offset="0.25" stop-color="#5600A1"/>
<stop offset="0.47" stop-color="#7B00C3"/>
<stop offset="0.67" stop-color="#9500DB"/>
<stop offset="0.86" stop-color="#A400EA"/>
<stop offset="1" stop-color="#AA00EF"/>
</linearGradient>
<linearGradient id="paint14_linear_212_115" x1="1440.22" y1="610.327" x2="1530.53" y2="519.979" gradientUnits="userSpaceOnUse">
<stop stop-color="#2C0086"/>
<stop offset="0.21" stop-color="#4000AE"/>
<stop offset="0.44" stop-color="#5200D1"/>
<stop offset="0.65" stop-color="#5F00EA"/>
<stop offset="0.84" stop-color="#6600FA"/>
<stop offset="1" stop-color="#6900FF"/>
</linearGradient>
<radialGradient id="paint15_radial_212_115" cx="0" cy="0" r="1" gradientUnits="userSpaceOnUse" gradientTransform="translate(1454.26 513.704) rotate(-90) scale(43.3764 43.3934)">
<stop stop-color="white"/>
<stop offset="0.15" stop-color="#FAF8FC"/>
<stop offset="0.36" stop-color="#EEE6F3"/>
<stop offset="0.61" stop-color="#D9C8E4"/>
<stop offset="0.88" stop-color="#BC9FD0"/>
<stop offset="1" stop-color="#AD8AC6"/>
</radialGradient>
<linearGradient id="paint16_linear_212_115" x1="1289.96" y1="810.131" x2="1289.96" y2="704.361" gradientUnits="userSpaceOnUse">
<stop stop-color="#AA00EF"/>
<stop offset="1" stop-color="#3700A2"/>
</linearGradient>
<clipPath id="clip0_212_115">
<rect width="590" height="628" fill="white" transform="matrix(-1 0 0 1 1712 428)"/>
</clipPath>
</defs>
</svg>
